<?xml version="1.0" encoding="UTF-8" standalone="no"?>
<svg
   width="1434"
   height="827"
   viewBox="0 0 1434 827"
   fill="none"
   version="1.1"
   id="svg4"
   sodipodi:docname="Vector.svg"
   inkscape:version="1.1.2 (0a00cf5339, 2022-02-04)"
   xmlns:inkscape="http://www.inkscape.org/namespaces/inkscape"
   xmlns:sodipodi="http://sodipodi.sourceforge.net/DTD/sodipodi-0.dtd"
   xmlns="http://www.w3.org/2000/svg"
   xmlns:svg="http://www.w3.org/2000/svg">
  <defs
     id="defs8" />
  <sodipodi:namedview
     id="namedview6"
     pagecolor="#ffffff"
     bordercolor="#666666"
     borderopacity="1.0"
     inkscape:pageshadow="2"
     inkscape:pageopacity="0.0"
     inkscape:pagecheckerboard="0"
     showgrid="false"
     inkscape:zoom="0.46408647"
     inkscape:cx="507.44853"
     inkscape:cy="467.58527"
     inkscape:window-width="1680"
     inkscape:window-height="982"
     inkscape:window-x="0"
     inkscape:window-y="0"
     inkscape:window-maximized="1"
     inkscape:current-layer="svg4" />
  <path
     d="M1110.96 0.617342C1152.77 0.617342 1194.59 0.617342 1236.36 0.617342C1254.76 23.7821 1276.96 43.2255 1297.95 63.9233C1316.35 82.0287 1338.34 88.9697 1363.76 88.3844C1399.77 87.5481 1435.18 82.3632 1470.51 75.882V347.546C1442.08 329.942 1424.9 304.143 1420.8 271.487C1416.87 240.335 1427.53 208.766 1417.79 176.904C1414.61 166.492 1414.23 160.597 1402.57 157.712C1380.03 152.15 1374.97 153.53 1361 182.465C1353.19 198.647 1347.58 199.483 1336.67 185.1C1310.28 150.352 1309.82 150.687 1274.99 172.848C1236.57 197.309 1226.95 238.83 1250.99 276.462C1261.28 292.603 1258.98 298.875 1240 297.495C1206.54 295.07 1197.6 324.214 1179.16 341.148C1177.69 342.486 1177.4 348.089 1178.49 348.842C1193.79 359.212 1198.6 378.906 1217.71 387.227C1250.99 401.736 1282.44 395.924 1314.93 387.352C1335.16 382 1357.28 376.523 1375.43 389.652C1406.25 411.897 1437.31 433.431 1470.47 452.038V552.349C1439.78 549.841 1409.76 553.353 1376.1 567.653C1385.67 556.322 1390.94 549.966 1396.34 543.778C1414.57 522.913 1418.62 495.692 1408.25 474.074C1393.37 443.174 1358.29 432.01 1327.26 432.971C1280.93 434.393 1256.93 466.715 1257.47 513.086C1257.47 515.512 1258.64 518.689 1254.5 520.487C1246.64 509.741 1239.58 496.737 1222.31 501.964C1198.35 509.24 1173.89 513.463 1148.84 514.843C1132.62 515.721 1124.21 524.292 1123.59 541.562C1122.67 566.357 1125.01 590.4 1136.05 615.237C1097.45 607.878 1066.01 590.902 1037.03 569.869C1023.73 560.21 1028.54 539.513 1043.72 533.199C1052.63 529.477 1061.49 524.711 1070.82 523.122C1114.14 515.679 1129.9 480.764 1146.54 447.439C1153.9 432.679 1145.58 423.354 1130.07 427.535C1113.47 432.01 1096.66 436.944 1081.15 444.219C1049.32 459.189 1019.34 476.667 1019.47 518.648C1019.47 527.679 1018.88 536.711 1018.13 545.743C1017.34 555.485 1014.08 559.207 1003.5 553.562C988.946 545.785 975.482 535.791 959.216 531.15C956.499 530.355 953.153 526.801 952.61 524C948.888 504.598 934.253 493.518 920.873 481.726C907.367 469.851 894.196 457.307 880.523 445.975C853.428 423.48 822.402 405.709 786.275 401.778C753.869 398.266 748.81 405.5 754.496 437.613C756.921 451.411 762.399 462.743 772.351 471.858C788.658 486.786 804.087 503.135 822.276 515.344C850.166 534.077 882.363 544.907 915.981 541.06C933.417 539.053 947.007 540.6 963.021 547.708C1017.84 572.086 1059.9 622.638 1124.55 626.736C1127.73 626.945 1132.12 627.74 1131.2 632.632C1130.49 636.604 1126.85 638.528 1123.34 637.524C1111.42 634.095 1100.42 638.151 1092.02 644.8C1066.76 664.828 1035.9 675.951 1011.32 698.112C1005.29 683.854 987.859 676.913 989.782 658.724C991.706 640.075 978.743 631.252 964.15 629.078C945.042 626.193 925.264 627.363 905.82 627.865C896.454 628.116 891.478 634.806 889.304 643.963C885.248 661.065 890.14 676.829 895.659 692.593C901.095 708.203 895.771 714.67 879.687 711.994C843.685 706.015 833.9 712.831 824.66 748.121C819.977 766.018 824.91 784.207 821.273 802.061C815.544 830.202 819.851 835.888 846.988 837.394C862.041 859.764 859.365 885.479 839.378 902.163C834.904 905.884 830.221 915.502 822.444 908.519C817.092 903.71 812.952 897.062 815.837 888.072C818.806 878.831 824.66 869.716 821.607 858.76C810.987 864.656 801.244 869.841 791.752 875.444C785.689 879.04 780.421 880.378 775.278 873.981C769.926 867.29 774.818 862.942 777.912 857.422C783.306 847.805 793.843 845.046 804.087 836.097H770.72C763.11 823.595 764.239 814.103 775.152 802.187C796.812 778.478 793.592 746.114 770.762 729.054C749.074 712.858 745.214 692.425 759.179 667.755C759.514 667.17 759.932 666.585 760.308 665.999C766.371 655.671 765.535 648.939 752.949 643.336C741.869 638.402 727.485 636.437 721.212 625.105C712.264 609.007 703.024 614.819 692.57 621.718C687.427 625.105 684.542 634.639 675.761 628.116C663.091 618.708 654.938 628.325 647.119 635.559C635.453 646.305 625.584 659.058 613.584 669.344C580.175 697.903 543.755 717.514 497.885 701.123C487.641 697.443 477.146 699.868 466.943 698.321C438.468 694.014 407.693 701.039 381.81 684.481C370.604 677.331 363.454 680.09 353.795 685.693C334.519 696.858 314.574 706.809 294.88 717.263C293.709 715.59 292.58 713.918 291.409 712.203C305.584 705.68 308.553 688.244 322.268 682.307C360.234 665.916 397.7 648.019 440.81 648.354C468.908 648.563 497.551 644.967 517.914 623.307C546.347 593.118 581.429 595.878 616.678 600.059C653.182 604.408 688.598 607.669 719.875 582.204C727.317 576.141 737.269 574.72 746.844 572.713C758.301 570.329 764.782 564.057 754.12 552.475C744.754 542.272 736.265 531.861 720.46 530.314C693.03 527.638 683.706 498.786 661.753 487.413C655.481 484.151 660.959 477.336 663.426 472.652C670.451 459.481 669.071 445.265 666.813 431.801C663.886 414.448 648.582 408.97 636.164 420.385C618.727 436.442 599.158 449.655 579.422 462.241C562.488 473.029 547.978 488.793 521.217 494.981C532.758 483.984 540.284 477.168 547.393 469.935C569.679 447.188 596.608 429.041 613.082 400.482C619.814 388.774 616.929 383.004 606.434 377.401C579.882 363.268 542.5 369.833 521.51 392.37C516.952 397.262 513.022 403.074 505.495 405.5C505.161 402.28 505.203 399.478 504.617 396.844C500.52 378.488 484.589 371.798 470.456 373.387C457.326 374.85 437.172 376.648 435.374 396.133C434.245 408.427 431.861 420.971 432.781 433.306C436.545 484.946 418.606 528.139 389.546 570.538C342.84 638.695 285.179 697.443 233.748 761.418C233.372 761.878 231.783 761.418 231.03 761.334C242.613 723.618 252.815 685.61 265.986 648.646C286.851 590.233 272.802 534.119 258.836 477.545C256.118 466.548 250.808 459.899 241.024 454.129C191.056 424.734 136.489 403.2 90.5779 366.822C83.5114 361.261 78.8282 361.386 78.0756 372.969C77.0303 388.774 72.7651 404.371 71.5944 420.218C68.3329 465.544 59.2594 511.707 82.257 554.733C101.491 590.693 122.774 625.607 141.758 661.692C156.393 689.498 185.495 708.524 193.189 739.382C206.235 791.942 210.709 815.149 157.062 832.878C155.849 833.296 154.845 834.425 153.758 835.261C151.918 836.766 144.727 836.516 150.915 840.906C168.644 853.576 179.474 870.176 184.993 891.333C187.251 900.031 191.976 909.188 205.9 913.829C200.004 898.902 191.725 887.57 189.342 874.106C188.631 870.092 185.704 865.66 189.593 862.649C194.067 859.179 199.21 861.478 202.806 864.823C215.266 876.364 224.716 889.619 224.842 907.599C210.625 921.648 210.5 924.952 224.549 936.785V907.348C232.243 905.132 225.302 892.755 235.044 891.919C255.909 915.669 260.049 928.757 246.919 944.771C237.762 955.936 242.654 958.946 251.979 961.58C257.958 963.253 262.85 969.734 270.628 966.765C266.781 951.461 259.756 937.37 263.018 921.648C263.896 917.467 265.317 913.369 270 912.366C274.976 911.278 277.109 915.125 279.618 918.638C286.977 928.84 287.771 940.339 287.729 952.34C287.604 987.129 318.922 1015.23 362.2 1013.43C347.774 1007.16 338.868 1002.47 329.46 999.338C306.211 991.561 290.991 978.724 294.838 951.378C295.465 946.987 291.325 941.175 297.765 938.959C303.535 936.952 305.751 942.388 308.72 946.235C317.752 957.859 323.229 972.494 338.868 982.864C334.686 962.166 323.188 946.026 326.742 925.119C355.635 939.252 359.189 965.636 364.249 992.899C372.695 982.278 372.277 970.696 375.204 960.326C376.291 956.479 374.995 951.336 380.431 950.333C386.285 949.287 388.96 953.594 391.302 958.11C401.965 978.724 392.306 993.401 375.162 1006.53C396.278 1006.15 407.86 996.62 429.938 962.04C384.737 940.883 340.08 919.181 294.796 899.027C251.77 879.876 207.74 862.984 167.933 837.31C191.851 838.23 213.845 833.463 235.421 821.755C256.327 810.424 279.116 796.751 301.695 795.496C353.502 792.611 405.644 793.447 457.702 796.834C501.063 799.636 542.919 803.943 575.533 836.975C576.579 839.526 577.331 842.286 578.753 844.586C582.349 850.398 588.747 857.213 582.558 862.942C576.161 868.879 566.543 867.792 559.268 862.524C554.334 858.969 550.487 853.785 546.64 848.976C542.584 843.917 540.87 836.014 531.796 837.435C528.033 843.122 533.929 846.509 534.598 851.025C535.434 856.837 542.25 863.444 535.518 868.043C529.664 871.974 524.019 865.242 518.792 862.273C516.032 860.684 513.273 857.673 512.269 854.663C505.203 834.007 490.484 833.63 472.421 838.523C477.355 860.475 496.422 871.263 507.252 887.779C510.931 893.382 519.001 891.124 525.022 889.912C531.127 888.699 536.856 885.939 542.919 884.309C558.808 880.044 577.624 887.319 580.802 897.438C584.272 908.435 564.327 908.31 553.916 911.655C552.159 912.24 550.32 912.617 548.647 913.076C549.274 923.195 569.178 926.666 560.188 935.907C552.452 943.81 542.208 931.224 533.385 926.791C532.883 926.541 531.629 927.711 530.709 928.255C533.594 939.168 540.619 947.865 546.097 957.441C551.365 966.682 556.048 966.055 561.149 958.152C569.136 945.775 581.011 947.489 592.844 948.744C601.333 949.664 611.201 951.002 612.121 960.953C612.999 970.529 602.545 971.072 595.855 973.999C590.586 976.341 585.276 978.473 578.209 981.442C596.984 988.132 613.208 995.993 631.773 985.54C640.972 980.355 649.042 975.63 646.742 963.713C644.317 951.043 635.954 944.939 623.076 944.897C614.713 944.897 606.183 945.9 598.071 944.437C588.328 942.681 580.342 934.694 581.805 925.704C583.227 916.84 594.35 915.711 602.42 917.341C615.215 919.934 627.926 923.028 636.331 935.238C641.223 942.388 647.37 950.542 658.576 944.813C663.468 942.806 668.276 942.722 672.959 945.44C672.959 961.371 665.475 975.672 662.883 991.059C641.223 984.871 626.379 994.99 625.041 1014.98C624.33 1025.39 626.63 1037.47 626.086 1048.89C619.94 1054.28 614.295 1056.75 611.535 1045.92C610.03 1039.9 609.068 1033.79 607.563 1027.77C605.765 1020.62 603.883 1015.77 593.806 1019.37C581.805 1023.59 589.75 1028.61 591.924 1032.96C604.636 1058.42 621.612 1080.87 641.306 1101.32C662.632 1123.52 680.277 1125.24 708.292 1107.97C706.703 1102.12 699.427 1105.13 696.877 1100.69C689.978 1086.39 683.455 1071.93 676.137 1057.84C668.318 1042.74 672.458 1037.6 688.765 1041.28C688.765 1044.04 688.807 1046.8 688.849 1049.56C691.776 1073.35 714.857 1084.14 724.265 1104C726.565 1108.89 732.001 1104.12 735.011 1099.57C742.538 1088.19 734.509 1080.08 729.659 1071.47C726.69 1066.2 725.059 1060.43 728.237 1055.87C732.837 1049.35 737.896 1055.7 742.663 1057.42C745.172 1058.3 747.513 1059.51 750.189 1060.68C754.663 1042.36 750.733 1031.28 729.701 1032.25C725.896 1032.41 722.007 1029.82 718.118 1028.48C718.495 1021.29 717.867 1014.31 713.979 1007.99C745.59 1007.7 768.086 1027.1 776.699 1062.02C774.023 1065.95 769.675 1065.65 765.744 1066.78C756.378 1069.46 746.426 1071.59 751.653 1085.85C758.009 1103.16 765.451 1086.48 772.267 1087.02L772.602 1087.31C772.518 1088.65 772.476 1090.03 772.476 1091.37C772.142 1097.73 772.142 1102.33 780.295 1105.67C800.742 1114.12 800.742 1096.26 807.809 1086.73C812.701 1080.12 813.37 1067.37 826.04 1070.51C837.873 1073.43 826.541 1084.68 831.852 1091.33C833.482 1089.45 834.653 1086.94 835.991 1086.81C843.1 1086.14 846.779 1050.94 857.567 1084.6C858.989 1089.03 864.801 1087.27 868.606 1085.06C873.749 1082.05 879.77 1079.96 883.701 1085.31C887.715 1090.74 885.624 1097.31 881.777 1102.7C878.056 1108.01 874.083 1113.16 870.237 1118.38C877.679 1117.25 883.157 1112.95 889.387 1110.94C897.499 1108.39 905.486 1096.18 912.594 1103.08C919.87 1110.14 906.113 1116.42 904.357 1124.15C904.064 1125.41 904.357 1126.83 904.357 1128.42C914.685 1130.01 925.431 1126.33 935.299 1130.72C938.937 1132.35 943.661 1134.15 943.871 1138.95C944.121 1144.31 939.271 1145.06 935.341 1146.44C931.703 1147.74 928.232 1149.49 923.382 1151.62C934.421 1159.02 946.254 1162.87 953.195 1172.66C956.457 1177.26 963.858 1182.65 958.673 1188.84C953.613 1194.9 946.965 1189.51 941.822 1186.5C935.09 1182.57 928.901 1177.72 920.497 1171.9C920.915 1182.65 916.148 1194.06 926.267 1194.82C952.777 1196.78 936.804 1205.35 929.863 1213.38C938.1 1220.99 950.143 1212.67 958.84 1219.28C953.948 1229.52 942.616 1226.18 935.341 1232.41C941.822 1233.2 947.676 1232.91 952.693 1234.79C961.098 1237.97 968.373 1244.53 963.732 1253.86C958.714 1263.94 952.233 1254.78 946.547 1252.31C943.202 1250.85 940.484 1246.46 938.226 1248.17C931.41 1256.62 948.261 1269.37 933.375 1270.21C912.594 1271.38 916.817 1250.6 911.758 1233.79C911.047 1243.24 910.043 1248.72 910.336 1254.15C910.754 1261.59 907.033 1267.95 901.011 1268.45C892.774 1269.12 890.809 1261.09 889.638 1254.03C885.332 1227.77 882.07 1224.76 852.8 1219.45C854.097 1228.85 862.083 1230.61 868.857 1233.91C876.132 1237.51 881.61 1242.82 881.066 1251.68C880.481 1261.13 873.958 1257.04 868.731 1256.99C862.877 1256.95 865.762 1261.64 866.013 1264.35C866.557 1269.87 867.895 1275.31 868.271 1280.83C868.606 1286.35 869.15 1292.79 860.87 1292.91C853.762 1293.04 851.295 1287.89 850.877 1281.92C850.417 1275.69 850.793 1269.45 850.793 1258.46C846.277 1267.99 844.563 1273.34 841.385 1277.69C838.166 1282.12 832.312 1284.84 831.643 1276.4C830.806 1265.73 827.963 1254.03 837.706 1244.99C841.427 1241.57 850.083 1239.01 845.734 1232.78C840.716 1225.63 836.995 1235.84 832.145 1236.63C826.291 1237.55 819.182 1244.16 814.917 1238.01C810.234 1231.24 816.882 1225.59 821.984 1220.66C829.427 1213.42 842.18 1212.21 846.821 1200.25C835.866 1197.16 827.419 1208.78 817.217 1201.93C817.384 1192.39 822.193 1185.2 830.179 1180.22C852.34 1166.38 852.382 1166.55 832.604 1150.03C825.12 1143.8 818.22 1136.86 810.527 1130.93C800.533 1123.19 798.986 1123.32 783.013 1127.33C792.338 1142.72 807.14 1150.66 823.071 1157.35C827.419 1159.15 832.437 1162.16 830.806 1168.14C829.635 1172.41 825.371 1174.87 821.064 1174.41C803.46 1172.53 799.028 1179.05 805.3 1195.57C808.018 1202.68 806.052 1212.67 797.815 1214.34C790.916 1215.72 789.745 1206.23 787.947 1200.55C785.982 1194.4 784.979 1187.96 783.473 1181.4C775.236 1185.37 768.002 1194.02 760.225 1189.3C752.322 1184.49 759.932 1175.25 759.597 1167.97C759.472 1165.09 760.894 1158.98 755.751 1161.32C737.478 1169.48 743.499 1153.71 743.248 1147.86C742.83 1138.12 745.465 1128.21 746.97 1117.25C731.792 1124.32 717.909 1130.51 704.236 1137.2C697.253 1140.63 685.587 1142.01 687.26 1151.75C688.807 1160.86 699.135 1165.59 708.376 1166.09C725.31 1167.01 738.189 1174.45 749.102 1186.29C746.51 1193.86 730.913 1190.93 736.391 1202.43C742.454 1215.1 750.733 1204.31 757.465 1202.3C765.368 1199.96 774.149 1193.56 779.71 1203.14C785.564 1213.22 773.438 1214.68 768.546 1219.53C767.417 1220.66 766.873 1222.33 765.828 1224.21C777.996 1227.85 793.467 1213.22 800.575 1228.9C805.885 1240.6 787.111 1239.77 783.431 1249.22C792.714 1249.89 801.746 1249.47 810.192 1251.52C816.799 1253.11 824.116 1257.91 822.778 1265.94C821.231 1275.18 812.659 1270.96 807.181 1270.63C799.655 1270.21 792.212 1268.16 784.728 1266.82C775.487 1273.26 766.162 1282.42 762.859 1261.51C761.479 1252.73 755.876 1247.67 747.304 1256.53C743.875 1260.13 739.903 1262.6 734.719 1262.56C736.307 1252.56 727.234 1252.31 722.634 1252.69C715.777 1253.31 715.275 1261.05 713.937 1266.99C712.432 1273.72 710.383 1282.88 702.313 1281.08C692.863 1278.95 691.776 1269.16 693.741 1260.46C694.786 1255.78 697.546 1251.56 699.093 1246.96C706.87 1224.17 696.208 1184.28 676.764 1171.69C669.614 1167.05 659.077 1152.79 653.725 1160.78C646.659 1171.36 664.639 1169.73 670.116 1175.46C675.97 1181.6 684.082 1187.5 679.441 1196.45C674.339 1206.32 667.733 1196.57 661.962 1195.03C658.283 1194.06 654.311 1189.38 651.718 1195.4C649.544 1200.42 653.934 1202.85 657.99 1204.14C666.729 1206.9 674.59 1211.17 680.444 1218.32C685.754 1224.8 687.72 1233.66 682.242 1239.27C675.844 1245.83 670.032 1237.76 664.764 1233.83C661.126 1231.15 659.83 1224.97 652.345 1226.64C652.053 1230.28 651.844 1234.25 651.384 1238.14C650.506 1245.41 651.467 1256.33 642.185 1256.03C633.069 1255.7 634.156 1244.37 633.529 1237.26C632.818 1229.06 633.989 1220.7 634.365 1212.42C634.993 1212.21 635.704 1212.13 636.205 1211.75C636.456 1211.54 636.331 1210.83 636.373 1210.37C635.787 1211.12 635.202 1211.92 634.616 1212.67C628.888 1211.63 625.961 1216.18 622.072 1218.86C608.776 1227.98 601.374 1225.34 601.082 1208.41C608.232 1202.22 614.002 1194.02 625.501 1194.98C632.317 1195.57 636.916 1191.14 640.136 1185.07C642.018 1181.56 642.561 1178.47 639.676 1175.71C634.909 1171.11 634.282 1177.17 632.526 1179.05C624.121 1188.09 614.169 1190.89 602.462 1187.33C599.535 1186.45 598.071 1184.49 598.949 1181.1C601.792 1169.9 609.654 1163.62 619.814 1159.65C621.738 1158.9 623.996 1158.98 625.835 1158.15C636.372 1153.25 637.083 1144.52 629.055 1138.7C617.473 1130.3 610.49 1118.3 600.663 1108.72C591.297 1099.57 580.3 1092.96 567.882 1088.95C570.139 1097.68 581.22 1100.19 578.753 1110.06C571.059 1117.38 547.016 1094.3 552.285 1128.75C571.687 1105.54 584.9 1119.93 599.66 1131.47C592.259 1137.95 584.9 1140.54 576.286 1141.88C568.091 1143.18 553.33 1135.48 553.121 1143.93C552.829 1156.89 567.38 1146.4 575.031 1149.49C584.105 1153.17 596.524 1156.39 595.144 1166.55C593.597 1177.84 580.677 1177.09 570.85 1176.13C566.167 1175.67 561.568 1174.16 556.926 1173.12C572.146 1185.45 593.095 1188.67 601.416 1208.62C584.314 1209.08 566.209 1212.96 553.958 1194.52C553.958 1202.26 556.759 1207.57 561.777 1212.8C568.049 1219.36 572.021 1227.6 571.645 1237.22C571.436 1242.61 573.568 1249.38 567.338 1252.19C559.979 1255.45 555.965 1249.01 552.327 1244.24C541.873 1230.69 542.71 1214.93 545.804 1198.16C535.852 1202.13 537.734 1212.3 531.88 1217.15C527.657 1220.66 524.061 1225.97 517.747 1224.42C509.76 1222.46 513.147 1215.39 512.98 1210.46C512.52 1197.7 512.813 1184.91 512.813 1170.86C491.195 1179.43 488.812 1192.89 493.788 1209.41C495.167 1214.05 496.171 1218.82 497.885 1223.33C499.432 1227.43 501.189 1231.61 496.924 1234.58C491.613 1238.3 487.975 1233.96 484.547 1230.65C483.083 1229.23 482.372 1227.1 480.993 1225.55C479.947 1224.38 478.693 1221.87 475.64 1226.01C478.066 1235.59 483.836 1247 473.466 1256.53C452.434 1245.91 460.42 1226.14 457.661 1207.57C445.702 1216.35 445.618 1225.09 450.928 1234.29C454.901 1241.19 457.828 1248.09 456.155 1255.95C455.235 1260.26 455.946 1266.44 449.13 1267.11C443.527 1267.66 440.768 1264.1 437.799 1259.67C431.193 1249.8 436.754 1238.72 435.207 1227.72C421.282 1232.53 426.927 1243.24 425.255 1251.22C423.624 1258.88 419.777 1265.48 413.129 1269.5C409.951 1271.42 406.648 1268.03 404.515 1265.19C399.414 1258.42 399.581 1250.93 402.383 1243.4C403.344 1240.9 405.268 1238.64 407.108 1236.59C410.369 1232.99 415.052 1229.77 411.833 1224.3C410.787 1222.5 407.024 1221.33 404.641 1221.45C398.661 1221.83 396.989 1226.55 396.278 1231.66C395.233 1239.52 392.766 1249.22 384.403 1248.46C375.831 1247.71 376.625 1237.01 375.287 1229.65C374.995 1227.98 373.49 1226.47 372.151 1224.25C369.183 1225.88 366.967 1227.39 364.5 1228.44C356.262 1231.86 345.976 1242.69 339.62 1230.82C333.097 1218.57 344.554 1211.08 355.217 1206.02C364.081 1201.8 372.904 1197.49 381.769 1193.23C365.963 1190.76 351.328 1190.64 336.526 1180.81C353.837 1170.98 369.35 1167.05 385.866 1175.37C396.571 1180.73 403.972 1179.05 409.24 1166.84C400.877 1166.84 393.226 1166.59 385.615 1166.89C374.702 1167.35 366.381 1158.4 366.339 1152C366.339 1142.84 377.378 1144.85 384.946 1145.6C388.208 1145.94 391.762 1146.94 394.815 1143.47C392.766 1137.2 390.299 1130.55 393.978 1122.98C423.248 1132.05 455.486 1129.17 482.582 1152.54C482.916 1142.22 479.32 1142.17 477.522 1140.33C473.132 1135.82 459.417 1136.65 466.358 1125.66C472.044 1116.71 480.951 1120.97 488.435 1125.66C493.16 1128.63 498.136 1131.14 502.777 1134.23C511.057 1139.75 516.032 1136.61 520.297 1130.55C513.273 1118.93 492.7 1133.31 494.08 1115.5C495.335 1099.44 512.395 1104.88 522.89 1102.33C524.061 1089.28 513.356 1081.04 511.015 1065.36C505.245 1078.12 493.662 1082.8 495.209 1095.84C495.753 1100.61 494.122 1105.92 488.31 1107.18C483.376 1108.26 481.16 1103.5 478.4 1100.65C474.804 1096.93 471.877 1092.54 466.316 1085.39C468.95 1105.55 462.636 1117.96 449.549 1126.62C441.897 1119.72 444.071 1110.27 440.099 1102.16C434.161 1105.29 428.976 1109.02 423.164 1110.81C417.645 1112.49 410.411 1117.17 405.979 1110.44C401.797 1104.17 408.404 1099.36 411.205 1093.92C419.443 1077.86 438.008 1084.22 452.685 1074.31C437.632 1074.31 425.84 1074.39 414.049 1074.31C408.195 1074.23 402.341 1073.1 402.174 1065.74C402.006 1058.96 407.317 1055.7 412.962 1054.91C424.502 1053.36 436.168 1052.86 448.462 1051.9C441.395 1041.24 442.315 1031.91 455.904 1029.36C465.647 1027.52 476.017 1028.98 487.516 1028.98C481.536 1010.5 474.762 1003.77 457.075 1015.19C435.625 1029.03 412.753 1041.49 385.197 1037.14C380.514 1036.39 375.497 1037.47 372.82 1042.7C374.451 1048.8 380.18 1050.64 384.612 1053.74C390.34 1057.71 394.145 1062.85 390.675 1069.54C386.828 1076.99 380.849 1070.09 375.915 1070.55C369.308 1071.17 363.872 1062.94 355.928 1068.75C365.587 1078.66 373.155 1089.57 374.117 1104.79C355.969 1103.29 347.816 1088.4 333.348 1079.37C331.927 1105.17 371.733 1108.47 360.485 1136.45C347.523 1135.15 341.293 1124.07 332.345 1116.96C329.125 1114.41 324.651 1112.07 322.017 1117.67C320.135 1121.64 322.895 1123.86 326.658 1125.24C329.878 1126.45 333.683 1127.5 335.857 1129.88C342.297 1137.07 351.746 1146.52 344.345 1154.93C337.153 1163.04 331.007 1150.08 324.233 1146.73C322.142 1145.73 321.013 1142.05 315.954 1146.31C324.86 1164.25 330.756 1183.7 317.041 1203.56C285.095 1185.28 311.981 1157.85 307.173 1133.94C295.381 1144.26 300.274 1160.57 289.068 1169.69C277.276 1179.26 271.255 1178.43 267.743 1163.75C264.983 1152.25 269.29 1143.55 279.199 1137.11C284.217 1133.85 291.493 1133.56 293.918 1126.66C290.28 1123.11 279.952 1127.33 281.834 1119.01C283.464 1111.86 290.322 1106.8 297.974 1103.87C317.71 1096.26 317.668 1096.1 318.379 1075.36C284.134 1081.04 277.318 1112.9 264.063 1139.04C250.808 1128.33 257.875 1116.08 257.54 1103.12C247.923 1112.24 247.756 1123.57 242.236 1132.1C239.226 1136.7 237.971 1143.51 230.696 1141.34C224.173 1139.37 224.674 1133.18 224.549 1127.41C224.465 1122.61 228.312 1116.29 220.535 1113.03C217.232 1116.67 214.221 1120.47 210.75 1123.78C202.095 1131.89 188.756 1138.79 181.397 1130.17C173.954 1121.48 189.091 1114.95 194.778 1107.8C196.826 1105.21 200.13 1102.53 203.266 1101.95C212.674 1100.19 211.127 1095.89 207.74 1089.45C201.301 1077.28 209.203 1077.32 218.151 1077.49C228.898 1077.7 236.926 1088.15 248.968 1086.06C244.578 1074.9 235.379 1067.08 236.006 1055.03C248.592 1050.35 255.031 1064.57 266.195 1064.94C266.446 1061.98 266.572 1059.97 266.823 1057.96C267.492 1052.99 260.049 1046.59 267.826 1043.54C270.879 1042.32 276.523 1046.38 280.37 1048.97C287.228 1053.61 293.625 1058.92 300.232 1063.94C305.793 1068.16 310.602 1066.24 315.076 1062.02C320.971 1056.41 324.107 1048.64 323.689 1041.4C323.229 1033.12 314.616 1036.89 310.183 1037.35C287.437 1039.65 266.99 1035.72 246.668 1023.92C234.501 1016.86 220.284 1007.95 202.764 1013.72C205.733 1020.04 207.907 1025.85 211.001 1031.12C216.521 1040.52 221.538 1053.28 213.552 1059.51C205.022 1066.16 202.179 1048.59 193.565 1046.67C190.973 1049.68 192.896 1052.23 194.61 1054.16C202.639 1063.02 198.625 1068.12 190.136 1073.72C179.976 1080.46 178.094 1071.05 175.209 1066.41C168.728 1055.87 163.543 1044.5 157.856 1033.5C157.396 1031.66 156.936 1029.82 156.476 1027.98C155.64 1029.53 154.804 1031.12 153.926 1032.66C151.25 1032.96 148.532 1033.21 145.856 1033.5C141.925 1029.07 138.371 1032.96 134.733 1034.09C130.426 1035.47 124.949 1039.94 122.691 1032.96C121.018 1027.73 126.579 1022.38 130.844 1023.26C147.152 1026.6 143.639 1017.82 141.674 1008.33C140.587 1003.02 141.423 997.331 141.381 991.77C153.549 986.25 164.379 1009.83 176.881 993.317C139.625 967.016 112.237 978.64 55.4125 997.707C63.8589 1006.11 72.1797 1014.47 77.5737 1025.01C79.1208 1028.06 80.2916 1031.66 77.4901 1034.75C74.4377 1038.14 71.2599 1035.84 68.1239 1034.55C54.8689 1029.19 41.4468 1024.18 29.8644 1013.22C26.2266 1026.35 23.4668 1037.77 19.8708 1048.89C15.5222 1062.35 8.62292 1074.23 -4.96655 1080.67C-10.9042 1083.47 -17.678 1084.72 -22.7793 1080.67C-28.9259 1075.77 -24.8699 1069.42 -22.4447 1063.69C-16.6326 1049.72 -6.09558 1039.81 5.44495 1030.7C10.0446 1027.06 14.1423 1022.75 10.2954 1016.69C8.16296 1013.35 4.4834 1009.33 1.05457 1008.91C-5.80286 1008.08 -4.75745 1015.23 -6.34631 1019.37C-9.48242 1027.52 -14.9182 1034.09 -22.4028 1037.81C-32.8145 1042.95 -33.609 1051.19 -35.0725 1061.47C-40.4247 1099.9 -22.5701 1138.08 -34.3197 1176.42C-34.5288 1177.13 -33.2744 1178.34 -32.1036 1180.22C-30.5565 1176.54 -29.6785 1173.28 -27.9641 1170.57C-21.2739 1160.03 -13.7057 1145.27 -1.03601 1148.11C10.4626 1150.7 -5.67737 1164.8 1.43091 1174.16C5.11047 1171.19 9.08276 1168.52 12.3861 1165.21C18.3655 1159.23 24.3866 1154.97 31.8295 1162.62C39.3977 1170.44 35.5509 1176.96 30.1987 1184.57C20.9161 1197.74 6.74133 1195.11 -8.98071 1196.57C1.51465 1201.21 9.71008 1203.47 16.1912 1208.11C22.296 1212.5 32.9166 1217.61 26.2683 1227.52C20.6653 1235.96 11.0063 1238.68 0.42749 1234.71C-7.22449 1231.82 -11.7405 1225.68 -16.6327 1219.95C-21.3575 1214.43 -25.4552 1208.32 -36.1595 1206.73C-18.6396 1226.26 -28.1731 1244.53 -35.2396 1262.93C-72.5375 1264.23 -97.6676 1244.07 -116.275 1214.85C-140.234 1177.26 -179.204 1167.09 -218.008 1163.21C-278.763 1157.1 -339.936 1157.31 -401.068 1166.26C-439.495 1171.9 -477.169 1179.3 -508.153 1202.34C-534.328 1221.79 -554.65 1216.98 -579.111 1200.88C-612.687 1178.8 -647.393 1159.78 -691.172 1166.13C-737.418 1172.82 -780.82 1189.05 -825.519 1201.01C-836.767 1204.02 -852.573 1206.99 -857.047 1215.06C-867.584 1234.21 -885.438 1232.53 -901.244 1237.51C-908.477 1239.81 -916.129 1240.81 -923.238 1243.36C-931.977 1246.46 -941.887 1251.85 -939.629 1261.89C-937.496 1271.42 -926.625 1266.53 -919.516 1266.7C-914.75 1266.82 -909.857 1265.65 -905.132 1264.6C-864.239 1255.45 -825.895 1237.22 -782.953 1234.41C-748.582 1232.16 -714.671 1223.25 -680.007 1220.78C-655.672 1219.07 -639.323 1234.79 -619.921 1244.12C-631.503 1245.5 -641.748 1240.6 -653.121 1241.44C-682.892 1243.57 -712.789 1244.32 -742.561 1246.29C-750.045 1246.79 -757.655 1249.05 -764.68 1251.85C-814.313 1271.42 -854.412 1306.54 -898.651 1334.89C-903.251 1337.86 -911.237 1341.96 -907.223 1349.32C-903.167 1356.76 -895.599 1355.51 -888.825 1351.79C-858.092 1334.85 -821.589 1335.48 -790.981 1313.53C-764.304 1294.42 -728.846 1287.48 -697.067 1275.77C-688.997 1272.8 -652.076 1289.27 -653.623 1294.29C-657.344 1306.38 -671.645 1305.12 -680.049 1311.9C-684.063 1315.16 -690.335 1315.78 -695.646 1317.29C-738.212 1329.42 -780.82 1341.25 -823.303 1353.71C-847.137 1360.69 -863.946 1376.25 -875.068 1398.37C-877.995 1404.18 -881.424 1410.16 -875.695 1415.38C-869.925 1420.65 -864.071 1416.1 -858.468 1413.38C-842.955 1405.85 -831.457 1391.22 -813.518 1387.91C-776.681 1381.14 -741.473 1368.47 -705.388 1358.89C-701.207 1357.77 -695.855 1352.83 -692.091 1358.18C-688.245 1363.62 -692.091 1369.14 -695.771 1373.19C-709.611 1388.29 -712.998 1405.06 -707.688 1425C-702.712 1443.82 -701.332 1463.05 -707.019 1482.58C-709.737 1491.95 -708.608 1505.2 -696.189 1505.87C-669.052 1507.29 -665.623 1524.85 -662.905 1545.8C-661.233 1558.68 -656.341 1571.18 -652.619 1583.77C-650.654 1590.42 -648.522 1597.32 -641.664 1600.75C-624.186 1609.53 -612.813 1624.29 -602.652 1640.22C-597.551 1648.25 -589.731 1652.72 -581.661 1656.86C-569.326 1663.17 -564.267 1657.19 -565.647 1645.4C-566.901 1634.74 -571.584 1624.41 -567.779 1610.65C-532.321 1638.59 -497.031 1663.97 -464.792 1693.24H-669.637C-678.418 1668.53 -691.632 1647.7 -717.807 1638.04C-743.104 1628.68 -768.82 1620.27 -793.281 1609.07C-811.721 1600.66 -834.802 1600.16 -847.262 1580.67C-867.458 1549.06 -889.787 1520 -920.771 1497.34C-958.821 1469.45 -995.617 1445.11 -1047.13 1449.96C-1103.75 1455.32 -1161.03 1453.6 -1217.98 1455.78C-1237.68 1456.53 -1254.36 1452.64 -1269.54 1439.01C-1283.38 1426.59 -1300.48 1417.77 -1314.36 1405.39C-1331.17 1390.42 -1349.86 1386.03 -1371.61 1386.74C-1402.76 1387.75 -1433.41 1388.29 -1464.47 1394.73C-1488.94 1399.79 -1511.64 1404.18 -1529.79 1422.33C-1531.92 1424.46 -1535.93 1424.71 -1539.07 1425.84C-1539.07 1229.4 -1539.07 1032.96 -1539.07 836.557C-1459.58 836.934 -1380.09 837.352 -1300.61 837.728C-1309.85 850.44 -1315.12 866.705 -1331.51 873.019C-1365.63 886.19 -1399.54 900.072 -1434.12 911.906C-1464.85 922.443 -1482.71 943.601 -1493.2 973.163C-1507.33 1013.01 -1513.52 1055.08 -1526.53 1095.05C-1540.95 1139.37 -1529.87 1178.18 -1509.76 1216.69C-1507.84 1220.37 -1505.83 1224.84 -1500.77 1223.25C-1495.63 1221.62 -1496.75 1216.43 -1496.92 1212.5C-1497.63 1195.15 -1496.8 1177.8 -1499.64 1160.49C-1502.32 1144.22 -1505.2 1127.66 -1497.72 1111.4C-1481.41 1076.07 -1470.83 1038.94 -1463.39 1000.76C-1460.96 988.258 -1458.45 974.208 -1443.4 969.149C-1405.35 956.354 -1367.3 943.601 -1326.87 935.656C-1370.77 961.413 -1391.34 1001.93 -1394.9 1049.35C-1399.25 1107.55 -1402.63 1166.01 -1400.96 1224.46C-1400.79 1229.73 -1398.49 1235.33 -1395.86 1240.06C-1371.82 1283.8 -1347.69 1327.49 -1323.14 1370.98C-1317.67 1380.72 -1311.94 1391.51 -1297.89 1390.51C-1294.46 1380.18 -1298.01 1372.15 -1302.24 1363.87C-1323.23 1322.39 -1338.87 1278.74 -1352.92 1234.54C-1373.4 1170.06 -1373.4 1152.33 -1354.3 1109.27C-1353.38 1110.48 -1352.16 1111.36 -1351.91 1112.49C-1351.33 1115.16 -1351.12 1117.96 -1350.95 1120.72C-1348.48 1155.89 -1345.97 1190.68 -1332.59 1224.34C-1304.79 1294.33 -1275.77 1363.37 -1226.09 1421.49C-1221.5 1426.84 -1218.19 1430.56 -1210.75 1427.13C-1204.06 1424.04 -1202.6 1417.43 -1205.44 1413.34C-1214.8 1399.87 -1214.64 1383.31 -1221.2 1369.35C-1243.99 1321.01 -1256.62 1268.33 -1287.73 1223.63C-1279.87 1220.24 -1277.73 1224.21 -1275.43 1227.6C-1263.23 1245.37 -1251.43 1263.43 -1238.76 1280.83C-1219.2 1307.76 -1202.18 1336.57 -1179.05 1360.82C-1173.03 1367.13 -1165.97 1370.35 -1158.9 1364.87C-1150.75 1358.6 -1157.98 1351.74 -1161.62 1346.85C-1183.74 1317.46 -1205.69 1287.89 -1229.11 1259.59C-1267.03 1213.76 -1291.62 1162.33 -1299.64 1102.91C-1290.61 1115.25 -1283.71 1131.51 -1270.08 1136.82C-1243.61 1147.11 -1234.62 1168.22 -1222.16 1190.97C-1196.78 1237.3 -1159.15 1275.39 -1124.53 1315.03C-1108.6 1333.26 -1094.3 1357.01 -1067.96 1362.45C-1042.91 1367.59 -1017.11 1368.93 -991.603 1371.69C-984.578 1372.44 -977.094 1372.4 -972.787 1365.58C-967.644 1357.47 -975.17 1352.58 -979.268 1347.73C-995.366 1328.66 -1011.92 1309.97 -1028.61 1291.37C-1058.92 1257.54 -1089.45 1223.92 -1123.23 1186.45C-1102.91 1192.77 -1090.99 1203.1 -1080.08 1214.26C-1044.08 1251.1 -1001.64 1280.58 -964.508 1316.12C-959.825 1320.63 -953.093 1329.29 -944.897 1323.35C-937.831 1318.25 -940.799 1309.18 -942.514 1301.94C-946.779 1283.84 -950.166 1265.52 -961.121 1249.51C-976.759 1226.64 -990.056 1202.09 -1006.66 1179.97C-1040.94 1134.27 -1081.25 1095.8 -1140.25 1084.6C-1151.12 1082.55 -1158.27 1080.37 -1159.11 1067.54C-1159.65 1059.01 -1167.43 1053.49 -1172.99 1047.38C-1179.22 1040.57 -1186.37 1034.46 -1189.72 1024.26C-1176.46 1024.97 -1164.84 1026.27 -1153.17 1027.31C-1115.66 1030.74 -1077.11 1042.87 -1041.4 1019.62C-1008.12 997.958 -970.822 984.453 -935.364 967.309C-896.853 948.66 -873.647 920.227 -866.831 877.618C-860.392 837.394 -859.639 837.519 -900.742 836.557C-904.212 836.474 -907.683 836.097 -911.154 835.847C-913.662 823.302 -919.349 811.762 -927.503 802.563C-959.072 766.854 -964.675 725.04 -958.529 680.132C-956.187 663.072 -964.424 651.992 -978.432 644.716C-1012.34 627.112 -1028.73 598.386 -1037.81 562.05C-1047.51 523.205 -1063.4 488.793 -1110.9 479.886C-1138.79 474.66 -1166.55 465.628 -1191.47 449.07C-1237.84 418.295 -1259.71 373.763 -1267.16 320.994C-1274.39 269.689 -1343.3 240.252 -1385.2 260.824C-1410.95 273.452 -1439.8 274.246 -1468.66 270.525C-1491.99 267.514 -1515.28 262.998 -1539.03 264.002V167.872C-1527.11 165.823 -1517.03 171.343 -1508.13 177.406C-1486.76 191.999 -1463.55 197.142 -1437.96 197.351C-1405.22 197.644 -1372.82 186.939 -1337.74 196.431C-1358.6 161.015 -1384.44 136.387 -1425 134.547C-1463.68 132.749 -1502.23 131.327 -1539.07 117.696V34.0265C-1521.63 31.894 -1506.46 36.9117 -1492.32 47.2815C-1482.2 54.7243 -1470.45 59.8256 -1457.41 59.0311C-1438.51 57.944 -1419.61 59.1147 -1401.5 63.5052C-1365.21 72.3697 -1327.87 81.2342 -1303.95 113.473C-1283.38 141.195 -1266.36 171.301 -1250.68 202.243C-1227.27 248.447 -1209.83 297.62 -1180.56 340.939C-1155.93 377.443 -1124.95 403.911 -1080.42 412.064C-1059.3 415.911 -1038.02 419.089 -1017.78 426.699C-981.944 440.205 -946.988 454.338 -934.611 496.57C-930.346 511.121 -921.314 524.251 -910.61 535.248C-860.266 587.055 -840.405 648.145 -852.782 719.646C-854.078 727.089 -854.161 735.034 -853.158 742.518C-850.984 759.077 -837.52 767.147 -824.097 767.69C-809.797 768.234 -815.818 751.801 -812.013 743.271C-811.47 742.058 -811.888 740.511 -811.721 739.131C-807.414 707.06 -804.947 674.905 -787.176 645.803C-773.294 623.098 -780.946 580.741 -800.305 562.97C-846.635 520.487 -888.031 474.701 -909.481 413.988C-927.545 362.975 -959.867 321.998 -1000.89 287.46C-1014.22 276.253 -1026.06 263.709 -1036.72 249.869C-1055.33 225.659 -1070.67 196.347 -1094.59 179.329C-1140.63 146.631 -1169.27 102.267 -1194.69 54.7243C-1203.39 38.4588 -1214.01 29.8869 -1231.07 24.6184C-1257.08 16.5902 -1284.42 12.7015 -1309.14 0.533715H-1037.39C-1034.71 21.1479 -1032.46 42.3893 -1020.04 59.5329C-999.882 87.2972 -978.808 114.393 -964.508 146.631C-956.521 140.484 -953.72 132.456 -948.953 125.891C-930.262 100.176 -922.234 68.481 -901.662 43.6855C-888.365 27.6708 -867.416 19.8517 -857.632 0.533715H-753.139C-766.06 17.1338 -778.771 34.1101 -773.294 56.9404C-758.91 117.027 -739.132 175.022 -706.517 228.084C-692.76 250.413 -677.457 272.992 -674.822 299.376C-671.686 330.486 -663.365 360.634 -660.731 391.785C-659.686 403.827 -656.299 415.953 -646.055 425.487C-642.709 415.075 -647.016 406.503 -648.229 397.806C-658.473 324.59 -656.341 255.639 -606.624 192.835C-578.525 157.335 -584.17 121.626 -608.882 98.6705C-622.095 86.4191 -635.141 73.6659 -649.651 63.0871C-671.394 47.2815 -681.722 27.3781 -677.875 0.533715H-443.76C-452.875 15.4612 -465.294 23.364 -483.483 26.0819C-507.4 29.6361 -531.401 31.5177 -555.361 34.0265C-580.24 36.619 -581.327 39.1278 -567.403 60.8709C-557.075 77.011 -537.464 84.5375 -528.474 100.427C-517.686 119.452 -508.195 112.176 -497.992 102.894C-482.605 88.9697 -469.35 73.1223 -457.475 55.9369C-444.178 36.7444 -432.805 15.963 -414.532 0.533715H-197.142C-195.846 14.8758 -203.498 27.2527 -206.342 40.6749C-219.387 102.768 -254.218 147.969 -311.963 176.068C-356.704 197.811 -400.274 221.979 -444.387 245.019C-451.161 248.531 -458.562 251.458 -460.82 259.653C-468.514 287.543 -481.727 313.509 -486.493 342.57C-490.967 369.665 -478.758 374.683 -457.767 376.397C-444.011 377.526 -429.543 374.265 -416.748 380.788C-391.325 393.792 -366.404 402.113 -340.689 381.749C-339.309 380.662 -336.549 380.662 -334.584 380.997C-305.231 385.889 -282.902 372.341 -260.908 355.156C-226.328 328.144 -184.724 309.454 -162.562 268.058C-158.59 260.615 -149.935 255.221 -142.576 250.078C-111.006 228 -83.4509 200.32 -48.3274 183.092C-36.6614 177.406 -33.2327 167.37 -33.4835 153.906C-34.1526 119.243 -32.8982 84.4957 -32.4382 49.7903C-21.3575 59.6165 -10.026 59.3238 3.93982 54.6825C24.1359 47.9923 44.7081 42.0547 65.4478 36.7444C88.2362 30.8905 113.826 26.7927 124.781 0.450087H367.259C359.816 21.8587 344.973 36.159 325.153 46.6543C314.95 52.0482 307.591 51.212 298.559 44.7308C267.533 22.3605 225.343 31.0159 204.228 63.4634C199.753 70.3626 196.116 78.3491 190.094 83.6176C175.083 96.8307 167.85 110.671 183.613 129.487C169.104 129.947 157.438 130.282 146.023 134.338C134.984 138.268 123.151 139.941 112.154 143.955C80.4589 155.579 74.9395 169.796 89.9088 198.438C91.1632 200.821 91.1213 203.957 92.4594 206.257C99.8604 219.094 102.411 234.691 118.049 242.677C134.106 250.872 147.403 244.726 162.33 236.238C157.94 253.883 138.078 262.873 141.883 278.428C148.323 305.063 160.03 332.786 183.446 346.96C220.368 369.289 262.892 368.871 304.33 359.505C314.616 357.163 327.703 350.598 316.079 334.207C310.058 325.719 315.745 315.517 320.93 309.704C327.829 302.011 331.718 313.3 336.652 316.52C357.642 330.319 380.723 339.476 404.557 346.459C419.066 350.724 464.351 332.869 470.372 322.123C481.202 302.763 476.226 279.139 457.117 257.981C452.099 252.42 447.542 246.398 442.022 239.625C452.016 234.858 463.556 226.453 469.87 232.851C486.679 249.911 494.917 245.52 501.732 225.617C502.527 223.317 505.788 221.937 507.712 219.889C528.786 197.56 519.503 154.366 490.902 142.073C469.995 133.083 448.921 124.511 427.931 115.772C407.275 107.159 398.411 87.9244 404.432 66.6412C407.233 56.7314 417.394 57.1495 423.248 51.5883C434.956 40.4658 406.439 43.7273 416.976 32.7721C425.464 23.9494 425.38 11.1126 430.022 0.408273H555.421C521.008 15.503 506.248 43.6019 499.223 79.1435C495.167 99.5904 498.889 111.8 517.621 121.417C531.211 128.4 544.508 134.839 559.226 139.439C578.335 145.418 598.907 147.969 621.78 162.102C607.438 162.813 598.782 163.691 590.126 163.607C572.146 163.44 562.488 171.092 564.327 189.992C566.585 212.697 559.31 233.603 553.247 254.928C546.264 279.473 551.49 286.832 572.314 300.924C594.433 315.935 623.577 315.558 643.062 334.5C657.698 348.758 668.82 344.953 678.73 330.444C684.166 322.541 688.263 313.593 692.277 304.812C699.72 288.588 701.476 269.898 713.644 253.298C714.021 258.315 714.188 261.075 714.439 263.793C717.449 299.669 730.161 306.527 763.612 292.352C777.368 286.498 792.379 282.358 807.181 280.518C830.597 277.591 849.623 269.229 866.683 252.043C888.384 230.217 887.924 205.045 862.459 187.692C854.807 182.465 847.866 176.193 838.291 168.625C857.692 166.492 873.289 168.04 888.927 170.632C895.576 171.719 904.691 173.81 906.155 164.276C910.336 136.888 924.051 109.542 907.116 81.5687C897.959 66.3903 899.757 52.8009 916.065 42.9746C920.831 40.0895 925.431 36.9535 929.905 33.6502C949.683 19.0572 950.226 18.8899 955.746 41.4275C964.61 77.5128 977.573 113.305 960.094 150.896C947.467 178.033 947.132 207.512 948.637 236.823C950.435 272.448 967.746 314.346 1012.24 319.823C1016.25 320.325 1020.14 322.458 1023.86 324.256C1061.74 342.737 1100.21 360.048 1133.66 386.474C1140.23 391.659 1149.68 400.064 1157.41 394.001C1163.81 389.025 1157.62 378.321 1155.78 370.627C1143.36 318.193 1128.98 266.302 1117.94 213.449C1110.25 176.695 1095.61 141.404 1049.45 129.613C1017.21 121.375 1007.55 84.6629 986.228 62.1253C1000.78 66.9757 1014.49 71.8679 1026.62 79.3944C1054.18 96.4544 1080.06 85.5828 1103.22 72.6624C1122.58 61.8744 1115.27 39.1696 1114.55 20.8134C1114.26 13.9559 1112.46 7.14028 1111.33 0.324646L1110.96 0.617342ZM729.701 1234.21C730.412 1235.84 731.081 1237.51 731.792 1239.14C732.502 1238.51 733.84 1237.47 733.757 1237.34C732.878 1235.92 731.75 1234.67 730.704 1233.37C727.025 1223.08 723.805 1212.46 711.762 1205.19C711.302 1220.78 720.251 1227.64 729.701 1234.21ZM491.655 1161.87C471.501 1164 454.357 1177.88 430.774 1175C456.531 1192.6 474.679 1188.84 494.08 1164.25C495.544 1162.75 496.38 1161.07 494.206 1159.61C493.955 1159.44 492.533 1161.07 491.655 1161.87ZM95.0519 924.199C102.62 920.812 112.028 915.711 118.049 922.359C127.458 932.729 110.941 937.245 108.641 945.106C153.508 969.734 201.51 981.902 249.972 1001.68C241.567 971.867 210.834 988.55 199.628 969.734C206.945 962.668 219.239 966.765 224.633 956.897C214.639 949.371 206.653 956.897 198.792 959.239C175.711 966.013 156.434 961.33 140.545 943.182C137.325 939.503 133.27 935.28 134.984 930.429C136.698 925.537 142.427 924.784 147.361 924.575C161.578 923.948 175.46 925.872 186.624 935.154C193.816 941.134 201.133 941.928 211.88 940.506C198.374 924.993 188.255 908.686 164.17 915.627C154.177 918.512 143.514 915.042 133.521 911.697C126.914 909.481 122.022 904.296 122.105 898.316C122.231 889.786 130.677 891.082 136.489 890.79C145.563 890.33 154.678 890.664 163.752 890.664C141.507 881.131 131.848 871.054 124.363 847.513C122.942 843.08 123.234 838.481 116.879 836.474C93.0031 828.864 57.6704 844.795 48.0532 867.876C45.7953 873.353 48.0532 876.991 50.9384 880.964C55.1198 874.65 58.2559 867.625 63.3989 862.649C69.8383 856.419 73.3087 841.91 84.8075 846.885C98.0625 852.656 85.8947 863.778 85.6855 872.559C85.6438 874.692 85.142 876.28 88.0271 877.409C91.3722 875.862 95.0101 872.935 98.8152 872.726C105.004 872.35 106.133 859.639 113.324 865.994C119.346 871.346 114.244 878.915 113.074 885.605C110.565 900.198 97.8115 909.94 95.1355 924.366C94.4247 924.91 93.6721 925.453 92.9612 925.955C93.4211 925.955 94.0483 926.081 94.2574 925.872C94.6338 925.412 94.7592 924.742 94.9683 924.199H95.0519ZM-33.7344 836.892C-42.2644 864.154 -15.8381 867.834 -2.37415 885.981C-3.54492 858.468 16.442 869.883 27.5227 863.444C3.64697 865.743 -12.2003 854.161 -25.3717 837.31C-19.0996 837.101 -12.8693 836.725 -6.59729 836.725C49.4331 836.641 48.8477 836.432 66.9113 783.747C90.2433 715.758 96.139 648.646 59.7611 583.166C51.691 568.657 48.2205 553.52 47.5515 537.464C46.3389 506.229 45.1681 474.952 44.5409 443.676C44.2482 430.504 40.4431 419.591 30.6587 410.308C11.4243 392.119 -10.6532 378.028 -32.8146 363.937V231.638C-54.725 243.388 -71.7432 251.834 -90.7266 257.228C-109.877 262.706 -130.575 271.738 -138.603 291.181C-158.465 339.309 -194.801 374.725 -227.75 412.775C-241.423 428.581 -258.274 440.08 -280.059 444.094C-319.74 451.369 -357.582 462.157 -365.819 510.578C-366.237 513.045 -369.206 514.968 -370.46 517.435C-381.457 538.969 -396.259 558.831 -402.406 582.455C-414.156 627.74 -404.162 667.17 -374.642 704.802C-351.017 734.908 -319.74 762.547 -321.204 807.748C-321.371 813.267 -323.713 837.477 -299.628 837.101C-211.192 835.679 -122.756 836.181 -34.3197 835.972L-33.7344 836.892ZM-837.52 836.641C-808.794 866.872 -783.58 893.633 -758.074 920.143C-749.962 928.589 -741.892 938.081 -728.009 934.861C-711.2 930.973 -715.507 938.959 -720.316 947.865C-725.25 957.023 -730.477 966.347 -728.219 977.302C-720.107 1016.57 -711.577 1055.7 -703.59 1095.01C-701.792 1103.96 -697.444 1108.51 -688.286 1108.68C-678.586 1108.85 -675.366 1103.41 -673.902 1094.59C-671.268 1078.87 -662.362 1065.74 -654.71 1050.23C-647.016 1076.15 -649.86 1100.65 -648.772 1124.9C-648.312 1134.86 -654.041 1148.45 -635.727 1150.03C-613.565 1151.92 -601.607 1145.77 -599.349 1128.38C-593.035 1079.45 -587.515 1030.41 -590.819 981.024C-592.157 961.204 -592.658 938.29 -609.927 925.788C-627.949 912.784 -628.702 896.476 -628.618 878.287C-628.618 874.441 -630.583 869.339 -625.44 867.374C-620.674 865.534 -618.081 870.008 -615.071 872.643C-591.111 893.717 -567.277 914.958 -543.151 935.865C-537.046 941.133 -528.683 944.771 -522.746 937.496C-516.683 930.011 -523.415 923.614 -529.018 918.512C-545.911 903.125 -562.385 887.236 -580.072 872.81C-595.962 859.848 -608.589 838.104 -630.04 837.435C-697.945 835.387 -765.935 836.683 -837.52 836.683V836.641ZM101.826 959.03C63.9425 935.907 14.4349 939.21 -16.8835 902.33C-14.6256 919.265 -20.1449 931.182 -29.4694 942.555C-38.3339 953.427 -38.7521 963.964 -23.6573 970.947C-18.6815 973.246 -14.2074 976.759 -9.73328 980.062C1.33337 988.258 12.4419 987.254 23.5923 977.051C17.1948 973.748 11.0481 970.779 5.15247 967.434C0.38562 964.716 -5.3429 962.124 -4.29749 955.225C-3.08496 947.113 4.10706 949.287 9.08289 948.827C21.0416 947.698 33.0002 948.535 42.9519 956.186C61.4755 970.403 80.6261 970.403 101.784 959.03H101.826ZM-523.708 868.001C-523.708 865.911 -523.54 863.82 -523.708 861.771C-524.502 852.739 -519.15 840.112 -532.614 837.435C-543.611 835.219 -560.086 831.414 -565.396 839.652C-569.703 846.258 -567.445 862.691 -557.493 871.89C-555.988 873.27 -554.817 875.068 -553.73 876.824C-547.667 886.734 -542.106 901.452 -528.767 897.271C-514.634 892.88 -524.418 878.204 -523.666 868.043L-523.708 868.001ZM-767.147 1412.75C-770.994 1404.43 -775.886 1399.45 -786.214 1404.51C-803.609 1413 -821.254 1420.9 -838.774 1429.1C-843.875 1431.48 -849.938 1434.08 -847.471 1441.02C-844.712 1448.84 -837.311 1447.83 -831.498 1445.83C-813.268 1439.51 -795.246 1432.49 -777.182 1425.71C-771.412 1423.54 -768.945 1418.69 -767.147 1412.79V1412.75ZM875.84 1166.63C880.23 1177.76 885.499 1188.17 894.531 1196.2C899.715 1200.8 909.082 1198.2 906.782 1194.44C898.419 1180.81 900.844 1164.34 893.36 1146.9C890.935 1161.28 885.108 1167.86 875.881 1166.63H875.84ZM439.931 1205.02C429.52 1198.16 424 1195.32 419.443 1191.35C404.975 1178.68 401.003 1193.81 394.522 1200.92C393.309 1202.26 395.065 1207.61 396.863 1210.04C399.038 1212.92 402.132 1210.29 403.595 1208.32C412.167 1196.91 423.457 1203.26 439.89 1204.98L439.931 1205.02ZM16.3167 898.065C23.3832 912.324 34.5056 914.038 43.2446 918.93C45.2517 920.059 49.1404 920.059 50.9802 918.847C54.9944 916.213 51.5656 912.993 50.562 909.899C44.6663 891.71 29.8644 901.912 16.2749 898.065H16.3167ZM867.644 1158.15C868.731 1139.61 861.219 1132.25 845.106 1136.07C851.42 1143.93 856.02 1152.92 867.644 1158.15ZM862.794 1179.93C859.421 1192.89 862.515 1201.74 872.076 1206.48C872.829 1196.16 875.547 1185.66 862.794 1179.93ZM486.763 1044.62C462.72 1059.59 483.836 1062.64 491.864 1068.96C490.275 1061.35 488.686 1053.74 486.763 1044.62Z"
     fill="#FFFFFF"
     fill-opacity="0.75"
     id="path2"
     style="fill-opacity:1;fill:#f1efec" />
</svg>
