<?xml version="1.0" encoding="UTF-8"?>
<svg id="Capa_2" data-name="Capa 2" xmlns="http://www.w3.org/2000/svg" viewBox="0 0 99.5 17.04">
  <defs>
    <style>
      .cls-1 {
        fill: #fff7eb;
        stroke-width: 0px;
      }
    </style>
  </defs>
  <g id="Capa_1-2" data-name="Capa 1">
    <g>
      <path class="cls-1" d="M5.03,1.03L4.35,0C2.3,1.2,0,3.76,0,7.86s2.3,6.66,4.35,7.85l.68-1.02c-1.88-1.02-3.75-3.4-3.75-6.83S3.15,2.05,5.03,1.03Z"/>
      <path class="cls-1" d="M19.79,0l-.68,1.02c1.88,1.02,3.75,3.41,3.75,6.83s-1.88,5.8-3.75,6.83l.68,1.02c2.05-1.19,4.35-3.75,4.35-7.85s-2.3-6.65-4.35-7.85Z"/>
      <path class="cls-1" d="M7.58,4.78l-.09.09-.09-.09-.18-.91h-1.64v8.57h1.82v-5c.04-1.06.93-1.93,2.01-1.93h1.09v-1.64c-.36-.18-.55-.18-.91-.18-.73,0-1.46.36-2.01,1.09Z"/>
      <path class="cls-1" d="M15.06,3.69c-2.37,0-4.19,1.82-4.19,4.47s1.91,4.47,4.19,4.47c1.73,0,3.01-.91,3.74-2.19l-1.53-.73c-.27.73-1.02,1.28-2.12,1.28-1.55,0-2.46-1.09-2.46-2.37h6.2l.18-.55c0-2.65-1.82-4.38-4.01-4.38ZM12.78,7.01c.27-.95,1-1.68,2.28-1.68,1.09,0,2.01.73,2.1,1.68h-4.38Z"/>
      <path class="cls-1" d="M31.13,7.62l-.91-.18c-.66-.13-1.09-.44-1.09-.98s.55-.95,1.28-.95,1.28.4,1.28.95h1.82c-.18-1.55-1.55-2.55-3.1-2.55-1.46,0-3.01.91-3.01,2.55,0,1.37,1,2.24,2.46,2.61.29.07.6.15.91.2.73.13,1.09.4,1.09.93s-.46,1.04-1.37,1.04-1.64-.67-1.73-1.59l-1.64.64c.36,1.55,1.64,2.55,3.37,2.55s3.1-1.19,3.1-2.64c0-1.47-1.04-2.27-2.46-2.58Z"/>
      <path class="cls-1" d="M40.7,9.28c-.05,1.06-.95,1.91-2.01,1.91-1.22,0-1.79-.66-1.82-1.82v-5.29h-1.82v5.29c0,2.01,1.28,3.46,3.46,3.46.73,0,1.64-.36,2.01-.91l.09-.09.09.09.18.73h1.64V4.08h-1.82v5.2h0Z"/>
      <path class="cls-1" d="M49.64,4.08c-.36-.18-.55-.18-.91-.18-.73,0-1.46.36-2.01,1.09l-.09.09-.09-.09-.18-.91h-1.64v8.57h1.82v-5c.04-1.06.93-1.93,2.01-1.93h1.09v-1.64h0Z"/>
      <path class="cls-1" d="M63.67,3.9c-2.37,0-4.19,1.82-4.19,4.47s1.91,4.47,4.19,4.47c1.73,0,3.01-.91,3.74-2.19l-1.53-.73c-.27.73-1.02,1.28-2.12,1.28-1.55,0-2.46-1.09-2.46-2.37h6.2l.18-.55c0-2.65-1.82-4.38-4.01-4.38ZM61.39,7.21c.27-.95,1-1.68,2.28-1.68,1.09,0,2.01.73,2.1,1.68h-4.38Z"/>
      <path class="cls-1" d="M73.24,3.9c-.73,0-1.64.36-2.01.91l-.09.09-.09-.09-.18-.73h-1.64v8.57h1.82v-5.18c.04-1.06.93-1.93,2.01-1.93,1.2,0,1.77.66,1.82,1.82v5.29h1.82v-5.29c0-2.01-1.27-3.46-3.46-3.46Z"/>
      <path class="cls-1" d="M80.95,10.1v-4.38h1.84v-1.64h-1.84V1.69h-.35l-1.44,1.05v1.34h-1.45v1.64h1.45v4.38c0,1.64.98,2.55,2.81,2.55l1-.18v-1.64l-1.09.18c-.55,0-.93-.37-.93-.91Z"/>
      <path class="cls-1" d="M88.19,3.9c-2.37,0-4.19,1.82-4.19,4.47s1.91,4.47,4.19,4.47c1.73,0,3.01-.91,3.74-2.19l-1.53-.73c-.27.73-1.02,1.28-2.12,1.28-1.55,0-2.46-1.09-2.46-2.37h6.2l.18-.55c.01-2.65-1.82-4.38-4.01-4.38ZM85.91,7.21c.27-.95,1-1.68,2.28-1.68,1.09,0,2.01.73,2.1,1.68h-4.38Z"/>
      <path class="cls-1" d="M97.04,7.62l-.91-.18c-.66-.13-1.09-.44-1.09-.98s.55-.95,1.28-.95,1.28.4,1.28.95h1.82c-.18-1.55-1.55-2.55-3.1-2.55-1.46,0-3.01.91-3.01,2.55,0,1.37,1,2.24,2.46,2.61.29.07.6.15.91.2.73.13,1.09.4,1.09.93s-.46,1.04-1.37,1.04-1.64-.67-1.73-1.59l-1.64.64c.36,1.55,1.64,2.55,3.37,2.55s3.1-1.19,3.1-2.64c0-1.47-1.04-2.27-2.46-2.58Z"/>
      <path class="cls-1" d="M55.48,12.84h-3.66c-.41,0-.57-.31-.61-.41s-.15-.43.14-.72l.77-.77c.61.39,1.33.62,2.11.62,2.12,0,3.85-1.7,3.85-3.8,0-.89-.31-1.7-.83-2.35l1.26-1.24-1.18-1.18-1.38,1.38c-.51-.25-1.09-.39-1.71-.39-2.12,0-3.85,1.7-3.85,3.8,0,.73.21,1.4.56,1.98l-.78.78c-.68.68-.87,1.66-.51,2.55.37.89,1.2,1.44,2.16,1.44h3.66c.77,0,1.4.63,1.4,1.4v1.11h1.68v-1.11c0-1.71-1.38-3.09-3.08-3.09ZM54.24,5.61c1.17,0,2.11.97,2.11,2.16s-.94,2.16-2.11,2.16-2.11-.97-2.11-2.16c0-1.19.94-2.16,2.11-2.16Z"/>
    </g>
  </g>
</svg>