<?xml version="1.0" encoding="UTF-8" standalone="no"?>
<svg
   id="Capa_2"
   data-name="Capa 2"
   viewBox="0 0 99.5 17.04"
   version="1.1"
   sodipodi:docname="logoSimpleDark.svg"
   width="99.5"
   height="17.040001"
   inkscape:version="1.3.2 (1:1.3.2+202311252150+091e20ef0f)"
   xmlns:inkscape="http://www.inkscape.org/namespaces/inkscape"
   xmlns:sodipodi="http://sodipodi.sourceforge.net/DTD/sodipodi-0.dtd"
   xmlns="http://www.w3.org/2000/svg"
   xmlns:svg="http://www.w3.org/2000/svg">
  <sodipodi:namedview
     id="namedview13"
     pagecolor="#505050"
     bordercolor="#eeeeee"
     borderopacity="1"
     inkscape:showpageshadow="0"
     inkscape:pageopacity="0"
     inkscape:pagecheckerboard="0"
     inkscape:deskcolor="#505050"
     inkscape:zoom="11.155779"
     inkscape:cx="49.75"
     inkscape:cy="8.5157658"
     inkscape:window-width="1920"
     inkscape:window-height="1016"
     inkscape:window-x="0"
     inkscape:window-y="27"
     inkscape:window-maximized="1"
     inkscape:current-layer="Capa_2" />
  <defs
     id="defs1">
    <style
       id="style1">
      .cls-1 {
        fill: #000000;
        stroke-width: 0px;
      }
    </style>
  </defs>
  <g
     id="Capa_1-2"
     data-name="Capa 1">
    <g
       id="g13">
      <path
         class="cls-1"
         d="M 5.03,1.03 4.35,0 C 2.3,1.2 0,3.76 0,7.86 c 0,4.1 2.3,6.66 4.35,7.85 L 5.03,14.69 C 3.15,13.67 1.28,11.29 1.28,7.86 1.28,4.43 3.15,2.05 5.03,1.03 Z"
         id="path1" />
      <path
         class="cls-1"
         d="m 19.79,0 -0.68,1.02 c 1.88,1.02 3.75,3.41 3.75,6.83 0,3.42 -1.88,5.8 -3.75,6.83 l 0.68,1.02 c 2.05,-1.19 4.35,-3.75 4.35,-7.85 0,-4.1 -2.3,-6.65 -4.35,-7.85 z"
         id="path2" />
      <path
         class="cls-1"
         d="M 7.58,4.78 7.49,4.87 7.4,4.78 7.22,3.87 H 5.58 v 8.57 H 7.4 v -5 C 7.44,6.38 8.33,5.51 9.41,5.51 H 10.5 V 3.87 C 10.14,3.69 9.95,3.69 9.59,3.69 8.86,3.69 8.13,4.05 7.58,4.78 Z"
         id="path3" />
      <path
         class="cls-1"
         d="m 15.06,3.69 c -2.37,0 -4.19,1.82 -4.19,4.47 0,2.65 1.91,4.47 4.19,4.47 1.73,0 3.01,-0.91 3.74,-2.19 L 17.27,9.71 c -0.27,0.73 -1.02,1.28 -2.12,1.28 -1.55,0 -2.46,-1.09 -2.46,-2.37 h 6.2 l 0.18,-0.55 c 0,-2.65 -1.82,-4.38 -4.01,-4.38 z m -2.28,3.32 c 0.27,-0.95 1,-1.68 2.28,-1.68 1.09,0 2.01,0.73 2.1,1.68 z"
         id="path4" />
      <path
         class="cls-1"
         d="M 31.13,7.62 30.22,7.44 C 29.56,7.31 29.13,7 29.13,6.46 c 0,-0.54 0.55,-0.95 1.28,-0.95 0.73,0 1.28,0.4 1.28,0.95 h 1.82 c -0.18,-1.55 -1.55,-2.55 -3.1,-2.55 -1.46,0 -3.01,0.91 -3.01,2.55 0,1.37 1,2.24 2.46,2.61 0.29,0.07 0.6,0.15 0.91,0.2 0.73,0.13 1.09,0.4 1.09,0.93 0,0.53 -0.46,1.04 -1.37,1.04 -0.91,0 -1.64,-0.67 -1.73,-1.59 l -1.64,0.64 c 0.36,1.55 1.64,2.55 3.37,2.55 1.73,0 3.1,-1.19 3.1,-2.64 0,-1.47 -1.04,-2.27 -2.46,-2.58 z"
         id="path5" />
      <path
         class="cls-1"
         d="m 40.7,9.28 c -0.05,1.06 -0.95,1.91 -2.01,1.91 -1.22,0 -1.79,-0.66 -1.82,-1.82 V 4.08 h -1.82 v 5.29 c 0,2.01 1.28,3.46 3.46,3.46 0.73,0 1.64,-0.36 2.01,-0.91 l 0.09,-0.09 0.09,0.09 0.18,0.73 h 1.64 V 4.08 H 40.7 Z"
         id="path6" />
      <path
         class="cls-1"
         d="M 49.64,4.08 C 49.28,3.9 49.09,3.9 48.73,3.9 48,3.9 47.27,4.26 46.72,4.99 L 46.63,5.08 46.54,4.99 46.36,4.08 h -1.64 v 8.57 h 1.82 v -5 c 0.04,-1.06 0.93,-1.93 2.01,-1.93 h 1.09 z"
         id="path7" />
      <path
         class="cls-1"
         d="m 63.67,3.9 c -2.37,0 -4.19,1.82 -4.19,4.47 0,2.65 1.91,4.47 4.19,4.47 1.73,0 3.01,-0.91 3.74,-2.19 L 65.88,9.92 c -0.27,0.73 -1.02,1.28 -2.12,1.28 -1.55,0 -2.46,-1.09 -2.46,-2.37 h 6.2 L 67.68,8.28 C 67.68,5.63 65.86,3.9 63.67,3.9 Z m -2.28,3.31 c 0.27,-0.95 1,-1.68 2.28,-1.68 1.09,0 2.01,0.73 2.1,1.68 z"
         id="path8" />
      <path
         class="cls-1"
         d="m 73.24,3.9 c -0.73,0 -1.64,0.36 -2.01,0.91 L 71.14,4.9 71.05,4.81 70.87,4.08 h -1.64 v 8.57 h 1.82 V 7.47 c 0.04,-1.06 0.93,-1.93 2.01,-1.93 1.2,0 1.77,0.66 1.82,1.82 v 5.29 H 76.7 V 7.36 C 76.7,5.35 75.43,3.9 73.24,3.9 Z"
         id="path9" />
      <path
         class="cls-1"
         d="M 80.95,10.1 V 5.72 h 1.84 V 4.08 H 80.95 V 1.69 H 80.6 l -1.44,1.05 v 1.34 h -1.45 v 1.64 h 1.45 v 4.38 c 0,1.64 0.98,2.55 2.81,2.55 l 1,-0.18 v -1.64 l -1.09,0.18 c -0.55,0 -0.93,-0.37 -0.93,-0.91 z"
         id="path10" />
      <path
         class="cls-1"
         d="M 88.19,3.9 C 85.82,3.9 84,5.72 84,8.37 c 0,2.65 1.91,4.47 4.19,4.47 1.73,0 3.01,-0.91 3.74,-2.19 L 90.4,9.92 c -0.27,0.73 -1.02,1.28 -2.12,1.28 -1.55,0 -2.46,-1.09 -2.46,-2.37 h 6.2 L 92.2,8.28 C 92.21,5.63 90.38,3.9 88.19,3.9 Z m -2.28,3.31 c 0.27,-0.95 1,-1.68 2.28,-1.68 1.09,0 2.01,0.73 2.1,1.68 z"
         id="path11" />
      <path
         class="cls-1"
         d="M 97.04,7.62 96.13,7.44 C 95.47,7.31 95.04,7 95.04,6.46 c 0,-0.54 0.55,-0.95 1.28,-0.95 0.73,0 1.28,0.4 1.28,0.95 h 1.82 c -0.18,-1.55 -1.55,-2.55 -3.1,-2.55 -1.46,0 -3.01,0.91 -3.01,2.55 0,1.37 1,2.24 2.46,2.61 0.29,0.07 0.6,0.15 0.91,0.2 0.73,0.13 1.09,0.4 1.09,0.93 0,0.53 -0.46,1.04 -1.37,1.04 -0.91,0 -1.64,-0.67 -1.73,-1.59 l -1.64,0.64 c 0.36,1.55 1.64,2.55 3.37,2.55 1.73,0 3.1,-1.19 3.1,-2.64 0,-1.47 -1.04,-2.27 -2.46,-2.58 z"
         id="path12" />
      <path
         class="cls-1"
         d="m 55.48,12.84 h -3.66 c -0.41,0 -0.57,-0.31 -0.61,-0.41 -0.04,-0.1 -0.15,-0.43 0.14,-0.72 l 0.77,-0.77 c 0.61,0.39 1.33,0.62 2.11,0.62 2.12,0 3.85,-1.7 3.85,-3.8 0,-0.89 -0.31,-1.7 -0.83,-2.35 L 58.51,4.17 57.33,2.99 55.95,4.37 C 55.44,4.12 54.86,3.98 54.24,3.98 c -2.12,0 -3.85,1.7 -3.85,3.8 0,0.73 0.21,1.4 0.56,1.98 l -0.78,0.78 c -0.68,0.68 -0.87,1.66 -0.51,2.55 0.37,0.89 1.2,1.44 2.16,1.44 h 3.66 c 0.77,0 1.4,0.63 1.4,1.4 v 1.11 h 1.68 v -1.11 c 0,-1.71 -1.38,-3.09 -3.08,-3.09 z M 54.24,5.61 c 1.17,0 2.11,0.97 2.11,2.16 0,1.19 -0.94,2.16 -2.11,2.16 -1.17,0 -2.11,-0.97 -2.11,-2.16 0,-1.19 0.94,-2.16 2.11,-2.16 z"
         id="path13" />
    </g>
  </g>
</svg>
