<?xml version="1.0" encoding="UTF-8"?>
<svg id="Capa_1" data-name="Capa 1" xmlns="http://www.w3.org/2000/svg" xmlns:xlink="http://www.w3.org/1999/xlink" viewBox="0 0 820 519.07">
  <defs>
    <style>
      .cls-1 {
        fill: #fff7eb;
      }

      .cls-1, .cls-2, .cls-3, .cls-4, .cls-5 {
        stroke-width: 0px;
      }

      .cls-2 {
        fill: #d71d81;
      }

      .cls-6 {
        clip-path: url(#clippath-2);
      }

      .cls-3 {
        fill: none;
      }

      .cls-7 {
        clip-path: url(#clippath-1);
      }

      .cls-8 {
        clip-path: url(#clippath-4);
      }

      .cls-4 {
        fill: #db5221;
      }

      .cls-9 {
        clip-path: url(#clippath);
      }

      .cls-5 {
        fill: #0d9343;
      }

      .cls-10 {
        clip-path: url(#clippath-3);
      }

      .cls-11 {
        clip-path: url(#clippath-5);
      }
    </style>
    <clipPath id="clippath">
      <rect class="cls-3" y="-539" width="820" height="519.07"/>
    </clipPath>
    <clipPath id="clippath-1">
      <rect class="cls-3" width="820" height="519.07"/>
    </clipPath>
    <clipPath id="clippath-2">
      <rect class="cls-3" width="820" height="519.07"/>
    </clipPath>
    <clipPath id="clippath-3">
      <rect class="cls-3" width="820" height="519.07"/>
    </clipPath>
    <clipPath id="clippath-4">
      <rect class="cls-3" y="547" width="820" height="519.07"/>
    </clipPath>
    <clipPath id="clippath-5">
      <rect class="cls-3" y="547" width="820" height="519.07"/>
    </clipPath>
  </defs>
  <rect class="cls-5" width="820" height="519.07"/>
  <g id="Ilustración">
    <g class="cls-9">
      <path class="cls-4" d="M622.56-64.27c-3.09-1.78-6.18-3.54-9.26-5.33-2.85-1.66-5.71-3.3-8.51-5.04-2.02-1.25-3.91-2.71-5.94-3.96-4.91-3.01-11.18-13.64-7.22-21.43,1.77-3.47,3.86-6.78,5.75-10.19.62-1.13,1.25-2.31,1.52-3.55,1.65-7.45,5.83-13.38,11.33-18.38,3.19-2.9,7.35-2.23,10.77-.87,5.7,2.28,11.06,5.39,16.78,8.26.23-4.52.28-9.4.79-14.23.56-5.32.33-10.88,4.05-15.45,3.82-4.7,6.97-5.34,12.4-2.87,6.06,2.75,12.36,4.98,18.46,7.66,1.36.6,2.51,1.99,3.41,3.26,2.55,3.59,5.03,7.22,2.58,12.02-.84,1.66-1.14,3.64-1.45,5.52-.17,1.04-.21,2.38.3,3.19,2.22,3.47,3.59,7.06,2.51,11.42,6.02-5.27,13.02-6.06,20.38-6.32,3.51-.12,7.11-1.3,10.44-2.58,5.45-2.1,10.92-3.38,16.75-2.5,1.17.18,2.67.36,3.36,1.13,2.34,2.6,4.83,1.51,7.38.76,1.71-.5,3.41-1.03,5.36-1.63-.63-1.54-1.13-2.82-1.68-4.08-1.92-4.35-1.86-8.72-.6-13.25.61-2.17.09-4.69.86-6.76,2.02-5.41,4.44-10.67,6.79-15.95.28-.62,1.09-1.28,1.75-1.42,4.15-.84,8.13-1.01,12.4.49,5.44,1.9,11.25,2.81,16.95,3.88,3.14.59,6.37.77,9.57.9,4.81.2,8.07,3.47,8.68,8.18.83,6.32,2.07,12.59,3.18,18.87.11.63.5,1.2,1.37,1.67-.36-4.23-1.08-8.47-.99-12.68.13-6.08.74-12.18,3.64-17.72.53-1.01,1.55-1.81,2.45-2.58.68-.58,1.72-.8,2.26-1.46,4.78-5.85,11.51-5.3,17.99-5.64,2.6-.14,5.23-.15,7.79-.54,4.37-.68,7.59.72,10.52,4.09,2.38,2.74,5.77,4.6,8.27,7.26,3.04,3.23,8.29,4.61,8.31,10.56.01,2.51,1.82,4.99,2.69,7.52.22.65.27,1.88-.09,2.12-3.22,2.16-3.26,5.78-4.34,8.93-1.57,4.59-4.75,7.73-8.57,10.74-5.41,4.27-11.58,6.48-18.03,8.36.04.29.09.58.13.87,1.79-.15,3.62-.15,5.38-.48,10.01-1.88,19.56.49,29.02,3.24,5.89,1.71,9.67,6.65,13.98,10.54,2.7,2.44,3.54,10.23.69,13.65-1.18,1.42-1.76,3.35-2.53,5.08-1.99,4.48-3.88,9-5.95,13.44-.39.85-1.32,1.48-2.1,2.1-2.67,2.12-5.22,4.46-8.15,6.15-1.54.88-4.03,1.27-5.64.67-5.29-1.97-10.46-4.33-15.51-6.87-3.36-1.69-6.4-4-9.65-5.91-1.12-.66-2.46-.95-3.92-.87,3.61,2.73,7.41,5.24,10.77,8.26,3.6,3.23,7.75,6.3,8.29,11.69.36,3.63.91,7.38.36,10.92-.43,2.79-2.02,5.64-3.79,7.92-1.83,2.35-4.48,3.91-7.88,3.69-1.54-.1-3.12.66-4.7.94-3.81.69-7.62,1.39-11.44,1.97-1.87.28-3.78.37-5.67.41-2.74.07-5.36.04-7.02-2.93-.54-.96-2.18-1.49-3.42-1.85-3.6-1.07-7.72-1.16-9.88-4.91-1.06-1.84-1.86-3.91-2.33-5.98-1.67-7.45,1.54-14.33,2.76-21.45.07-.44.19-.86.05-1.38-3.18,10.39-9.8,18.89-14.53,27.91-3.83-.38-7.14-.39-10.29-1.13-2.75-.64-5.81-1.53-7.86-3.32-6.52-5.71-14.97-7.61-22.06-12-3.93-2.43-6.9-6.48-10.09-10-.65-.72-.55-2.35-.41-3.52,1.22-9.73,2.58-19.4,11.17-26.04,1.37-1.06,2.41-2.76,3.12-4.37.91-2.06,2.29-2.55,4.3-2.36,5.1.47,10.2.98,15.31,1.28,1.94.12,3.91-.29,5.86-.45.02-.3.04-.59.06-.89-2.01-.41-4.05-.74-6.04-1.24-5.43-1.37-10.9-2.61-16.21-4.35-1.33-.44-2.62-2.42-3.02-3.94-.65-2.48-.56-5.15-.81-8.12-1.28,0-2.43-.09-3.56.02-2,.19-4.06.96-5.97.66-4.28-.67-6.62,1.35-8.65,4.72-3.56,5.9-7.37,11.64-11.07,17.45-1.17,1.83-1.07,3.26.6,5.02,1.26,1.33,2.04,3.45,2.3,5.31.84,6.15,1.48,12.34,1.9,18.53.12,1.81-.48,3.8-1.21,5.5-1.27,2.94-2.82,5.77-4.42,8.55-1.26,2.19-2.38,4.18-2.06,6.99.12,1.03-2.06,3.16-3.42,3.37-3.89.62-7.9.51-12.44.72-.75,4.19-2.14,9.08-1.14,14.22.31,1.57.79,3.12,1.25,4.66,1.86,6.24-1.69,11.14-4.12,16.28-.36.76-1.7.98-2.42,1.65-2.85,2.65-5.7,5.32-8.42,8.1-3,3.06-5.62,6.54-10.72,6.05-2.57-.25-4.58.74-5.3,3.74-.53,2.21-3.06,2.95-5.49,1.31-3.57-2.4-7.37-4.84-9.98-8.13-1.9-2.39-2.03-6.18-2.98-9.34-.44-1.47-.97-2.91-1.46-4.36-1.59.93-3.53,1.55-4.71,2.85-3.89,4.3-5.49,4.38-10.31,1.11-2.64-1.8-5.73-3.29-8.83-3.99-5.8-1.31-8.95-5.8-12.85-9.46-5.21-4.88-5.92-10.12-2.29-16.41,2.77-4.81,3.05-10.32,2.96-15.89-.06-3.69.7-7.47,1.62-11.08.63-2.48,2.91-3.37,5.51-3.24,1.25.06,2.51-.18,3.76-.29.2-.47.33-.92.46-1.37ZM660.69-96.59c1.98,2.64,3.68,4.85,5.29,7.12.36.5.72,1.33.53,1.79-.2.49-1.1,1.08-1.59,1-1.36-.22-2.74-.61-3.99-1.2-3.67-1.72-7.27-3.57-10.9-5.36-.14.23-.28.46-.42.69,1.36.85,2.67,1.8,4.09,2.51,2.16,1.06,4.55,1.72,6.55,2.99,1.27.81,2.04,2.42,3.47,4.23-7.13-.29-7.27-.28-7.46.51.98.03,1.93.06,2.88.09.15.27.29.54.44.8-1.09.77-2.18,1.55-3.97,2.82,2.13.22,3.7.13,5.08.6,1.16.39,2.44,1.25,2.99,2.27.32.59-.51,2.1-1.2,2.84-.85.92-2.1,1.47-3.14,2.16.49,1.16.92,2.2,1.36,3.24.61-.36,1.22-.71,1.83-1.07.23.16.46.32.69.48-1.28,5.11-4.39,9.4-7.44,14.38,2.73-1,2.85.53,2.98,2.3,1.35-2.33,2.41-4.56,3.34-6.84,1.06-2.6,1.87-5.3,3.07-7.83.37-.78,1.66-1.6,2.49-1.55.82.05,1.73,1.04,2.32,1.83.65.86.97,1.97,1.44,2.97,1.41-2.07,2.46-4.02,2.58-6.03.23-3.81,3.68-1.29,4.35-2.11-.49-5.73-.91-10.77-1.33-15.68-6.59-.95-9.74-7.48-16.33-9.95ZM805.75-87.79c3.11-1.12,5.92-2.47,8.88-3.11,3.9-.83,4.71-1.47,3.01-5.02-1.06-2.22-2.93-5.05-4.94-5.54-1.88-.46-3.92-.42-5.71-1.57-.37-.23-1.16-.36-1.41-.14-2.87,2.48-5.69.32-8.51-.01-2.49-.29-4.98-.61-7.47-.92-.09.37-.17.74-.26,1.11,4.77,1.88,9.53,3.75,14.3,5.63.03.39.06.78.09,1.17-1.25.47-2.46,1.17-3.75,1.34-1.36.18-2.79-.16-4.2-.25-1.37-.09-2.74-.15-4.11-.22-.02.33-.03.65-.05.98,4,.74,8,1.48,12,2.22-.03.33-.06.65-.09.98-5.6-.33-9.21,3.46-13.52,5.85,4.24-.77,8.41-1.65,12.35-3.14,1.81-.69,2.87-1.08,3.39.64Z"/>
    </g>
    <g>
      <g class="cls-7">
        <path class="cls-1" d="M72.19,27.36c10.47.37,20.47.69,30.46,1.07,15.33.57,30.66,1.58,45.98,1.47,3.73-.03,7.68-3.36,11.11-5.78,7.94-5.61,15.6-11.6,23.42-17.38.59-.44,1.53-.56,2.32-.56,9.32-.09,18.64-.28,27.96-.09,3.03.06,6.03,1.21,9.05,1.79,3.99.76,7.97,1.79,11.99,2.07,3.82.27,6.45,1.96,9.36,4.32,5.68,4.6,11.82,8.66,18.04,12.52,3.72,2.31,4.21,3.14,2.17,6.9-.54.99-.05,2.64.21,3.94.54,2.66,3.32,5.25-.03,7.98-.25.2.23,1.87.8,2.4,6.08,5.65,12.29,11.16,18.36,16.81,2.24,2.09,4.06,4.38,2.05,7.82-.52.89-.05,2.44.17,3.65.29,1.59,1.17,3.18,1.07,4.72-.11,1.65-.77,4.37-1.7,4.6-1.6.4-4.27-.18-5.29-1.37-2.78-3.26-5.07-6.98-7.26-10.69-.63-1.07-.17-2.75-.34-4.13-.14-1.15-.08-2.74-.79-3.33-7.7-6.4-15.49-12.69-23.33-18.92-5.15-4.09-9.97-8.96-15.77-11.73-4.35-2.08-10.03-1.39-15.13-1.87-.29-.03-.62.49-.94.76.42.3.8.68,1.26.88,4.39,1.88,8.87,3.57,13.14,5.7,1.1.55,1.5,2.47,2.29,3.71.61.96,1.19,2.04,2.04,2.75,5.55,4.61,10.94,9.19,15.15,15.31,2.75,4,7.62,6.5,11.37,9.85,5.77,5.16,11.38,10.51,17.11,15.73,2.33,2.12,4.99,3.92,7.09,6.23,1.02,1.12,1.12,3.09,1.64,4.68-1.74.4-4.02,1.7-5.12,1.04-3.69-2.2-7.11-4.92-10.34-7.77-6.55-5.77-12.88-11.78-19.36-17.64-.6-.54-1.58-.66-2.38-.97-.21.76-.64,1.54-.58,2.27.33,4.29.23,8.72,1.39,12.79.66,2.32,3.32,4.15,5.27,6.01,3.83,3.67,5.47,7.99,6.2,13.35,2.61,19.27.07,38.22-2.59,57.2-.51,3.6-2.32,5.71-6.2,5.5-.09,0-.18,0-.27.03-10.26,1.62-9.9,1.63-9.76-8.79.11-8.09-.83-16.19-1.38-24.28-.04-.58-.62-1.11-.96-1.67-.27.53-.59,1.05-.81,1.6-2.12,5.33-4.9,10.53-6.07,16.06-.62,2.95-1.34,4.25-3.98,4.29-3.61.06-5.26-2.38-5.95-5.55-1.97-9.08-3.93-18.17-5.77-27.28-1.05-5.19-1.87-10.43-2.72-15.66-.09-.53.29-1.18.54-1.73.96-2.04,2.09-4,2.91-6.09,1.66-4.25,1.34-4.72-2.9-3.81-3.6.77-6.29-.44-8.67-2.95-6.82-7.18-13.56-14.44-20.5-21.51-3.77-3.85-7.68-7.59-11.86-10.98-3.11-2.52-4.56-1.63-5.12,2.23-1.06,7.23-1.96,14.49-3.51,21.62-.61,2.79-3.13,5.1-4.19,7.86-2.79,7.23-9.41,10.35-15.33,13.62-9.98,5.51-20.64,9.79-30.93,14.78-4.62,2.24-8.82,5.43-13.56,7.28-3.75,1.46-8.1,2.39-12.07,2.06-10.74-.9-21.41-2.6-32.11-3.95-.5-.06-1.04.14-1.56.22.21.54.28,1.2.64,1.61,3.49,3.99,7.16,7.83,10.45,11.98.98,1.23.76,3.35,1.34,4.97.35.99,1.19,2.61,1.79,2.6,15.59-.2,26.35,9.17,37.02,18.6,3.54,3.13,7.26,6.31,9.88,10.17,7.32,10.78,14.18,21.86,21.01,32.95,1.21,1.97,1.56,4.51,2.12,6.84.77,3.24,1.58,6.5,1.93,9.8.15,1.43-.8,2.99-1.25,4.48-1.51-.63-3.29-.94-4.48-1.95-6.63-5.64-13.08-11.5-19.67-17.2-6.61-5.71-13.89-10.79-19.78-17.16-4.15-4.5-8.65-8.07-13.83-10.99-1.46-.82-3.32-.94-5-1.38,1.16,1.13,2.36,2.23,3.49,3.4,5.85,6.1,11.84,12.08,17.49,18.36,7.98,8.87,15.68,17.99,23.54,26.96,1.24,1.42,2.89,2.5,4.05,3.97,1.76,2.21,3.51,4.5,4.81,7,1.04,2-2.9,4.93-5.78,4.56-8.84-1.13-17.69-2.14-26.53-3.31-4.3-.57-7.3-3.05-10.04-6.45-3.08-3.83-7.25-6.79-10.43-10.56-8.91-10.53-17.6-21.25-26.26-31.98-2.6-3.22-4.8-6.77-7.2-10.16-2.68-3.8-3.73-7.95-2.82-12.58.08-.41-.66-1.43-.96-1.4-5.47.47-9.55-1.05-13.68-5.35-4.28-4.45-7-9.41-9.53-14.73-.11-.24-.4-.4-.61-.59-.01.36-.08.73,0,1.07.87,3.91,1.52,7.89,2.71,11.7,2.36,7.57,4.53,15.27,7.71,22.5,2.4,5.46,5.91,10.53,9.52,15.32,8.03,10.65,16.48,20.99,24.66,31.53,2.26,2.9,4.34,5.97,6.21,9.13.49.83,0,3.31-.23,3.34-1.93.22-4.63.85-5.73-.15-3.5-3.2-6.75-6.82-9.5-10.7-10.33-14.59-20.41-29.34-30.61-44.02-.32-.46-.84-.79-1.27-1.17.09.68.02,1.45.3,2.04,3.87,7.94,7.18,16.23,11.88,23.65,4.31,6.8,5.53,14.4,8.08,21.66.97,2.77,2.39,5.4,3.71,8.04,1.21,2.43,3.98,4.38,1.89,7.74-.32.52.65,1.96,1.18,2.88,1.17,2.04,2.81,3.9,3.53,6.07.47,1.42.16,4.27-.7,4.71-1.89.96-4.62,1.76-6.06-1.2-1.15-2.36-2.75-3.76-5.14-5.24-2.76-1.7-4.8-5.52-5.85-8.84-2.03-6.41-6.46-11.32-9.37-17.08-6.95-13.74-14.03-27.5-18.02-42.53-.76-2.86-2.55-5.51-2.98-8.38-.69-4.66-.53-9.45-.92-14.16-.47-5.72-1.11-11.42-1.74-17.12-.05-.41-.54-.78-.83-1.16-.16.48-.42.94-.46,1.43-.55,6-1.06,12-1.59,18.01-.03.35-.08.85-.3,1.01-4.39,2.96-3,7.62-2.07,11.02,5.96,21.84,13.27,43.25,23.03,63.73.5,1.05,1.52,1.98,1.68,3.06.27,1.83.05,3.73.04,5.59-1.98-.7-4.84-.82-5.77-2.22-3.47-5.24-6.31-10.9-9.37-16.41-3.8-6.85-7.56-13.73-11.37-20.58-2.73-4.9-5.7-9.67-8.19-14.69-.95-1.91-1.2-4.37-1.13-6.55.36-12.16,1.17-24.31,1.33-36.48.16-12.84,1.03-25.31,5.39-37.74,2.19-6.26,6.59-9.46,10.44-13.65,2.57-2.8,5.77-5.02,8.68-7.53.23-.2.32-.56.48-.85-.4-.04-.84-.21-1.19-.1-13.27,4.06-26.54,8.13-39.79,12.23-3.08.95-5.95,7.28-6.43,10.46-.96,6.38-2.59,12.71-4.49,18.89-2.12,6.88-4.32,13.83-7.48,20.27-3.24,6.59-.14,12.61.1,18.89.22,5.9.46,11.79.56,17.69,0,.59-1,1.76-1.35,1.69-.84-.17-1.9-.73-2.29-1.44-1.38-2.58-2.24-5.47-3.8-7.92-4-6.27-3.8-13.55-5.1-20.44-.47-2.51.45-5.37,1.04-8,1.95-8.61,3.84-17.25,6.14-25.78,2.57-9.55,5.46-19.01,8.47-28.43.47-1.48,2.29-2.54,3.51-3.77.43-.43,1.22-.68,1.4-1.17,2.94-8.03,10.88-8.75,17.22-11.5,8.46-3.67,17.25-6.56,25.9-9.79,1.69-.63,3.31-1.51,5.04-1.96,4.86-1.25,6.41-5.6,8.96-9.11,4.27-5.87,7.96-12.52,13.35-17.14,8.91-7.64,18.79-14.25,28.69-20.61,3.39-2.13,8.05-2.23,11.79-3.19ZM193.16,19.53c2.12.62,3.81,1.53,5.48,1.51,4.05-.05,8.09-.7,12.14-.78,2.23-.04,4.53.35,6.69.95,2.26.63,4.39,2.52,6.56,2.49,7.29-.09,14.25.49,20.28,5.15.31.24.8.24,1.21.36-.13-.37-.18-.81-.41-1.11-2-2.63-3.98-5.27-6.09-7.81-.56-.67-1.5-1.25-2.35-1.39-6.05-1-12.09-2.21-18.19-2.66-4.33-.32-8.74.51-13.11.68-1.86.07-3.74-.44-5.59-.35-1.59.08-3.18.54-4.71,1.03-.59.2-.98.96-1.91,1.93ZM257.56,42.55c.25-.15.49-.31.74-.46-.09-.49-.02-1.08-.29-1.44-1.28-1.71-2.56-3.44-4.04-4.98-.79-.83-1.97-1.29-2.98-1.92.24,1.08.15,2.45.79,3.19,1.77,2.02,3.84,3.76,5.78,5.61Z"/>
      </g>
      <g class="cls-6">
        <path class="cls-1" d="M212.64,364.55c9.9,6.37,19.77,12.97,28.69,20.61,5.39,4.62,9.07,11.27,13.35,17.14,2.55,3.5,4.1,7.85,8.96,9.11,1.73.45,3.35,1.32,5.04,1.96,8.64,3.24,17.44,6.13,25.9,9.79,6.34,2.75,14.29,3.47,17.22,11.5.18.49.97.74,1.4,1.17,1.22,1.22,3.04,2.29,3.51,3.77,3.01,9.42,5.9,18.88,8.47,28.43,2.3,8.53,4.19,17.16,6.14,25.78.59,2.63,1.52,5.48,1.04,8-1.3,6.89-1.1,14.17-5.1,20.44-1.56,2.45-2.42,5.34-3.8,7.92-.38.72-1.44,1.28-2.29,1.44-.34.07-1.36-1.1-1.35-1.69.1-5.9.34-11.8.56-17.69.24-6.27,3.34-12.29.1-18.89-3.16-6.43-5.36-13.39-7.48-20.27-1.91-6.18-3.53-12.51-4.49-18.89-.48-3.17-3.35-9.5-6.43-10.46-13.26-4.1-26.52-8.17-39.79-12.23-.35-.11-.79.06-1.19.1.16.29.25.65.48.85,2.9,2.5,6.1,4.73,8.68,7.53,3.85,4.19,8.24,7.39,10.44,13.65,4.36,12.42,5.23,24.9,5.39,37.74.15,12.16.97,24.32,1.33,36.48.06,2.19-.19,4.64-1.13,6.55-2.48,5.02-5.46,9.79-8.19,14.69-3.81,6.85-7.57,13.73-11.37,20.58-3.06,5.51-5.9,11.17-9.37,16.41-.93,1.4-3.79,1.51-5.77,2.22,0-1.87-.23-3.77.04-5.59.16-1.08,1.17-2,1.68-3.06,9.77-20.49,17.08-41.89,23.03-63.73.93-3.4,2.32-8.06-2.07-11.02-.23-.15-.27-.66-.3-1.01-.54-6-1.05-12-1.59-18.01-.04-.49-.3-.95-.46-1.43-.29.39-.79.75-.83,1.16-.62,5.7-1.27,11.4-1.74,17.12-.39,4.72-.23,9.5-.92,14.16-.42,2.88-2.22,5.52-2.98,8.38-3.99,15.04-11.08,28.79-18.02,42.53-2.91,5.75-7.34,10.66-9.37,17.08-1.05,3.31-3.09,7.13-5.85,8.84-2.39,1.48-3.99,2.88-5.14,5.24-1.44,2.96-4.17,2.16-6.06,1.2-.86-.44-1.16-3.29-.7-4.71.72-2.17,2.36-4.03,3.53-6.07.53-.93,1.51-2.36,1.18-2.88-2.08-3.36.68-5.31,1.89-7.74,1.32-2.64,2.74-5.27,3.71-8.04,2.55-7.26,3.77-14.86,8.08-21.66,4.7-7.42,8.01-15.71,11.88-23.65.29-.59.21-1.36.3-2.04-.43.39-.95.71-1.27,1.17-10.19,14.68-20.28,29.44-30.61,44.02-2.75,3.88-5.99,7.49-9.5,10.7-1.1,1-3.8.38-5.73.15-.24-.03-.72-2.5-.23-3.34,1.87-3.16,3.96-6.23,6.21-9.13,8.19-10.54,16.63-20.88,24.66-31.53,3.61-4.79,7.12-9.87,9.52-15.32,3.18-7.23,5.35-14.93,7.71-22.5,1.19-3.81,1.84-7.79,2.71-11.7.08-.34,0-.71,0-1.07-.21.19-.49.35-.61.59-2.54,5.32-5.26,10.28-9.53,14.73-4.13,4.3-8.21,5.82-13.68,5.35-.3-.03-1.04.99-.96,1.4.91,4.63-.14,8.78-2.82,12.58-2.39,3.39-4.6,6.93-7.2,10.16-8.66,10.74-17.36,21.45-26.26,31.98-3.18,3.77-7.35,6.72-10.43,10.56-2.74,3.4-5.73,5.88-10.04,6.45-8.83,1.17-17.69,2.18-26.53,3.31-2.89.37-6.82-2.56-5.78-4.56,1.3-2.5,3.05-4.79,4.81-7,1.17-1.47,2.81-2.55,4.05-3.97,7.86-8.97,15.57-18.09,23.54-26.96,5.65-6.28,11.64-12.26,17.49-18.36,1.12-1.17,2.32-2.27,3.49-3.4-1.68.44-3.54.56-5,1.38-5.18,2.91-9.68,6.49-13.83,10.99-5.88,6.37-13.16,11.45-19.78,17.16-6.59,5.7-13.04,11.55-19.67,17.2-1.19,1.01-2.97,1.32-4.48,1.95-.45-1.5-1.4-3.05-1.25-4.48.35-3.3,1.16-6.56,1.93-9.8.55-2.32.91-4.87,2.12-6.84,6.84-11.09,13.7-22.18,21.01-32.95,2.62-3.85,6.34-7.04,9.88-10.17,10.68-9.43,21.43-18.81,37.02-18.6.6.01,1.44-1.61,1.79-2.6.58-1.62.36-3.74,1.34-4.97,3.29-4.15,6.96-7.99,10.45-11.98.36-.41.43-1.07.64-1.61-.52-.08-1.06-.28-1.56-.22-10.7,1.35-21.37,3.06-32.11,3.95-3.96.33-8.32-.6-12.07-2.06-4.74-1.85-8.94-5.04-13.56-7.28-10.28-4.99-20.94-9.27-30.93-14.78-5.92-3.27-12.54-6.39-15.33-13.62-1.06-2.76-3.58-5.07-4.19-7.86-1.55-7.12-2.45-14.39-3.51-21.62-.57-3.86-2.01-4.74-5.12-2.23-4.18,3.38-8.09,7.13-11.86,10.98-6.93,7.07-13.68,14.33-20.5,21.51-2.38,2.5-5.07,3.72-8.67,2.95-4.24-.91-4.56-.44-2.9,3.81.82,2.09,1.95,4.06,2.91,6.09.26.55.63,1.19.54,1.73-.85,5.23-1.67,10.47-2.72,15.66-1.84,9.11-3.8,18.2-5.77,27.28-.69,3.17-2.34,5.6-5.95,5.55-2.64-.04-3.36-1.34-3.98-4.29-1.17-5.53-3.95-10.73-6.07-16.06-.22-.55-.54-1.07-.81-1.6-.33.56-.92,1.09-.96,1.67-.54,8.09-1.49,16.19-1.38,24.28.14,10.42.51,10.42-9.76,8.79-.09-.01-.18-.03-.27-.03-3.88.21-5.7-1.9-6.2-5.5-2.66-18.98-5.2-37.92-2.59-57.2.72-5.36,2.37-9.68,6.2-13.35,1.94-1.86,4.61-3.69,5.27-6.01,1.16-4.07,1.06-8.5,1.39-12.79.06-.74-.38-1.52-.58-2.27-.8.31-1.78.43-2.38.97-6.48,5.85-12.82,11.86-19.36,17.64-3.23,2.85-6.66,5.57-10.34,7.77-1.11.66-3.38-.64-5.12-1.04.52-1.59.61-3.56,1.64-4.68,2.11-2.31,4.76-4.11,7.09-6.23,5.73-5.22,11.34-10.57,17.11-15.73,3.75-3.36,8.62-5.86,11.37-9.85,4.21-6.12,9.6-10.7,15.15-15.31.85-.71,1.43-1.78,2.04-2.75.79-1.24,1.19-3.16,2.29-3.71,4.27-2.13,8.75-3.82,13.14-5.7.46-.2.84-.58,1.26-.88-.31-.27-.65-.79-.94-.76-5.1.48-10.78-.21-15.13,1.87-5.8,2.77-10.62,7.64-15.77,11.73-7.84,6.23-15.63,12.52-23.33,18.92-.7.59-.65,2.18-.79,3.33-.17,1.38.29,3.06-.34,4.13-2.19,3.71-4.48,7.43-7.26,10.69-1.02,1.19-3.69,1.78-5.29,1.37-.93-.24-1.59-2.96-1.7-4.6-.1-1.54.78-3.13,1.07-4.72.22-1.21.69-2.76.17-3.65-2.01-3.44-.19-5.73,2.05-7.82,6.08-5.65,12.28-11.16,18.36-16.81.57-.53,1.05-2.2.8-2.4-3.34-2.73-.57-5.32-.03-7.98.26-1.3.75-2.95.21-3.94-2.04-3.77-1.55-4.6,2.17-6.9,6.22-3.86,12.36-7.92,18.04-12.52,2.91-2.36,5.54-4.05,9.36-4.32,4.03-.28,8-1.31,11.99-2.07,3.03-.58,6.02-1.72,9.05-1.79,9.32-.19,18.64,0,27.96.09.78.01,1.72.13,2.32.56,7.82,5.78,15.48,11.78,23.42,17.38,3.42,2.42,7.37,5.75,11.11,5.78,15.32.11,30.65-.9,45.98-1.47,10-.37,20-.7,30.46-1.07,3.8.94,8.46,1.04,11.79,3.19ZM78.04,351.6c-1.52-.5-3.12-.95-4.71-1.03-1.85-.09-3.73.42-5.59.35-4.38-.17-8.78-1-13.11-.68-6.1.45-12.14,1.67-18.19,2.66-.85.14-1.79.72-2.35,1.39-2.11,2.53-4.09,5.18-6.09,7.81-.23.3-.28.74-.41,1.11.41-.11.9-.12,1.21-.36,6.02-4.66,12.98-5.25,20.28-5.15,2.17.03,4.3-1.87,6.56-2.49,2.16-.6,4.46-1,6.69-.95,4.05.08,8.09.73,12.14.78,1.67.02,3.36-.89,5.48-1.51-.94-.98-1.33-1.75-1.91-1.93ZM21.31,370.94c.64-.73.55-2.11.79-3.19-1,.63-2.18,1.09-2.98,1.92-1.47,1.54-2.75,3.27-4.04,4.98-.26.35-.2.95-.29,1.44.25.15.49.31.74.46,1.95-1.86,4.02-3.6,5.78-5.61Z"/>
      </g>
      <g class="cls-10">
        <g>
          <path class="cls-1" d="M775.22,290.45c-6.01-1.71-12.02-3.39-18.01-5.13-4.02-1.16-7.96-2.75-12.05-3.52-7.73-1.46-15.56-2.35-23.31-3.71-7.09-1.24-14.11-2.86-21.19-4.19-4.69-.88-10.3.01-11.69-6.64-.06-.28-.54-.46-.83-.7-6.58-5.37-14.23-9.28-18.76-17.27-2.2-3.88-5.54-6.65-3.96-11.7.22-.7-1.23-2.01-2.07-2.88-.16-.17-1.29.23-1.6.64-1.76,2.34-3.48,4.73-5.07,7.19-.47.73-.83,1.9-.6,2.67,1.76,5.67,3.71,11.28,5.55,16.92,2.5,7.65,5.09,15.27,7.27,23,.32,1.14-1.17,3.92-2.16,4.09-2.84.5-1.74,1.93-1.04,3,2.37,3.63,4.78,7.25,7.43,10.68,4.56,5.9,8.93,12.03,14.12,17.36,3.94,4.04,6.09,8.96,9.15,13.39,3.73,5.4,9.24,9.57,13.93,14.32.57.57,1.38,1.82,1.17,2.11-2.03,2.86.07,4.42,1.78,6.04,1.59,1.51,3.42,2.79,4.94,4.36.73.76,1.66,2.4,1.35,2.88-.75,1.15-2.09,2.28-3.39,2.6-1.18.3-2.62-.56-3.96-.76-2.7-.4-6.05.19-7.99-1.2-6.65-4.77-12.76-10.28-19.16-15.4-8.27-6.62-16.62-13.14-24.96-19.67-.52-.41-1.31-.48-1.98-.71-.03.76-.21,1.55-.07,2.27.66,3.49,1.36,6.98,2.13,10.45.59,2.65-1.25,4.58-3.02,4.12-2.95-.75-6.31-2.24-8.17-4.5-4.03-4.89-6.6-10.96-12.71-14.03-1.75-.88-4.01-2.1-4.6-3.69-2.3-6.21-4.22-12.58-5.87-19-.68-2.64.72-6.42-.69-8.08-1.46-1.72-5.25-1.36-7.93-2.17-3.13-.95-6.87-3.56-5.74-7.66,2.3-8.3,1.09-16.52-.5-24.75-.68-3.52-.6-6.82,2.11-9.76,1.58-1.71,2.73-3.9,3.71-6.04.47-1.03.09-2.44.1-3.69-1.05.11-2.13.09-3.14.36-6.11,1.64-12.21,3.31-18.29,5.05-5.77,1.65-11.42,4.21-17.29,4.82-5.11.53-9,2.08-12.63,5.51-2.16,2.04-4.84,3.63-7.52,4.97-1.16.58-3.03.36-4.31-.16-.67-.27-1.37-2.24-1.03-2.95,1.41-2.95,2.75-6.17,4.98-8.45,3.46-3.53,7.15-7.73,11.57-9.23,12.01-4.08,24.47-6.83,36.72-10.22,4.69-1.3,9.38-2.7,13.93-4.43,3.66-1.39,7.11-3.33,10.65-5.02.48-.23.98-.42,1.47-.63-.43-.45-.79-1.01-1.3-1.33-2.17-1.34-4.62-2.34-6.52-3.97-2.69-2.3-5.42-3.33-8.81-2.07-11.5,4.27-23.01,8.54-34.48,12.91-.7.27-1.31,1.34-1.55,2.16-1.03,3.54-3.37,4.55-6.87,4.29-2.11-.16-4.4,0-6.38.68-6.32,2.18-12.48,4.84-18.82,6.93-1.39.46-3.3-.68-4.96-1.08.56-1.41.75-3.26,1.77-4.13,2.2-1.87,4.88-3.16,7.29-4.8,7.94-5.39,15.8-10.91,23.79-16.22,11.23-7.47,23.33-12.12,37.16-11.14,3.43.24,6.94-.05,10.36-.5,5.65-.75,11.24-1.78,16.65,1.11.7.37,1.78.1,2.67.03.43-.03.84-.29,1.26-.45-.34-.38-.6-.92-1.03-1.12-3.97-1.86-7.95-3.72-11.98-5.46-2.04-.89-4.27-2.4-6.25-2.18-12.91,1.45-25.87,2.81-38.63,5.2-8.72,1.63-17.72,1.19-26.23,5.5-6.82,3.46-15.04,4.23-22.7,5.91-1.23.27-3.5-.59-4-1.57-.51-1.01.14-3.19,1.03-4.2,1.13-1.29,2.9-2.27,4.57-2.76,5.09-1.49,10.24-2.84,15.44-3.92,2.98-.62,5.71-.98,5.96-4.88.04-.67,1.07-1.55,1.83-1.87,3.54-1.47,7.08-2.98,10.74-4.1,6.47-1.99,13.11-3.44,19.52-5.6,10.58-3.58,21.36-5.86,32.54-6.02,3.36-.05,6.92-.42,10.03.53,3.84,1.17,7.35,3.48,10.93,5.45,6.81,3.75,13.55,7.62,20.34,11.4,2.53,1.41,4.44,1.03,7.12-.78,6.1-4.1,12.57-7.89,19.37-10.61,5.96-2.38,11.92-4.95,18.92-4.84,7.08.11,14.16-2.82,21.29-3.01,15.19-.41,30.42-.27,45.59.42,5.44.25,10.79,2.72,16.17,4.23,1.56.44,3.08,1.02,4.61,1.57,2.16.78,4.9,1.01,6.36,2.49,4.74,4.8,8.92,10.15,13.49,15.11,3.13,3.4,4.56,8.69,10.61,8.98,3.9.19,7.87.92,11.59,2.11,4.15,1.32,7.91,4.31,12.1,5.01,12.45,2.08,24.29,5.69,35.6,11.28,5.16,2.55,10.45,4.86,15.76,7.08,7.78,3.24,15.67,6.19,23.44,9.45,9.21,3.86,14.39,12.14,20.46,19.34,4.29,5.08,7.51,11.08,11.93,16.02,8.97,10.01,18.61,19.41,27.57,29.42,2.79,3.11,4.27,7.4,6.34,11.15.07.13.05.31.07.47-.31-.12-.65-.19-.94-.36-2.35-1.35-4.74-2.65-7.03-4.09-2.13-1.34-4.41-2.58-6.2-4.31-6.12-5.92-12-12.08-18.07-18.05-8.48-8.33-17.05-16.57-25.6-24.83-2.46-2.38-4.65-5.37-7.58-6.85-5.51-2.77-11.53-4.5-17.23-6.93-9.33-3.98-18.42-8.53-27.88-12.16-8.7-3.33-17.81-5.6-26.63-8.65-6.13-2.12-12.07-4.8-18.14-7.13-.76-.29-1.75,0-2.64.04.61.72,1.08,1.67,1.85,2.11,2.21,1.25,4.52,2.35,6.84,3.39,7.18,3.23,14.45,6.28,21.56,9.65,12.24,5.79,24.31,11.95,36.61,17.59,5.29,2.42,11.02,3.87,16.51,5.89,3.63,1.33,6.24,5.8,11.09,3.5.27-.13,1.37.87,1.68,1.53,3.2,6.99,6.34,14.01,9.42,21.05,1.13,2.58,1.98,5.28,3.09,7.87,2.5,5.78,5,11.56,7.66,17.26,2.22,4.74,5.29,9.16,6.87,14.08,2.04,6.36,3.04,13.05,4.28,19.64.18.98-.73,2.16-1.13,3.25-.93-.68-2.1-1.19-2.76-2.07-1.67-2.23-3.05-4.68-4.65-6.96-2.11-3.01-4.87-5.69-6.39-8.96-7.77-16.69-15.32-33.46-26.81-48.1-1.87-2.38-3.84-5.36-4.06-8.19-.23-2.98-1.45-4.05-3.68-4.88-.71-.26-1.54-.19-2.32-.27.05.75-.11,1.6.19,2.24,1.44,3.04,3.41,5.89,4.43,9.06,2.18,6.82,4.09,13.74,5.75,20.71,1.74,7.3,3.54,14.64,4.43,22.07.82,6.84.59,13.82.49,20.74-.02,1.13-1.55,2.49-2.71,3.23-.54.34-2.44-.29-2.74-.93-1.57-3.38-3.13-6.81-4.13-10.39-1.38-4.91-1.97-10.05-3.4-14.94-2.7-9.26-6.35-18.29-8.47-27.67-1.5-6.63-3.22-12.71-8.43-17.33-.56-.5-1.21-.9-1.82-1.34-.1.78-.36,1.59-.27,2.35.29,2.45.92,4.88,1.04,7.33.67,14.81,1.25,29.62,1.77,44.43.05,1.46-.53,2.95-.82,4.43-1.48-.72-3.07-1.28-4.37-2.23-.58-.42-.72-1.61-.85-2.49-.52-3.59-.84-7.21-1.45-10.79-1.49-8.64-3.19-17.24-4.65-25.89-.61-3.57-.65-7.23-1.29-10.79-.59-3.3-1.57-6.54-2.48-9.77-.38-1.33-.83-2.73-1.61-3.85-3.27-4.7-6.64-9.34-10.08-13.92-.73-.97-1.84-1.7-2.91-2.33-.23-.13-1.48.72-1.45,1.03.31,3.16,2.49,6.35-.43,9.4-.17.18.16.85.28,1.29,1.55,5.34,3.07,10.69,4.71,16.01.2.65,1.01,1.41,1.66,1.56,4.78,1.11,6.63,3.93,5.79,8.9-1.05,6.24-1.57,12.35,3.04,17.72,1.22,1.42,2.28,3.55,2.29,5.35.03,6.18.89,12.87-1.19,18.37-1.44,3.82-.05,5.69.38,8.69.96,6.78,1.95,13.95-1.92,20.39-2.57,4.28-5.21,8.55-8.15,12.59-6.43,8.85-13.09,17.45-25.12,19.07-1.91.26-3.65,2-5.54,2.15-3.54.28-7.2.24-10.69-.33-1.9-.31-.52-8.33,1.18-9.89,2.73-2.51,5.06-5.47,7.51-8.28,2.92-3.33,4.97-7.04,5.09-11.63.01-.55.82-1.21,1.4-1.61,5.24-3.63,7.98-9.3,7.78-14.96-.22-6.26,3.15-10.61,4.96-15.8.2-.57.09-1.81-.13-1.87-.73-.21-2.02-.35-2.3.05-1.11,1.55-2,3.26-2.8,5-3.51,7.59-6.4,15.53-10.57,22.73-3.97,6.86-9.22,12.98-14,19.36-.4.53-1.58.88-2.25.72-.95-.23-2.39-.88-2.54-1.58-.7-3.27-1.81-6.74-1.33-9.92,1.02-6.79,1.25-13.99,6.21-19.63.61-.69.61-1.89,1.06-2.77,2.47-4.88,4.7-9.91,7.61-14.52,1.95-3.1,4.04-5.72,2.21-9.6-1.05-2.23-1.93-4.57-2.57-6.94-1.06-3.9-2.3-7.91,2.27-10.77.44-.28.47-2.2,0-2.8-2.03-2.58-4.57-4.77-6.49-7.42-5.7-7.85-11.16-15.87-16.81-23.76-.54-.76-2.16-1.71-2.6-1.44-8.57,5.14-17.36,10.02-25.4,15.91-4.1,3.01-8.05,3.89-12.69,3.69-.12.37-.22.72-.33,1.07ZM889.94,278.46c-.53.64-1.59,1.4-1.47,1.89.22.91,1.11,1.67,1.72,2.49.26-.6.52-1.19.84-1.9-.39-.9-.74-1.69-1.09-2.48Z"/>
          <path class="cls-1" d="M587.59,256.88c-8.07,3.72-15.84,7.23-23.5,10.98-.59.29-.84,2.55-.36,3.37.49.83,2.29,1.66,3.15,1.39,7.13-2.3,14.23-4.7,21.19-7.45,1.43-.56,2.74-2.62,3.09-4.21.19-.85-1.82-2.17-3.57-4.08Z"/>
        </g>
      </g>
    </g>
    <g>
      <g class="cls-8">
        <path class="cls-2" d="M17.75,537.81c2.6-.9,2.74-2.37,1.7-4.24-1.5-2.69-3.03-5.37-4.48-8.09-2.05-3.87-2.45-7.96-1.47-12.2.65-2.81,2.34-3.62,4.48-1.69,2.17,1.95,4.25,4.24,5.63,6.79,2.26,4.15,3.92,8.62,5.92,13.16,1.27-.51,1.79-1.67.92-3.56-4.05-8.86-.14-15.7,5.67-22.05,1.6-1.75,3.02-1.23,3.95.54,2.37,4.53,4.38,9.17,2.82,14.52-.46,1.57-.19,3.4-.85,4.85-.74,1.62-2.1,2.98-3.29,4.36-.89,1.04-1.94,1.95-3.44,3.42h12c-1.88-10.18,1.58-17.96,9.35-23.98.52-.4,1.03-.94,1.62-1.11,1.94-.55,5.24-1.86,5.63-1.27,1.23,1.82,1.86,4.41,1.8,6.67-.07,2.58-1.12,5.13-1.76,7.69-.76,3.06-2.01,5.77-4.7,7.7-.74.53-1.12,1.56-1.66,2.36.25.23.5.46.74.7.61-.45,1.25-.86,1.81-1.36,6.82-5.99,17.1-5.66,22.98.67,1.93,2.07,1.59,3.79-.56,5.19-5.64,3.68-11.85,3.55-18.15,2.45-.71-.12-1.54-.58-1.96-1.15-1.69-2.29-3.95-2.6-6.62-2.12,9.04,4.06,15.01,11,19.33,19.59.89,1.77.56,2.79-1.22,3.69-4.13,2.07-8.01,1.31-11.52-1.16-5.51-3.87-7.81-9.97-10.21-15.9-.35-.87.42-2.19.79-3.83-2.76-.14-5.44-.27-8.87-.44.77,1.39,1.23,2.18,1.65,2.98,2.78,5.24,5.74,10.4,8.24,15.77,1.61,3.46.21,5.01-3.6,4.5-4.37-.58-6.93-3.66-9.05-7.06-1.92-3.08-3.57-6.33-5.2-9.58-1.08-2.16-2.36-2.41-4.48-1.34-2.53,1.28-5.26,2.17-8.27,3.38,1.2,3.9,1.9,7.88,5.67,10.32.35.23.65.58.92.91,2.55,3.24,5.31,6.35,7.58,9.79,2.51,3.8,5.59,2.71,9.29,2.62,5.59-.13,10.4-4.95,16.21-2.37,3.68,1.63,7.42,3.19,10.92,5.16,1.77,1,.76,2.87-.57,3.42-3.29,1.36-6.69,2.73-10.17,3.3-2.7.44-5.59-.32-9.09-.61,3.18,2.74,5.88,5.07,8.58,7.39.5.43,1.26.73,1.49,1.27.56,1.29.88,2.69,1.3,4.05-1.4.31-2.99,1.21-4.16.83-4.3-1.39-8.48-3.18-11.29-7.06-.22-.31-.59-.51-.89-.75-.27.17-.54.34-.81.51,2.24,4.18,4.46,8.38,6.74,12.54.84,1.53,1.73,3.05,2.75,4.46.59.82,1.56,2.04,2.24,1.97,1.13-.12,2.8-.91,3.13-1.82,3.43-9.44,19.97-7.12,24.29-.85.46.67.37,2.49-.16,2.92-1.76,1.42-3.74,2.71-5.83,3.58-3.89,1.62-7.91,2.92-11.09,4.07,4.31.98,9.31,2.3,14.38,3.24,5.75,1.06,10.58-2.2,15.74-3.85.26-.08.48-.44.63-.72,3.98-7.07.29-14.43-7.75-15.29-1.63-.18-3.33-.15-4.94.13-8.83,1.58-13.13-2.12-17.15-9.28,5.58-4.88,11.51-4.51,18.04-1.85,5.09,2.07,8.42,5.97,11.97,9.7,2.5,2.64,4.25,2.89,6.28.15.25-.33-.35-1.29-.56-1.96-3.08,1.91-4.48-1-5.35-2.57-4.21-7.58-12.61-8.9-18.9-13.31-1.7-1.19-3.33-2.92-4.16-4.78-.84-1.87-.08-3.55,2.67-3.62,9.46-.23,17.3,2.34,22.07,11.34,1.52,2.86,3.82,5.3,5.76,7.93,4.17-3.14,4.81-6.25,2.21-10.01-1.44-2.08-2.97-4.09-4.56-6.06-.44-.55-1.18-1.06-1.86-1.19-6.05-1.08-10.4-5.03-14.94-8.68-4.5-3.62-4.85-9.24-6.7-14.09-.74-1.95,1.45-2.16,2.53-1.57,5.48,2.96,11.44,5.26,15.33,10.58,1.91,2.62,4.05,5.07,6.43,8.04.99-4.76-2.19-7.01-4.17-9.63-3.46-4.56-5.43-9.58-5.42-15.26.01-4.63,2.2-5.82,6.37-3.86,7.25,3.41,9.51,10.02,11.53,17.08,2.08-4.35,5.72-7.41,9.83-10.21,2.53-1.73,5.28-2.79,7.02-.74,1.35,1.6,1.7,5.25.81,7.25-1.27,2.86-3.63,5.85-6.32,7.29-3.36,1.79-4.68,4.17-4.92,7.47-.23,3.26-.05,6.56-.05,10.55,2.36-2.19,4.42-3.95,6.32-5.88,3.15-3.22,6.03-6.72,9.37-9.71,1.16-1.04,3.5-1.51,5.02-1.13.9.23,1.84,2.66,1.77,4.05-.43,7.49-4.23,14.26-12.72,15.86-1.68.31-3.29.98-5.63,1.7,2.68,2.12,4.75,2.43,7.41,1.67,3.23-.92,6.85-2.21,9.9-1.53,2.78.62,5.68,3.22,7.32,5.73,1.86,2.85-2.05,6.97-5.88,6.59-5.96-.59-11.68-1.71-16.38-6.01-1.18-1.08-3.38-1.04-5.68-1.67,2.7,3.73,5.03,6.77,7.13,9.95.59.89.53,2.21.77,3.33-1.14.04-2.32.25-3.43.08-5.81-.91-8.28-5.17-9.78-10.63-3.1,11.89-6.08,23.28-9.1,34.83-.24-.18-.16-.07-.06-.05,5.99,1.1,6.99.21,6.78-5.78-.13-3.6-.24-7.21-.1-10.8.05-1.24.55-2.85,1.43-3.59,1.58-1.33,3.56-2.73,5.47-2.89,1.02-.08,2.48,2.24,3.3,3.73.71,1.28.8,2.89,1.49,4.57,1.14-5.15,5.35-7.62,8.85-10.65,2.24-1.94,3.61-1.63,4.79,1.08,1.98,4.55,1.92,8.99-1.27,13.08-.8,1.03-1.57,2.1-2.9,3.89,1.5-.53,2.28-.67,2.93-1.05,6.06-3.53,12.09-2.18,18.08.11,2.23.85,2.41,2.01.64,3.91-4.94,5.33-11.79,6.19-17.64,4.74-5.01-1.24-8.6.52-12.87,1.71.65.05,1.35.3,1.93.13,5.06-1.45,9.88-.1,14.54,1.54,1.58.55,2.84,2.32,3.99,3.74,1.81,2.25,4.05,3.46,6.85,4.06.99.21,2.23,1.22,2.59,2.16,1.78,4.7,3.31,9.49,5.18,14.97.67-2.2,1.66-4.15,1.8-6.15.45-6.52,8.57-14.18,15.02-13.53,1.26.13,2.34,1.94,3.22,2.73-2.12,8.36-9.3,12.49-14.64,18.04.32.33.64.66.97,1,1.69-1.13,3.37-2.27,5.29-3.56.85,3.19.94,5.83-2.02,7.69-3.12,1.96-6.33,3.81-9.35,5.91-1.54,1.07-2.76,2.61-4.69,4.48,4.23.82,7.53,1.55,10.87,2,.59.08,1.6-.88,1.97-1.58,2.68-5.04,5.17-10.2,7.95-15.19.48-.85,2.57-1.81,3.05-1.47,1.6,1.11,5.04-.69,4.91,3.35-.14,4.28-2.36,7.45-4.44,10.81-1.3,2.1-2.47,4.29-3.7,6.44.28.32.56.63.83.95,1.03-.58,2.54-.91,3.01-1.8,2.57-4.79,4.71-9.81,7.37-14.55.91-1.62,2.75-3.51,4.39-3.74,1.9-.27,3.26,1.57,3.19,4.02-.05,1.94.45,3.89.71,5.86,1.65-1.41,3.38-2.94,5.16-4.4.49-.4,1.18-.9,1.72-.85,2.1.21,4.18.64,6.27.98-.42,2.49-.17,5.4-1.39,7.39-2.22,3.6-5.33,6.66-8.07,9.95.14.29.27.58.41.87,1-.48,2.04-.89,2.99-1.45,5.08-2.98,10.09-6.1,15.27-8.9.97-.52,2.61.21,3.95.37-.19,1.25,0,2.76-.64,3.69-1.8,2.58-3.93,4.94-5.99,7.34-.58.68-1.36,1.19-2.3,2,4.26-.57,8.07-1.67,11.76-1.38,3.08.24,6.16,1.86,8.99,3.36,1.02.54,1.29,2.49,1.9,3.8-1.23.52-2.42,1.26-3.7,1.5-2.88.54-5.81.82-8.83,1.91,2.16,1.18,4.27,2.45,6.47,3.53,5.52,2.71,9.97,6.46,12.1,12.4.33.92.16,2.8-.38,3.08-.93.48-2.38.25-3.53-.03-1.11-.26-2.18-.84-3.15-1.47-2.79-1.82-5.56-3.68-8.24-5.65-.94-.69-1.62-1.73-3.11-2.23v10.26c2.48.4,5.2.67,7.83,1.33,1.11.28,2.02,1.37,3.03,2.1-.93.93-1.71,2.36-2.82,2.71-4.06,1.29-8.23,2.21-12.46,3.3,1.2,2.12,2.64,2.29,5.16,1.09,2.34-1.11,5.23-1.65,7.82-1.51,3.38.19,6.71,1.3,10.49,2.11-3.54,5.67-9.11,4.33-13.55,5.71.04.29.08.58.12.86,1.32-.1,2.63-.2,3.95-.3,5.89-.45,9.81,2.1,11.41,7.27.73,2.34-.12,3.2-2.38,3.52-4.14.58-7.08-1.98-10.34-3.72-.75-.4-1.39-1.01-2.74-2,1.18,3.23,2.35,5.7,2.91,8.3.3,1.39.02,3.83-.85,4.33-1.22.71-3.68.69-4.81-.12-1.84-1.34-3.73-3.37-4.34-5.48-1.11-3.85-1.21-7.98-1.91-11.97-.18-1.02-.98-1.93-1.81-2.54.44,3.72,1.13,7.43,1.24,11.15.12,4.2-2,7.28-6.19,9.39-1.7-4.1-4.57-7.56-4.03-12.32.24-2.15.31-4.16-2.12-5.63-1.47-.89-2.29-2.86-3.51-4.49-1.94,1.99-3.89,1.81-5.75-.26-.44-.49-.88-1-1.4-1.4-1-.78-2.06-1.49-3.09-2.22-.34.5-1.08,1.17-.95,1.48.63,1.54,1.2,3.3,2.35,4.39,1.03.98,2.78,1.23,4.23,1.76,3.96,1.45,6.23,4.41,7.31,8.34.89,3.24-.25,4.44-3.53,3.59-1.72-.45-3.29-1.43-4.36-1.92.54,4.52,1.23,9.35,1.64,14.22.16,1.83,0,3.97-2.63,4.2-2.57.22-4.67-.77-5.43-3.32-1.41-4.73.29-9.08,2-13.42.42-1.05.28-2.33.4-3.5-.41-.06-.82-.11-1.23-.17-.24,1.11-.32,2.29-.76,3.31-1.61,3.7-3.11,7.49-5.19,10.92-.47.78-3.07.28-4.69.37.07-1.07.07-2.15.23-3.2.27-1.8.81-3.58.93-5.39.26-3.87.14-7.59,4.77-9.53,2.94-1.24,1.73-3.99.62-6.39-2.27,1.81-4.27,4.19-6.82,5.21-2.44.99-5.45.57-8.21.77-.24-.36-.47-.73-.71-1.09,1.22-2.09,2.04-4.63,3.75-6.16,2.88-2.58,6.23-4.71,9.59-6.68,2.78-1.63,2.91-1.4,3.44-5.27-3.19,1.02-6.37,2.27-9.66,2.96-1.39.29-3.04-.61-4.57-.96.4-1.27.63-2.63,1.24-3.79,2.34-4.52,5.72-7.6,11.01-8.55,3.59-.64,4.38-4.09,1.54-6.56-5.28-4.6-11.08-8.64-16.06-13.52-4.13-4.05-8.89-3.2-13.59-3.7-.19.26-.39.53-.58.79,1.53,1.43,3.06,2.86,4.58,4.3,1.16,1.11,2.98,2.06,3.32,3.39.7,2.72,2.61,2.81,4.67,3.6,3.74,1.42,7.49,3.12,10.74,5.4,2.97,2.09,2.58,4.07-.88,5.54-2.07.88-4.54.95-6.84,1.1-1.49.1-3.02-.31-5.14-.57.72,3.02,1.12,5.79,2.06,8.36,1.36,3.74-.26,6.73-2.1,9.57-1.11,1.71-4.1.48-5.08-2.01-1.65-4.19-3.11-8.42-2.28-13.07.13-.72-.08-1.5-.46-2.52-.72,4.71-4.64,5.48-7.94,6.88-3.08,1.31-4.46.29-4.16-2.99.36-3.82.92-7.62.88-11.85-.8.87-1.61,1.73-2.4,2.61-1.87,2.07-3.34,1.85-4.37-.76-2.08-5.26-2.14-10.46.56-15.58.74-1.4,1.25-2.91,1.87-4.37-.22-.2-.44-.4-.66-.6-9.62,4.71-19.23,9.41-28.82,14.1,2,4.83,7.18,8.16,11.26,8.42,7.31.48,13.4,3.95,18.66,8.88.27.26-.4,2.35-.97,2.54-2.14.71-4.43.97-6.61,1.4.69,2.35,1.36,4.62,2.06,7.02,3.8-1.61,7.54-3.34,11.38-4.77,2.53-.94,5.05-1.04,7.48.84,2.12,1.64,2.41,3.36.34,4.8-4.26,2.97-8.74,5.63-13.27,8.5.84,2.2.91,2.31,3.45.82,4.82-2.83,9.74-5.32,15.54-4.42,1.44.22,3.31,1.07,3.91,2.2.49.92-.2,3.13-1.1,3.99-1.61,1.54-3.74,2.55-5.73,3.67-.98.55-2.12.82-3.19,1.22.04.32.08.64.12.97,1.19.06,2.42.32,3.58.15,4.73-.67,9.21-.05,13.37,2.35.84.49,1.86,1.07,2.24,1.88.65,1.39,1.56,3.28,1.07,4.41-.46,1.07-2.65,2.15-3.93,1.99-4.96-.61-9.87-1.72-15.59-2.79,1.12,1.26,1.89,2.66,3.07,3.37,4.88,2.94,8.16,6.95,9.32,12.6.52,2.56-.07,3.74-3.08,3.97-5.85.44-9.44-5.75-10.5-11.12-.37-1.9-.64-3.82-.96-5.74-.44.06-.88.11-1.31.17.15,1.76.5,3.54.39,5.28-.18,3.05-.44,6.12-1.08,9.09-.21.98-1.62,2.08-2.68,2.34-.55.14-1.57-1.39-2.28-2.25-.47-.58-.61-1.52-1.17-1.92-4.33-3.06-3.98-6.86-2.02-11.06.78-1.68,1.27-3.49,1.99-5.49-1.27-.29-2.36-.54-3.17-.73-1.96,4.28-3.83,8.34-5.7,12.41-.94,2.05-2.06,1.95-3.47.41-4.22-4.61-4.37-7.71-.55-12.87,4.94-6.67,4.87-6.63.61-13.86-2.01-3.4-3.63-7.03-5.61-10.45-.75-1.3-2.01-2.29-3.27-3.68-1.24,3.75.05,8.16,2.49,9.9,4.03,2.86,6.35,6.97,8.18,11.38.81,1.95-.53,2.74-2.19,2.53-1.92-.24-3.79-.89-5.6-1.35-1.22,3.89-2.34,7.9-3.78,11.79-.38,1.01-1.75,2.29-2.68,2.3-1.18.02-2.74-.85-3.49-1.83-1.97-2.58-2.59-5.59-1.29-8.73,1.3-3.14,2.91-6.17,3.93-9.4.6-1.89.64-4.11.33-6.09-.48-3.13-.86-6.53-2.36-9.2-3.18-5.66-4.64-12.57-11.35-15.93-2.86-1.43-5.15-4.01-7.75-5.99-.55-.42-1.36-.51-2.34-.86v6.09c2.95,1.06,5.88,1.91,8.64,3.16,3.38,1.52,5.83,6.37,5.4,9.85-.29,2.34-1.34,3.12-3.58,2.13-1.6-.7-3.33-1.14-4.84-1.98-1.41-.78-2.61-1.94-4.47-3.36-.62,1.93-1.14,3.53-1.62,5.03,6.51,1.93,12.44,3.81,15.34,9.94.88,1.86.9,4.27.81,6.4-.09,2.21-3.07,3.77-4.96,2.36-3.37-2.51-6.39-5.5-9.42-8.44-1.07-1.04-1.74-2.49-3.07-3.56.06.42,0,.92.21,1.24,3.19,4.88,2.48,10.14,1.35,15.35-.22,1-1.74,2.4-2.66,2.4-1.16.01-2.92-.97-3.38-1.99-2.44-5.47-3.37-11.14-.74-16.89.57-1.24,1.16-2.47,1.74-3.71-.23-.18-.47-.37-.7-.55-.85.73-1.7,1.45-2.54,2.18-1.74,1.5-3.35,3.18-5.23,4.47-3.52,2.43-5.05,2.22-8.15-.61-.56-.51-1.13-1.03-1.68-1.53,3.1-7.97,6.66-10,15.33-10.17,1.5-.03,3.34-3.22,4.23-5.29.5-1.15-.62-3.01-1.23-5.39-3.53,5.77-7.73,9.12-13.82,9.04-1.47-.02-3.26-.61-4.3-1.58-1.35-1.26-.24-2.74.4-4.35,2.11-5.33,6.3-7.18,11.39-8.34,1.43-.32,3.38-1.95,3.58-3.22.29-1.81-.2-4.89-1.42-5.61-6.61-3.91-10-10.71-15.23-15.76-3.13-3.02-7.44-4.96-11.48-6.83-2.56-1.19-4.7-2.35-6.46-4.71-1.69-2.26-4.21-3.9-6.37-5.81-.22.19-.44.38-.66.57.07.97.2,1.94.21,2.9.03,2.96,1.15,4.27,4.44,4.62,6.42.7,10.13,5.68,13.74,10.36,1.34,1.74.08,3.28-2.54,2.78-3.93-.76-7.76-2.03-11.49-3.04v9.78c4.57-3.73,8.82-5.94,13.53-4.34,3.4,1.16,6.4,3.51,9.67,5.39-5.26,6.57-14.22,7.84-22.37,3.65v6.42c8.21-5.37,13.94-.64,19.79,3.79,1.63,1.23,1.83,2.64.5,3.86-1.4,1.3-3.16,2.91-4.86,3.05-5.1.42-10.43.89-14.54-3.37-.19-.19-.59-.17-1.09-.31-.08.48-.35,1.06-.19,1.22,2.58,2.7,5.14,5.44,9.16,5.91,6.46.75,9.71,5.54,13.42,10.11-8.04,3.79-15.43,2.57-22.48-6.96.57,3.37.59,5.94,3.54,8.29,5.29,4.22,5.96,10.82,5.91,17.13-.03,3.15-2.95,4.15-5.82,2.51-5.26-2.99-8.88-12.68-7.39-18.57.69-2.71.36-5.68.06-8.58-2.33,7.67-4.32,15.29-14.28,16v-26.22c-2.79,2.02-5.68,3.94-8.37,6.11-1.61,1.3-1.36,7.88-.48,9.97,1.46,3.49,2.53,7.17,3.45,10.84.22.87-.61,2.74-1.29,2.92-1.19.33-3.04.18-3.93-.58-4.46-3.8-7.04-8.98-4.47-14.94.49-1.15.56-2.48.86-3.87-4.11.74-5.65,2.48-5.85,5.86-.15,2.59-.59,4.72,2.45,6.55,2.79,1.68,3.9,12.18,2.39,15.09-.8,1.55-1.88,2.04-3.46.87-4.15-3.07-5.99-7.2-5.76-12.3.13-2.94.31-5.87.51-9.53-2.79,1.51-4.66,2.47-4.6,5.52.05,3.03-.36,5.73,2.57,8.12,2.43,1.98,1.91,10.68-.08,13.25-1.11,1.43-4.72,1.46-5.77-.06-2.72-3.96-4.72-8.1-3.26-13.15.42-1.44.48-2.98.75-4.75-3.43,1.32-5.74,3.19-4.66,6.92,1.61,5.55-2.85,8.83-4.63,13.09-.1.23-2.04.13-2.69-.38-5.3-4.1-5.63-10.54-1.04-15.53,1.44-1.56,2.6-3.38,4.02-5.26-2.7-.73-4.79-1.29-6.89-1.85-1.22,3.61-2.27,7.5-3.89,11.14-.64,1.44-2.54,2.33-3.86,3.46-.85-1.62-2.24-3.18-2.45-4.89-.4-3.21-.11-6.51-.11-9.47-3.15,1.87-6.19,3.75-9.31,5.49-.94.52-2.07.77-3.14.98-5.01.99-7.25-1.41-5.29-6.2.94-2.31,2.73-4.78,4.83-6,3.74-2.19,8.02-3.44,12.04-5.17,1.45-.62,2.78-1.51,4.17-2.27-.07-.27-.15-.54-.22-.82-4.21,0-8.45.3-12.61-.11-2.83-.28-5.69-1.27-8.3-2.48-2.54-1.18-1.95-2.77.51-3.37,4.35-1.06,8.78-2.64,13.14-2.56,4.3.08,8.56,1.97,12.83,3.06-.07.33-.13.65-.2.98,2.27-1.44,4.53-2.87,6.8-4.31-.02-.35-.04-.71-.06-1.06-3.08,0-6.17-.04-9.25.02-1.65.03-3.3.34-4.94.29-.77-.03-2.22-.71-2.19-.94.43-3.18-2.21-3.77-4.07-4.92-2.13-1.32-1.65-2.06,0-3.63,3.46-3.3,7.18-1.4,10.83-1.13.96.07,1.89.44,3.62.87-1.09-1.65-2.1-2.66-2.49-3.87-.64-2.01-1.05-4.13-1.17-6.23-.03-.5,1.69-1.7,2.3-1.52,3.32.98,6.97,1.69,9.69,3.64,2.76,1.98,4.16,2.76,5.26-1.62,5.37,2.06,10.51,3.96,15.57,6.01,1.19.48,2.42,1.3,3.17,2.31,2.19,2.94,4.52,2.85,7.56.53-3.16-1.73-6.19-3.35-9.18-5.05-.92-.52-1.72-1.24-2.57-1.87.71-.89,1.29-1.95,2.16-2.64,2.99-2.36,6.19-2.65,9.48-.57,3.15,1.98,6.23,4.08,9.46,5.93.89.51,2.59.8,3.25.3,1.55-1.18,2.7-2.89,4.38-4.8-4.22-.22-7.6-.21-10.92-.64-1.48-.19-4.12-1.51-4.05-1.88.41-2.02,1.18-4.12,2.41-5.77,2.1-2.83,5.39-2.88,8.61-2.74,1.19.05,2.38.01,4.37.01-1.88-4.64-3.65-8.83-5.26-13.08-.69-1.82-1.17-3.75-1.5-5.68-.57-3.33-.83-6.71-1.52-10.01-.14-.65-1.64-1.4-2.52-1.41-.99,0-1.98.78-3.23,1.35,1.74,2.62,3.27,5.12,5,7.49,2.78,3.82,1.21,7.69-.03,11.36-.65,1.92-2.09.94-2.83-.47-2.32-4.46-5.2-8.72-4.81-14.11.03-.49-.18-.99-.35-1.89-2.26,1.97-4.21,3.68-6.52,5.7,2.15,1.76,4.12,3.49,6.22,5.05,3.13,2.33,4.31,5.43,3.98,9.22-.17,1.97-.45,3.94-.48,5.92-.07,3.65-2.11,5.08-4.85,2.66-2.86-2.53-5.17-5.89-7.01-9.28-.88-1.63-.17-4.16-.07-6.28.05-1.18.33-2.34-.06-3.78-.44.62-1.16,1.2-1.28,1.88-.55,3.18-1.8,6.25-.15,9.63,2.49,5.09-1.02,14.8-6.04,17.07-.63.29-2.58-.69-2.79-1.4-1.06-3.63-1.75-7.37-2.6-11.25-.47.53-1.28,1.46-2.12,2.36-3.23,3.44-7.56,4.31-11.94,4.84-.54.06-1.77-1.47-1.83-2.32-.23-3.75,4.85-11.25,8.44-12.22,2.88-.78,5.96-.83,8.9-1.45,2-.42,3.91-1.26,5.86-1.92-.03-.31-.07-.62-.1-.92-3.79.33-7.58.97-11.37.9-3.89-.07-7.78-.84-11.84-1.32-2.01-4.09-.9-7.05,3.84-7.97,4.73-.91,9.62-1.6,14.39-1.38,2.39.11,4.67,2.44,7.18,3.87,1.13-1.44,2.52-3.24,4.02-5.16-3.15-.2-6.08-.16-8.92-.66-1.45-.26-2.73-1.47-4.09-2.25.96-1.39,1.67-3.08,2.92-4.12,4.14-3.44,8.91-3.26,13.77-1.84.95.28,1.87.83,2.82.86.78.03,1.88-.31,2.27-.88.34-.51-.08-1.55-.21-2.35-.03-.19-.25-.36-.39-.52-1.96-2.22-3.6-5.66-5.98-6.28-2.15-.56-5.16,1.86-7.7,3.15-4.7,2.39-9.28,5.01-14,7.34-3.93,1.93-7.52,4.23-12.63,3.05-3.85-.89-8.22.46-13.11.87,2.87,2.32,5.37,4.18,7.68,6.25,1.82,1.64,4.05,3.12,3,6.34-.63,1.93-1.66,2.53-3.41,2.01-5.04-1.52-10.21-2.71-14.19-6.61-1.28-1.25-3.1-1.96-4.87-3.03-1.05,1.57-1.39,2.55,1.03,3.8,7.16,3.71,10.92,10.32,13.62,17.56.99,2.64-.48,4.11-3.05,2.86-3.21-1.56-6.21-3.7-9-5.95-2.23-1.8-4.02-4.15-6.48-6.77,0,2.7-.18,5.08.11,7.4.09.71,1.42,1.4,2.31,1.83,6.14,2.95,9.22,8.25,10.97,14.46.3,1.08-.44,2.45-.71,3.69-1.22-.31-2.71-.27-3.62-.98-4.33-3.36-8.5-6.93-13.09-10.72-.69,1.34-1.42,2.77-2.36,4.61,7.59.87,9.99,6.57,12.59,11.84.63,1.27-.2,3.27-.35,4.93-1.43-.25-3.16-.08-4.22-.85-3-2.15-5.72-4.68-9.48-7.85.69,3.26.59,6.08,1.83,8.06,3.98,6.34,1.51,12.65.4,18.91-.47,2.68-2.08,2.69-4.19,1.13-6.72-4.96-5.88-11.48-4.2-18.34,1.08-4.4,1.88-8.87,2.9-13.75-3.05,1.83-4.32,3.9-4.37,6.99-.09,5.89-3.34,10.07-8.11,13.1-2.29,1.46-3.95.13-5-1.95-3.88-7.68-.93-14.64,7.29-17.55,1.96-.69,3.78-1.78,5.37-3.12-2.04,0-4.1.18-6.11-.08-.9-.12-2.16-.97-2.4-1.75-.23-.75.52-1.92,1.07-2.76.59-.89,1.42-1.63,2.2-2.39,2.6-2.54,5.48-4.44,9.35-4.08,2.97.27,4.35-.82,4.49-4.09.14-3.45,1.08-6.86,1.62-9.98-5.54,3.71-11.4,7.6-17.2,11.58-.49.34-.66,1.2-.91,1.84-2.22,5.69-4.22,11.48-6.73,17.04-1.11,2.47-2.74,2.22-3.72-.5-1.81-5.01-2.4-10.07,1.49-15.16h-3.75c-1.79,5.11-3.42,9.94-5.2,14.72-.77,2.07-1.83,4.64-4.55,3.78-2.61-.82-4.29-3.18-4.11-6.13.19-3.04.76-6.06.46-9.6-1.16,1.53-2.37,3.03-3.47,4.61-3.18,4.54-10.41,7.43-15.7,6.11-2.3-.57-2.33-2.34-1.22-3.85,1.28-1.75,3.07-3.12,4.49-4.78,3.09-3.61,6.25-7.05,12.52-6.64-1.83-1.62-3.11-2.37-3.84-3.48-1.01-1.53-1.61-3.34-2.39-5.03,1.98-.72,4.16-2.36,5.9-1.98,3.81.84,7.47,2.52,11.03,4.21,2.61,1.24,4.96,3.05,7.79,4.16-4.16-3.28-6.1-7.84-8.02-12.43-.41-.98-1.35-1.73-1.75-2.71-.48-1.19-.64-2.52-.94-3.78,1.11-.02,2.36-.4,3.3-.01,6.99,2.91,12.55,7.61,16.75,13.91.36.54.81,1.03,1.41,1.8,1.27-.92,2.47-1.79,3.64-2.63-.21-.44-.26-.77-.38-.8-7.15-1.52-8.86-7.61-10.94-13.26-.42-1.15.15-2.67.27-4.02,1.22.16,2.72-.07,3.62.56,3.01,2.13,5.76,4.62,8.69,6.87,1.9,1.46,3.81,3.04,5.96,3.99.88.39,2.6-.51,3.65-1.24,3.91-2.71,4.46-7.02,5.4-12.01-4.36.29-8.36.41-12.33.85-4.5.5-8.97,1.11-13.11-1.41-2.37-1.44-4.53-3.29-7.03-4.43-5-2.28-10.07-4.51-15.31-6.12-2.38-.73-5.24.08-8.14.21,2.31,4.11,4.41,7.42,6.04,10.94.99,2.15,1.62,4.63,1.71,6.99.06,1.5-.78,3.61-1.93,4.37-.76.5-3.35-.47-4.14-1.51-3.17-4.18-5.98-8.63-8.87-13.02-.83-1.26-1.49-2.63-2.29-4.06-1.14.53-2.02.93-3.37,1.56,6.45,3.97,8.81,10.37,11.47,16.58.76,1.77,1.14,3.17-1.58,3.47-.7.08-1.54,1.09-1.88,1.86-1.16,2.65-2.43,2.29-4.15.51-4.36-4.53-7.32-9.81-8.92-15.88-.27-1.04-.6-2.07-.97-3.36-2.22,1.11-4.72,1.63-5.98,3.17-1.6,1.97-2.89,4.73-2.99,7.2-.08,2.16,2.08,3.76,4.61,4.43,8.66,2.28,13.17,8.12,12.84,17.14-.08,2.02-1.57,4.37-3.12,5.79-.67.62-3.45-.28-4.73-1.22-4.76-3.53-8.25-8.09-10.48-13.68-1.17-2.93-2.93-5.61-4.42-8.41-.46.25-.91.5-1.37.76,1.75,3.26,3.71,6.42,5.19,9.8,2.87,6.53,2.24,12.93-1.87,18.76-.77,1.1-2.62,1.79-4.05,1.98-2,.25-3.69-.82-4.17-2.95-1.62-7.12-2.67-14.22.1-21.39.5-1.29-.21-3.05-.36-4.6-5.17.81-5.83,2.53-4.08,7.05.76,1.97.49,4.56.04,6.74-.92,4.49-2.82,8.62-6.9,11.17-3.34,2.09-5.87.76-6.39-3.31-.71-5.49.22-10.56,4.43-14.59.39-.38.72-.83,1.07-1.26.06-.08.07-.2.1-.3-4.15-.65-5.35.72-7.06,4.37-1.37,2.92-4.05,5.36-6.55,7.56-1.93,1.7-4.42,2.83-6.77,3.99-2.05,1.02-3.63.17-3.75-2.08-.13-2.45.13-4.95.47-7.39.19-1.36.87-2.66,1.17-3.52,3.34-1.4,6.45-2.8,9.64-4.03,3.14-1.21,6.36-2.23,9.66-3.83-1.52-.07-3.04-.24-4.56-.19-4.04.12-7.81-.91-10.64-3.71-1.56-1.55-2.89-3.92-3.13-6.06-.3-2.65,2.09-2.91,4.42-3.04,8.04-.46,14.69,2.68,20.89,7.38,1,.76,2.54.82,3.97.55-1.94-2.13-4.18-4.07-5.75-6.44-1.47-2.23-2.35-4.89-3.28-7.44-.91-2.51.79-3.17,2.61-2.47,2.42.92,4.84,2.14,6.83,3.76,2.36,1.92,4.27,4.4,6.38,6.64,3.11-2.97,3.01-3.84-.5-5.73-3.59-1.93-7.18-3.85-10.74-5.82-.86-.47-1.86-.94-2.4-1.7-.85-1.19-1.84-2.63-1.83-3.95,0-.65,2.06-1.69,3.29-1.86,2.9-.39,5.85-.36,9.03-.52,1.72-3.39,9.44-6.44,14.39-5.38,1.38.3,2.9.17,4.19.68,1.11.44,1.94,1.56,2.97,2.25.83.55,2.03,1.49,2.66,1.24,2-.81,3.8-2.09,5.72-3.21-5.35-2.28-10.52-4.51-15.72-6.68-.58-.24-1.31-.23-1.95-.18-13.67.98-26.57,5.43-39.49,8.47,2.75,2.51,5.77,4.73,8.1,7.52,2.3,2.75,3.9,6.08,6.48,10.23-2.56.39-4.48,1.32-5.78.77-5.14-2.13-10.17-4.57-15.06-7.24-1.18-.64-1.66-2.57-3.01-4.82-1.48,4.7-3.51,8.81-3.97,13.1-.73,6.83-6.86,16.66-13.06,19.16-.31.12-.62.22-.94.29-7.29,1.72-9.15-.12-7.14-7.17,1.89-6.63,6.54-11.04,11.96-14.89,1.21-.86,2.29-2.12,2.99-3.43,1.2-2.26,2.04-4.7,3.22-7.53-2.27,2.13-4.35,4.07-5.53-.36-.1-.37-1.23-.88-1.52-.71-.76.44-1.81,1.16-1.89,1.87-.55,4.46-3.22,7.7-6.14,10.67-3.43,3.49-7.66,4.94-12.63,3.86-2.38-.52-3.17-1.55-2.79-4.17.52-3.51,1.96-6.17,4.62-8.43,1.45-1.23,2.56-2.88,3.82-4.34-.18-.33-.36-.66-.55-.99-2.28.93-4.8,1.5-6.79,2.86-5.74,3.91-12.01,4.84-18.59,3.65-2.43-.44-4.64-2.04-7.62-3.42,1.53-1.88,2.74-4.18,4.63-5.55,7.4-5.35,15.59-5.07,24.01-2.86,1.8.47,3.84.07,5.77.07.07-.4.13-.81.2-1.21-1.66-.96-3.57-1.65-4.91-2.94-1.65-1.59-3.13-3.54-4.03-5.62-.37-.85.71-3.17,1.64-3.54,1.44-.57,3.66-.63,4.95.12,4.69,2.77,9.15,5.93,13.64,9.02,1.44.99,2.69,2.24,4.03,3.37,3.84-1.68,7.53-3.3,11.64-5.1-2.98-1.33-5.74-2.36-8.3-3.77-2.29-1.26-4.46-2.82-6.5-4.47-2.11-1.71-1.4-4.02,1.16-5.03,6.6-2.59,12.66-.96,18.58,2.12,3.87,2.01,7.74,4.04,11.64,5.99.54.27,1.3.34,1.9.21,5.02-1.08,10.03-2.23,15.35-4.13-3.87-1.56-7.71-3.21-11.62-4.67-6.9-2.57-13.84-5.02-20.76-7.52-.51-.18-1.19-.68-1.51-.51-4.62,2.45-6.72-1.73-9.48-3.72-2.83-2.06-5.23-4.71-7.87-7.03-1.12-.98-2.4-1.79-4.19-3.1,1.18,5.2,1.72,9.79-.97,13.78-2.44,3.62-5.25,7.03-8.21,10.23-1.89,2.04-3.02,1.42-3.65-1.39-1.88-8.47.39-16.28,3.99-24.03-3.19-.61-4.72.32-5.76,3.41-1.42,4.18-2.42,7.9-.97,12.5,1.73,5.48-1.33,10.24-4.67,14.53-.74.95-1.38,2.01-2.25,2.81-.41.38-1.7.58-1.87.34-1.67-2.34-3.73-4.6-4.59-7.25-.93-2.86-.71-6.09-.95-9.17-.25-3.25-.2-6.4,2.65-8.77.5-.42.61-1.31,1.01-2.23-3.2-.23-3.94,1.56-4.34,3.95-1.02,6.06-3.23,11.41-8.89,14.74-3.89,2.29-7.64,2.33-11.52.06-1.91-1.12-1.47-2.49-.58-3.91,2.57-4.07,5.18-8.12,7.44-12.65-.94.69-1.91,1.35-2.81,2.09-5.59,4.57-11.76,7.3-19.17,5.87-1.16-.22-2.29-.75-3.35-1.3-3.18-1.66-3.39-2.96-1.41-5.87,4.58-6.7,11.47-8.44,18.92-8.82,2.05-.1,4.14.62,6.21.96.09-.29.18-.58.28-.87-2.16-1.14-4.37-2.21-6.48-3.45-2.52-1.49-2.43-2.71-.2-4.66,2.67-2.34,5.66-3,8.89-1.89,3.93,1.35,7.85,2.79,11.57,4.62,1.51.75,2.48,2.61,3.91,4.2,1.98-.64,4.34-1.4,6.71-2.16,0-.21.03-.42.04-.64-2.52-.65-5.06-1.24-7.56-1.97-.86-.25-1.62-.82-2.43-1.24.53-.6.95-1.42,1.61-1.75,2.73-1.36,5.53-2.58,8.51-3.19.84-1.11,1.66-2.24,2.58-3.27.08-.09,1.26.49,1.23.64-.17,1.06-.52,2.09-.9,3.43,2.67.52,5.77,1.13,8.9,1.74q.46-1.87-9.39-8.7c-5.03,5.8-12.43,6.08-19.28,7.67-4.62,1.07-5.27.39-5.99-4.26,2.81-3.07,5.66-6.17,8.84-9.63-2.87-.81-5.61-1.59-8.7-2.46-.51,5.12-2.02,9.54-5.53,13.2-4.65,4.85-10.67,4.78-16.58,4.89-2.27.04-2.41-1.82-.78-4.09,3.75-5.23,7.36-10.56,11.17-16.06-3.79-1.55-6.48-.17-8.92,2.13-4.88,4.59-14.87,5.44-20.26,1.7-2.65-1.84-2.11-5.83,1.08-8.06,3-2.1,6.34-3.01,9.97-2.78,3.62.23,7.23.53,10.85.76.91.06,1.83.01,3.63.01-4.93-3.73-9.05-6.88-13.2-9.98-2.73-2.03-4.91-4.32-5.23-7.99-.16-1.8.37-2.7,2.08-2.32,5.49,1.22,11.55.75,16.08,4.94,3.62,3.35,7.18,6.79,10.54,10.39,1.92,2.06,3.28,4.62,5.12,6.76.75.86,2.12,1.19,3.48,1.9-2.84-6.84-5.52-13.14-8.08-19.49-.95-2.36-2.18-5.58.24-6.94,1.8-1.01,4.89.23,7.39.59.59.09,1.19.6,1.65,1.05,5.69,5.6,9.97,12.07,11.68,19.95.42,1.94-.11,4.08-.23,6.86,1.44.73,3.8,1.92,6.25,3.16-.9-5.33-1.84-10.33-2.52-15.37-.18-1.37.44-2.85.69-4.29,1.4.36,3,.41,4.16,1.14,2.87,1.8,5.93,3.54,8.21,5.97,4.13,4.41,3.92,10.4.09,14.95-.7.83-1.42,1.64-2.42,2.79,1.23.9,2.14,2.01,3.28,2.34,4.5,1.31,7.57,4.42,11.03,7.38,8.09,6.91,15,15.36,24.9,20.02,2.54,1.2,5.13,2.32,8.29,2.96-1.9-3.74-3.81-7.47-5.36-10.53-4.82-.41-9.32-.12-13.32-1.37-2.45-.77-4.2-3.87-6.17-6.01-.81-.88-1.38-1.98-2.05-2.99-1.6-2.44-1.03-2.98,1.59-4.1,4.14-1.76,7.98-1.57,12.65.93-.97-2.39-1.59-3.93-2.34-5.8-2.81,2.77-5.51,2.26-8.71,1.53-5.33-1.22-8.7-4.81-12.38-8.25-2.35-2.2-.72-4.7-.71-7.05,0-.19,2.09-.59,3.19-.52,2.05.13,4.09.53,6.3.85,2.19,1.81,4.77,3.93,7.34,6.05.16-.15.32-.29.49-.44-1.38-1.77-2.6-3.71-4.18-5.28-4.77-4.74-6.87-10.66-7.79-17.1-.15-1.03.51-2.18.79-3.27.82.62,1.63,1.27,2.48,1.85.67.45,1.39,1.16,2.09,1.17,3.5.04,5.42,2.19,6.88,4.92,2.79,5.23,5.48,10.51,8.26,15.88.51-2.27.99-4.55,1.54-6.81.21-.84.46-1.72.92-2.45,2.53-3.97,3.23-3.86,6.56-.67,7.09,6.8,9.74,12.98-.8,21.95-2.25,1.92-3.39,4.17-1.21,7.08.87,1.16,1.17,2.74,2.12,4.25-.95-8.32,4.77-12.78,9.69-17.68,1.26-1.25,2.48-2.43,4.6-1.35,2.19,1.12,2.19,2.95,1.86,4.79-.57,3.21-1.41,6.38-2.34,10.47,3.73-1.85,6.66-3.3,9.58-4.79.22-.11.27-.56.4-.86.42-.99.83-1.98,1.25-2.97,1.14,1.1,2.49,2.07,3.35,3.36.44.66.15,1.94-.07,2.87-.22.91-1.08,1.72-1.13,2.6-.31,5.79-2.89,10.52-6.48,14.88-1.8,2.19-3.43,4.53-4.75,7.38,3.59-2.15,7.16-4.35,10.8-6.41.76-.43,2.09-.8,2.66-.43.92.59,1.92,1.78,2,2.78.26,3.12-.8,5.75-3.64,7.57-1.33.85-2.37,2.14-4.02,3.66,7.31,3.19,14.35,5.65,20.76,9.23,7.66,4.27,16.31,5.14,24.21,8.36,8.49,3.46,16.8,7.35,25.14,11.15,2.86,1.31,5.56,2.96,8.37,4.39.76.39,1.67.85,2.45.76,4.31-.49,8.61-1.15,12.93-2.12-2.66-.8-4.61-3.45-8.23-1.27-1.96,1.18-5.57,1.06-7.8.07-4.79-2.12-9.28-5.01-13.64-7.96-1.42-.96-2.03-3.12-3.12-4.89-3.95-.56-8.66-.98-13.23-2-2.09-.47-4.17-1.85-5.8-3.32-1.39-1.25-1.11-2.87,1.17-3.26,3.67-.63,7.35-1.21,10.96-1.8-1.22-3.62-1.89-3.53-6.15-2.64-9.62,2.01-19.57,5.12-28.65-1.33-2.97-2.11-4.91-5.73-7.12-8.8-.32-.44.27-2.29.76-2.44,3.17-.96,6.16-2.93,9.83-1.51,2.12.82,4.62.66,6.75,1.46,2.91,1.09,6.15,2.12,8.33,4.17,3.01,2.83,6.19,2.68,9.58,2.72.21-.29.43-.57.64-.86-4.42-4.29-8.81-8.61-13.32-12.82-.38-.35-1.64-.13-2.28.21-7.24,3.89-21.01,1.12-25.83-5.26-1.33-1.75-.61-3.53,1.52-4.24,7.67-2.57,15.43-1.45,22.6.57-.86-.74-1.73-2.14-2.59-2.12-9,.11-13.87-5.82-18.12-12.4-1.54-2.38-2.42-5.32-3.01-8.13-.63-3.01,1.85-4.56,4.84-3.57,2.59.86,5.56.95,7.85,2.27,2.73,1.58,5.24,3.85,7.24,6.32,2.62,3.23,4.65,6.93,6.91,10.45.35.54.86,1.18.82,1.74-.47,6.97,4.66,10.64,8.53,15.22,1.58-1.91,1.46-3.19-.21-4.76-1.28-1.2-2.35-2.91-2.87-4.59-1.3-4.15-2.67-8.37-3.17-12.66-.41-3.53,1.1-4.19,4.13-2.45,6.53,3.75,9.64,10.07,12.13,16.73.39,1.05-.2,2.88-.95,3.89-4.9,6.61-4.77,9.76.14,14.46.86.82,1.61,1.76,2.59,2.58-3.77-6.18-3.2-12.37-.41-18.64.53-1.19.63-2.56,1.09-3.79.29-.75.78-1.8,1.39-1.96.63-.17,1.83.34,2.21.93,2.15,3.31,4.6,6.55,6.08,10.17,2.87,7.06.15,12.83-6.23,18.18,5.36,2.3,10.14,4.36,15.51,6.67-.55-2.06-.8-3.94-1.53-5.61-2.08-4.7-3.66-9.53-3.04-14.69.28-2.3,1.35-4.58,2.47-6.65.25-.46,2.84-.45,3.24.12,1.68,2.38,3.19,4.95,4.31,7.64,2.47,5.94,3.29,12.06,1.18,18.37-.28.85-.22,2.17.26,2.85,2.1,2.93,3.94,6.36,6.77,8.37,3.86,2.74,8.51,4.37,12.84,6.45,2.07,1,4.42,1.62,6.2,2.98,1.87,1.43,3.42,1.62,5.49.44-.26-.6-.35-1.49-.77-1.7-5.84-2.89-11.73-5.69-17.62-8.5-.69-.33-1.44-.56-2.16-.84-6.33-2.44-6.77-3.33-6.91-10.21-.08-3.79-.92-7.55-1.1-11.35-.05-.97.92-2.53,1.77-2.83.74-.26,2.31.62,2.93,1.45,4.54,6.04,8.87,12.24,13.41,18.27.74.98,2.21,1.41,3.57,1.85-4.39-7.46-6.04-15.54-6.83-23.85-.08-.88.3-1.8.47-2.7.86.31,1.77.52,2.56.94,9.1,4.91,10.77,14.12,13.04,22.91.76,2.92,1,5.97,1.51,9.18.38-.43.71-.64.77-.9,1.46-6.18,2.91-12.36,4.3-18.55.65-2.9,1.88-3.4,4.39-1.67,4.98,3.45,5.93,13.35,2.06,18.07-2.01,2.45-3.37,5.37-6.96,6.01-.64.12-1.07,1.42-1.55,2.11,9.08.89,13.61-5.59,18.64-11.05,2.77-3,5.06-6.44,7.96-10.18-6.17-2.93-12.09-5.76-18.04-8.55-12.16-5.71-24.28-11.54-36.53-17.06-12.94-5.83-26.16-11.05-38.99-17.12-11.44-5.41-22.58-11.49-33.69-17.56-3.12-1.71-5.85-4.26-8.47-6.73-2.96-2.79-2.36-6.63.94-8.94.92-.65,1.69-1.63,2.29-2.6,2.87-4.65,7.1-5.02,11.35-1.6,2.05,1.65,4.94,2.45,7.58,3.14,4.28,1.12,8.67,1.82,13,2.73,4.52.95,9.01,2,13.55,2.84.84.15,1.99-.27,2.71-.81,2.79-2.09,5.87-2.61,8.98-1.37,3.46,1.38,5.23-.7,7.31-2.72,1.07-1.03,2.46-2.35,3.76-2.42,10.88-.61,21.77-1.14,32.67-1.28,2.77-.04,5.22-.96,6.23-2.78,1.72-3.1,4.16-2.94,6.87-3.24,1.44-.16,2.94-.89,4.17-1.73,4.01-2.74,9.82-2.83,12.96,2.3,3.67,6.01,8.14,11.54,12.26,17.28.56,1,1.12,1.8,1.8,2.76ZM204.37,693.24c2.78,4.63,5.19,9.55,8.43,13.83,3.74,4.94,4.06,4.7,8.8,1.63-4.48-4.12-6.13-9.34-5.17-15.17.5-3.01-.84-4.39-3.94-6.33.6,3.16.91,5.45,1.48,7.68.6,2.34-.28,3.45-2.44,2.54-2.54-1.07-4.84-2.72-7.26-4.1-4.38-3.71-.66-8.5-1.7-13.19h-12.72c3.69,3.79,6.93,7.28,10.36,10.58,1.14,1.1,2.76,1.7,4.16,2.53ZM117.01,652.45c-1.14,4.81-2.06,9.66-3.53,14.34-.46,1.48-2.4,2.49-3.66,3.72-1.27-1.67-3.5-3.26-3.65-5.03-.72-8.48-.65-16.87,5.62-23.89,2.32-2.6,1.85-3.4-1.42-5.62-.1.6-.3,1.12-.25,1.62.7,6.41-4.08,10.01-7.34,14.38-1.22,1.63-2.45,3.24-3.72,4.83-.45.57-1.03,1.03-1.55,1.54-.56-.58-1.48-1.08-1.62-1.74-.46-2.21-.77-4.47-.91-6.73-.15-2.4-.03-4.81-.03-7.21-.3-.02-.6-.04-.9-.06-1.17,1.4-2.34,2.81-3.68,4.41-3.35-2.17-3.85-5.73-4.71-8.88-.9-3.27-1.09-6.74-1.63-10.43-1.9.44-4.11,1.02-6.34,1.46-2.25.45-2.86,1.45-1.37,3.38.4.52.74,1.1,1.03,1.68,7.31,14.77,17.69,27.19,29.48,38.52.82.79,2,1.65,3.05,1.69,6.54.23,12.88-.81,18.92-3.45,1.41-.62,2.88-1.1,4.66-1.78-4.47-1.75-9.32-2.32-11.92-5.04-2.67-2.74-3.09-7.62-4.53-11.71ZM150.02,649.53c.23-1.7.73-3.11.54-4.42-.39-2.74-1.03-5.47-1.85-8.12-.16-.53-1.54-.93-2.38-.97-6.16-.27-12.18-.67-16.88-5.61-1.67-1.76-3.98-2.93-6-4.36,1.67,5.07,3.85,9.36,6,13.67,1.23,2.47.92,4.6-1.52,6.39-1.03-.95-1.9-1.94-2.94-2.67-5.28-3.72-8.68-8.64-9.67-15.07-.37-2.37-1.58-2.88-3.71-2.21.07.42.05.78.2,1.05,5.88,10.64,11.16,21.63,19.01,31.08,2.44,2.94,6.89,4.69,6.22,9.67-.01.06.14.14.24.23,2.35.25,4.38.07,4.48-3.07.02-.48.43-1.04.81-1.41,2.16-2.07,1.28-3.66-.11-5.95-1.89-3.09-3.32-6.65-4.09-10.2-.76-3.46,1.63-4.94,4.72-3.16,2.24,1.3,4.2,3.09,6.93,5.13ZM34.98,692.3c-.57.08-.9.08-1.18.18-6.78,2.45-13.55,4.94-20.35,7.35-.9.32-2.31.77-2.82.35-3.16-2.55-5.12-.3-7.61,1.84,4.3-1.24,7.35.93,10.4,2.75,1.98,1.18,3.44,1.05,5.4-.14,3.06-1.85,6.4-3.22,9.62-4.81,1.21-.6,2.74-.95,3.5-1.91,1.23-1.56,1.95-3.54,3.04-5.61ZM-3.39,703.4c-2.94,2.6-6.13,4.82-8.37,7.75-.65.85,1.38,3.76,2.21,5.71.05.11.31.12.46.18,3.99-6.11,5.61-6.83,12.21-5.34,1.07.24,2.08.74,3.16.93.92.16,1.89.03,2.84.03-4.32-2.88-9.54-3.77-12.51-9.26ZM95.52,638.69c2-2.44,3.32-4.5,5.07-6.05,1.81-1.6,4.05-2.71,6.12-4.05-2.72-3.7-5.54-5.01-8.58-4.3-2.07.48-2.86,1.4-2.2,3.73.51,1.8.32,3.83.26,5.75-.05,1.49-.39,2.97-.67,4.92ZM205.4,716.15c-.17.21-.34.42-.51.63,0-2.05-.35-4.18.07-6.15.8-3.71-2.14-8.82-5.8-9.78-.33,2.42-.74,4.85-.97,7.3-.07.77.04,1.88.53,2.34,2.13,1.99,4.44,3.79,6.68,5.66ZM54.31,679.37c-2.02,3.39-3.65,6.14-5.34,8.97,5.99.52,8.15,2.24,5.34-8.97ZM-75.36,611.91c4.22,1.23,8.57,2.49,13.82,4.02-1.44-1.29-2.22-2.13-3.14-2.79-.97-.69-2.2-1.06-3.07-1.84-3.57-3.16-5.05-3.02-7.61.61ZM154.02,662.13c5.3-4.85,4.49-6.18-.35-10.05-3.71,3.4.36,6.35.35,10.05ZM49.21,703.02c5.43-.42,6.88-4.37,5.81-10.9-1.83,3.43-3.73,7-5.81,10.9ZM3.33,682.24c-.15.25-.3.49-.45.74,2.83,2.51,5.61,5.09,8.55,7.46.63.51,1.87.27,2.83.37.08-.3.16-.59.23-.89-4-2.15-6.26-6.84-11.16-7.68ZM-154.31,572.94c-.24-.11-.48-.22-.71-.33-1.07,1.19-2.01,2.55-3.24,3.52-3,2.37-1.41,4.06,1.3,6.74,1-3.79,1.83-6.86,2.65-9.93ZM114.71,556c-.3,3.19-.58,6.14-.86,9.09,3.94-5.38,4.02-6.7.86-9.09ZM161.28,683.32c-1.15-1.03-2.1-1.88-3.4-3.04-.81,2.79-1.44,4.94-2.22,7.62,2.1-1.71,3.6-2.94,5.62-4.58ZM-127.77,626.76c-2.52-.78-4.71-1.46-7.41-2.3,1.7,2.02,3,3.55,4.36,5.16,1.2-1.12,1.97-1.84,3.05-2.86ZM-173.74,548.75c-2.1,2.15-1.59,3.99,1.23,6.44-.41-2.14-.77-4.01-1.23-6.44Z"/>
      </g>
      <g class="cls-11">
        <path class="cls-2" d="M704.42,585.17c-2.72,5.15-4.89,9.66-7.43,13.94-2.08,3.51-5.56,3.27-7.4-.31-.36-.7-.44-1.69-.29-2.48.5-2.7,1.04-5.41,1.82-8.04.27-.92,1.16-1.75,1.94-2.41,2.41-2.05,5.08-3.82,7.26-6.08.75-.78.36-2.67.52-4.44-3.22,2.41-5.63,4.69-8.45,6.17-2.04,1.07-4.62,1.22-6.99,1.55-2,.28-3.78-3.01-2.98-5.64.78-2.55,2.54-5.11,4.55-6.89,2.31-2.05,5.37-3.26,8.47-5.04-3.26-2.64-6.42-5.21-10.09-8.18-.13,1.58-.05,2.67-.33,3.65-1.06,3.67-2.09,7.35-3.43,10.92-.68,1.81-2.17,2.14-3.58.45-3.03-3.59-5.91-13.51-2.05-18.89,1.38-1.93,1.28-2.1-.49-4.23-1.55,3.62-3.09,7.19-4.59,10.78-.68,1.63-1.06,3.43-3.53,3.1-2.44-.33-3.69-1.98-3.6-4.03.29-5.92.63-11.88,1.64-17.7.43-2.47.04-3.43-2.16-4.2-7.64,8.68-8.53,19.84-12.37,29.77.95.49,1.15.69,1.33.67,7.7-.88,14.02,2.44,17.63,9.59.67,1.33.85,3.29.36,4.65-.23.64-2.69,1.02-3.9.68-4.29-1.22-8.48-2.8-13.26-4.43,2.36,3.19,4.12,7.2,7.19,9.2,2.33,1.51,6.38.81,9.58.42,2.92-.36,5.38-.13,7.68,1.73.66.54,1.56,1.07,2.37,1.09,4.43.11,5.2,4.21,7.42,6.7.28.31-.04,1.8-.36,1.91-2.25.76-4.63,1.93-6.88,1.77-4.03-.28-8.05-1.2-11.97-2.27-1.98-.54-3.72-2-5.78-3.17-.04,2.96.09,5.59,3.33,6.82,1.02.39,1.94,1.04,2.97,1.4,7.11,2.47,11.92,7.5,15.53,13.87.16.29.41.61.4.9-.17,2.55-.38,5.09-.59,7.63-2.03-.5-4.3-.57-6.03-1.57-4.42-2.57-8.17-5.89-9.82-11.07-.53-1.67-1.68-3.14-3.02-4.5.17,5.33,1.78,10.16,3.77,14.98,3.06,7.41,4.53,15-.42,22.24-.55.81-2.78,1.27-3.8.84-3.91-1.63-5.89-6.25-4.94-10.48,1.04-4.61,2.59-9.19,2.87-13.84.2-3.36-1.22-6.84-2.09-10.23-.89-3.43-1.99-6.81-3.73-10.06.27,1.61.43,3.25.83,4.83,2.61,10.33.59,20.07-3.58,29.57-1.1,2.5-3.19,2.38-5.33,2.01-2.38-.41-1.35-2.22-1.5-3.66-.81-7.87,1.12-14.96,5.47-21.54,1.83-2.78,1.5-4-1.39-12.47-1.13,2.99-2.02,5.22-2.81,7.49-.7,2.01-.59,4.72-3.61,4.78-3.09.07-3.69-2.49-4.64-4.77-1.96-4.68-1.3-9.13,1.33-13.18,1.07-1.65,2.99-3.05,4.83-3.82,2.1-.87,2.19-1.71.98-3.65-1.18.84-2.15,1.73-3.29,2.29-.78.38-1.93.62-2.65.31-.51-.22-.91-1.55-.76-2.26,1.05-4.81,2.34-9.57,3.4-14.38.66-2.98,1.04-6.02,1.55-9.04-.43-.08-.85-.17-1.28-.25-.73,3.03-1.52,6.05-2.18,9.1-.78,3.62-1.12,7.38-2.26,10.88-1.28,3.94-3.3,7.63-4.9,11.47-1.31,3.15-2.42,6.39-3.7,9.55-.93,2.3-.87,4.17,1.42,5.74,2.08,1.43,4.12,2.99,5.87,4.8,1.58,1.63,3.08,3.5,4.02,5.54,1.28,2.77.16,3.83-2.88,3.77-5.03-.1-8.27-3.14-11.39-6.48-1.26-1.35-2.49-2.73-3.86-4.25-1.93,1.03-3.73,1.99-5.65,3.02.39.35.53.6.68.6,3.36.12,7-.71,7.64,4.57.21,1.69,2.48,3.18,3.91,4.66,4.73,4.91,7.09,13.9,1.95,20.43-.46.58-1.81,1.03-2.44.78-.79-.32-1.62-1.36-1.81-2.22-1.26-5.88-2.35-11.8-3.53-17.69-.14-.72-.51-1.4-.77-2.1-.34-.05-.67-.09-1.01-.14-.4,2.11-1.37,4.3-1.09,6.31.83,5.95-.32,11.63-1.68,17.29-.38,1.56-1.51,3.26-2.79,4.22-2.97,2.23-7,.67-6.72-2.89.41-5.13,2.03-10.18,3.43-15.19.58-2.08,1.9-3.94,2.89-5.91-.25-.16-.5-.31-.75-.47-.88.61-1.72,1.27-2.64,1.81-1.51.89-3,2.23-4.62,2.43-1.92.24-3.96-.54-5.95-.87.57-1.6.75-3.54,1.79-4.74,2.49-2.88,5.37-5.41,8.1-8.52-4.13.4-7.64-.18-9.58-4.17-.16-.33-.66-.6-1.05-.68-2.46-.5-5.09-.57-7.36-1.5-2.25-.93-4.14-2.71-6.45-4.3-1.02,4.64.28,8.81,3.14,11.9,6,6.48,6.01,13.83,4.33,21.65-.49,2.27-1.8,2.11-3.39.92-5.1-3.78-6.98-8.97-6.75-15.13.06-1.61.01-3.22-.72-5-1.33,2.28-2.51,4.66-4.05,6.79-.75,1.03-2.17,1.55-3.29,2.31-.58-1.19-1.44-2.31-1.7-3.57-1.34-6.51.13-12.65,2.65-18.65.5-1.2.47-2.64,1.03-3.79.81-1.66,1.93-3.16,2.92-4.73.4.12.79.24,1.19.36-1.47-4.13-2.95-8.25-4.59-12.84-.72,1.04-1.44,2.03-2.11,3.06-1.42,2.19-3.04,4.3-4.14,6.65-.65,1.39-1.03,3.35-.57,4.72,1.42,4.16-1,14.64-4.48,17.57-.48.4-1.13.68-1.75.84-2.96.76-4.89-.43-5.06-3.47-.28-5.21,1.42-9.95,4.1-14.36,3-4.93,6.11-9.8,8.96-14.82.83-1.46.37-3.83,1.4-4.95,3.24-3.5,1.44-8.83,4.91-12.21,1.51-1.47,2.61-3.51,3.44-5.48,1.3-3.07,1.98-6.42,3.4-9.43.68-1.45,2.4-2.43,3.69-3.56,1.28-1.12,2.63-2.16,3.96-3.23-.13-.38-.25-.75-.38-1.13-3.5.51-7.01.91-10.47,1.63-.58.12-1.04,1.52-1.3,2.41-1.83,6.22-3.59,12.46-5.4,18.69-.15.51-.41,1.1-.81,1.42-1.35,1.09-2.78,2.08-4.18,3.11-1.11-1.88-3.05-3.71-3.16-5.64-.26-4.65-.84-9.56,2.12-14.01-3.79,2.06-7.59,4.13-11.48,6.25,2.34,2.84,4.41,5.38,6.5,7.89,2.31,2.77,2.78,6.12,2.14,9.38-1.54,7.84-4.21,15.08-12.08,19.02-2.26,1.13-3.82,1-5.38-1.12-1.95-2.64-2.83-5.18-1.7-8.54,2.17-6.47,3.95-13.06,5.89-19.6-.32-.12-.63-.25-.95-.37-.36.56-.85,1.07-1.07,1.68-2.97,8.24-10.14,11.43-17.4,14.49-2.31.97-3.82-.4-4.96-2.16-1.4-2.16-1.28-4.31.31-6.42,3.55-4.71,8.19-7.85,13.7-9.81.77-.27,1.52-.61,2.63-1.05-3.65-1.48-6.96-2.56-10-4.15-2.19-1.15-4.12-2.87-5.98-4.54-1.34-1.2-1.03-2.28.58-3.4,5.63-3.94,11.13-3.63,16.86-.21,2.99,1.79,6.25,3.13,9.5,4.72.74-1.01,1.62-2.21,2.21-3.01-3.25-3.54-6.76-6.63-9.31-10.38-1.81-2.67-2.49-6.17-3.32-9.39-.19-.73,1.07-1.84,1.67-2.77.63.77,1.22,1.57,1.9,2.3.97,1.04,1.85,2.27,3.03,2.99,4.01,2.43,8.36,4.36,12.16,7.07,4.55,3.25,7.86,3.15,12.02-1.66-6.66-.18-10.4-5.09-14.74-8.72-1.72-1.44-2.27-4.65-2.67-7.16-.42-2.65,1.96-4.08,4.66-2.91,7.24,3.14,14.72,5.76,18.91,13.54.94,1.75,4.88,2.19,7.54,2.59,1.79.26,3.75-.62,5.77-1.02-.24-.3-.41-.71-.61-.73-6.96-.7-9.79-6.59-13.53-11.13-.95-1.16-.55-3.85-.01-5.61.22-.71,2.43-1.11,3.76-1.15,8.07-.22,13.9,3.93,18.76,9.89.83,1.02,1.75,1.97,2.67,3.01,5.74-2.87,11.44-5.69,17.12-8.56,1.07-.54,2.07-1.25,3.09-1.89,3.27-2.05,6.32-4.61,9.84-6.04,4.08-1.66,7.86-3.48,11.22-6.4,1.1-.95,3.22-.76,4.89-1.01,1.6-.24,3.52.13,4.76-.64,4.12-2.55,8.67-2.03,13.09-2.36,1.98-.15,2.84,2.1,1.74,4.52-2.4,5.27-4.91,10.49-7.37,15.73-.32.68-.59,1.39-.9,2.15,1.26,1,2.43,1.94,3.94,3.14.92-1.5,1.8-2.84,2.6-4.24,2.35-4.11,5.53-7.4,9.85-9.35,4.33-1.95,6.72-.03,6.66,4.65-.05,3.89-2.18,6.61-4.48,9.27-2.08,2.41-4.38,4.63-6.55,6.91.02.29-.05.57.06.7.99,1.2,2.02,2.38,3.03,3.57.92-1.4,2.12-2.69,2.72-4.21,2.48-6.21,9.76-11.38,16.49-11.5,2.46-.04,3.38,1.2,2.02,3.72-2.46,4.53-5.31,8.87-8.11,13.21-1.04,1.6-2.41,2.98-3.51,4.31,4.89-.4,9.75-.8,14.69-1.21,1.04-7.49,4.81-13.86,8.53-20.67,2.24,3.96,4.67,6.99,5.7,10.45,1.12,3.76.92,7.91,1.31,12.02,1.92-.52,3.22-1.53,4.21-4.47,1.35-4.04,4.36-7.56,6.88-11.15,1.48-2.1,3.11-4.3,5.17-5.74,2.71-1.9,3.71-.95,3.78,2.39.13,5.99-.05,11.83-3.73,16.99-.31.43.21,1.46.34,2.21.74-.31,1.88-.42,2.17-.97,3.12-5.82,8.32-9.2,13.93-12.11,2.32-1.21,4.68-2.36,7.08-3.4.41-.18,1.52.26,1.63.62.31.98.71,2.35.27,3.08-2.77,4.61-5.74,9.09-8.67,13.6-.47.72-1.09,1.33-1.84,2.24,3.08.96,5.21,1.54,7.9-1.29,4.22-4.43,10.15-5.37,16.19-5.04,1.31.07,2.63.12,3.94.06,2.46-.1,3.82,1.5,2.68,3.71-.99,1.91-2.31,3.94-4.04,5.12-4.63,3.17-9.61,5.77-15.44,6.01,1.26,4.3,2.45,4.27,6.54,4.15,5.18-.16,10.41,1.06,15.61,1.73,1.32.17,2.62.52,4.13.82.22.63.74,1.71.95,2.84.4,2.22.43,4.22-1.94,5.76-1.18.77-1.86,2.52-2.44,3.96-.72,1.77-.86,3.8-1.69,5.5-.97,1.99-1.53,3.72-1.25,6.12.24,2.05-.96,4.52-2.22,6.33-.42.6-3.55.3-4.47-.59-4.66-4.52-9.05-9.15-9.53-16.38-.2-3.05-2.34-5.96-4.05-8.78,0,3.02.02,6.04-.01,9.06-.03,3.45-.59,3.68-3.8,2.95-1.21-.27-2.73.64-4.06,1.13-4.42,1.63-8.82,3.31-13.21,5-.46.18-.83.59-1.92,1.39,2.23.16,3.71.23,5.17.37,5.15.49,9.78,2.47,14.18,5.06,2.46,1.45,2.86,3.94,2.36,6.34-.13.61-2.54,1.37-3.62,1.06-5.76-1.66-11.43-3.63-17.84-5.73,1.95,2.74,3.48,5.32,5.43,7.53,2.57,2.92,4.36,6.05,4.55,9.99.04.86.01,1.99.51,2.53,3.08,3.32.07,4.82-1.88,6.58-2.5,2.26-4.01.29-5.83-1.27-3.24-2.77-4.66-6.27-5.04-10.38-.13-1.39-.51-2.76-1.42-4.25-1.41,3.93-2.67,7.92-4.33,11.75-.61,1.42-1.98,2.76-3.35,3.48-.52.27-2.47-1.06-2.99-2.06-4.19-7.99-2.05-15.05,2.87-20.81-2.4-2.35-4.76-4.67-6.75-6.63-1.12,3.55-3.21,4.3-8.15,1.79-1.73-.88-3.33-2.05-5.14-3.18-1.58,2.37-.68,3.89,1.39,4.44,5.93,1.56,8.92,6.07,11.64,10.96.94,1.69,1.48,3.21-.4,4.65-1.76,1.35-3.43,2.33-5.65.74-2.4-1.72-4.94-3.25-7.89-4.37,1.96,2.52,3.98,4.99,5.88,7.56,3.04,4.11,1.37,11.61-3.09,14.17-1.73,1-7.52-1.77-7.91-3.73-.36-1.8-1.08-3.57-1.2-5.37-.19-2.92-.14-5.86.04-8.78.16-2.65.62-5.28.94-7.92-.31-.08-.63-.15-.94-.23-1.73,2.89-3.29,5.9-5.27,8.6-.81,1.1-2.69,2.26-3.83,2.04-1.16-.22-2.56-1.96-2.89-3.27-1.65-6.45,2.44-12.65,9.2-13.97,1.78-.35,2.63-.98,2.62-2.64-.02-3.61-.04-7.16,1.88-10.47.49-.78-.03-2.14-.16-3.89ZM610,593.12c-1.87.96-3.72,1.98-5.63,2.85-2.57,1.17-5.19,2.23-8.29,3.56,5.91,2.37,8.47,6.6,8.66,12.98,3.28-.77,6.24-1.38,9.15-2.17,2.54-.69,4.98-1.73,7.53-2.39,3.8-.98,4.32-1.7,3.52-5.78-.21-.04-.44-.16-.62-.11-.42.1-.85.24-1.23.45-4.74,2.67-9.59,1.62-14.4.32-.73-.2-1.46-.92-1.9-1.59-2.51-3.82-.82-5.47,3.21-8.12,5.37-3.45,11.15-5.34,17.61-4.7.98.1,1.97.29,2.95.24,2.6-.12,3.43-2.13,3.24-4.11-.08-.82-2.05-1.62-3.29-2.09-.73-.27-1.73.28-2.59.2-4.67-.43-9.37-.76-13.98-1.57-1.1-.19-2.82-2.27-2.66-3.2.65-3.78,4.73-7.3,8.54-6.9,4.16.44,8.19,2.01,12.32,2.9,1.37.29,3.77.52,4.14-.12,1.32-2.29,1.97-4.97,2.91-7.61-3.5.79-6.64,2-9.8,2.06-3.23.06-6.48-1-9.71-1.6-1.6-.3-3.18-.84-4.79-.94-1.11-.07-2.59.07-3.32.75-4.58,4.27-12.32,5.39-17.75,2.35-3.66-2.05-4.55-1.63-5.37,2.08,5.2,1.1,10.42,2.12,15.59,3.36,1.1.26,2.93,1.63,2.82,1.99-.41,1.31-1.25,2.77-2.36,3.54-5.23,3.62-11.38,2.99-17.25,3.12-6.5.15-6.6.05-4.29,6.26.1.28.4.49.73.88,1-.38,2.09-.63,3.01-1.15,3.78-2.16,7.8-2.88,12.06-2.09,1.72.32,3.54,1.46,5.08,1.14,4.64-1,5.39,1.98,6.16,5.21ZM646.29,545.23c-.39-.17-.78-.34-1.18-.51-2.08,1.15-4.06,2.58-6.27,3.38-3.91,1.4-7.93,2.5-11.96,3.51-1.09.27-2.37-.25-3.57-.41.21-1.1.1-2.41.68-3.25,2.86-4.15,5.9-8.17,8.8-12.14-.21.03-.95.02-1.59.27-3.38,1.3-6.71,2.75-10.12,3.96-2.4.85-3.75,2.23-4.31,4.81-.6,2.76-1.42,5.59-2.79,8.03-1.05,1.86-3.11,3.14-4.72,4.68-.97-1.19-1.99-2.35-2.89-3.6-.54-.75-.88-1.64-1.71-3.22-.66,1.03-1.08,1.66-1.48,2.3-.39.64-.76,1.3-1.11,1.92-3.13-.82-5.1.42-5.95,3.76,2.18.29,4.36.48,6.5.87,2.79.51,5.53,1.27,8.33,1.75,1.26.22,2.76.45,3.87-.02,3.08-1.3,5.88-3.39,9.04-4.39,4.95-1.56,9.95-.41,14.89.78,1.17.28,3.43.07,3.66-.51,1.52-3.89,2.64-7.96,3.88-11.97ZM753.58,560.64c-.37,4.89-.48,8.98-1.07,13-.37,2.49-2.11,3.68-4.55,2.04-2.19-1.48-3.98-1.09-6.21.1-2.35,1.26-5.05,1.94-7.67,2.59-2.68.67-5.45.99-9.14,1.62,2.21,2.38,3.64,3.92,5.29,5.69,7.45-7.63,15.1-6.31,22.96-1.41.81.5,2,.39,3.46.64-3.24-6.3-2.48-11.88.62-17.42.74-1.32,1.55-3.75.94-4.44-1.18-1.34-3.35-1.81-4.63-2.41ZM713.63,567.9c3.43,4.38,5.27,4.95,9.17,2.55,3.38-2.08,6.83-2.22,10.46-1.27,3.13.82,6.22,1.78,9.5,2.73-.49-3.83-.92-7.21-1.41-11.04-9.08,1.48-18.48,3.1-27.72,7.03ZM708.12,574.95c1.6,4.34,1.12,9.54,6.89,11.35,1.22.38,2.17,1.81,3.11,2.86,1.41,1.58,2.72,3.27,4.2,5.07,1.13-4.3-.4-10.51-2.92-12.43-1.41,1-2.84,2.03-3.52-.76-.76-3.11-3.91-5.64-7.76-6.09ZM773.07,576.02c-.26.22-.52.44-.78.66,3.74,3.63,7.48,7.26,11.52,11.18.89-2.89,1.74-5.61,2.48-8-4.62-1.34-8.92-2.59-13.22-3.84ZM711.85,559.5c-1.07-1.54-2.4-3.46-3.67-5.29-2.68,1.39-5.27,2.73-8.02,4.16,1.02,1.17,1.9,2.46,3.06,3.41.6.49,1.83.72,2.56.46,2.04-.73,3.97-1.77,6.07-2.74ZM648.19,528.84c-2.83,1.69-5.45,3.24-8.06,4.82-.52.32-.97.74-1.56,1.2.43.22.61.4.78.38,2.06-.17,4.13-.34,6.18-.57,3.96-.44,4.57-1.6,2.66-5.83Z"/>
      </g>
    </g>
  </g>
</svg>