<?xml version="1.0" encoding="UTF-8"?>
<svg id="Capa_1" data-name="Capa 1" xmlns="http://www.w3.org/2000/svg" xmlns:xlink="http://www.w3.org/1999/xlink" viewBox="0 0 820 519.07">
  <defs>
    <style>
      .cls-1 {
        fill: #fff7eb;
      }

      .cls-1, .cls-2, .cls-3 {
        stroke-width: 0px;
      }

      .cls-4 {
        clip-path: url(#clippath-2);
      }

      .cls-2 {
        fill: none;
      }

      .cls-5 {
        clip-path: url(#clippath-1);
      }

      .cls-6 {
        clip-path: url(#clippath-4);
      }

      .cls-3 {
        fill: #db5221;
      }

      .cls-7 {
        clip-path: url(#clippath);
      }

      .cls-8 {
        clip-path: url(#clippath-3);
      }
    </style>
    <clipPath id="clippath">
      <rect class="cls-2" width="820" height="519.07"/>
    </clipPath>
    <clipPath id="clippath-1">
      <rect class="cls-2" width="820" height="519.07"/>
    </clipPath>
    <clipPath id="clippath-2">
      <rect class="cls-2" width="820" height="519.07"/>
    </clipPath>
    <clipPath id="clippath-3">
      <rect class="cls-2" width="820" height="519.07"/>
    </clipPath>
    <clipPath id="clippath-4">
      <rect class="cls-2" width="820" height="519.07"/>
    </clipPath>
  </defs>
  <rect class="cls-1" width="820" height="519.07"/>
  <g id="Ilustración">
    <g>
      <g class="cls-7">
        <path class="cls-3" d="M121.34,314.66c4.49-4.69,8.46-9.04,12.68-13.12,1.24-1.2,3.14-2.18,4.83-2.37,3.62-.4,7.32,0,10.94-.33,5.64-.51,10.43,1.67,15.07,4.34,2.93,1.69,2.92,3.6.88,6.35-1.92,2.58-3.26,5.59-5.06,8.27-1.01,1.5-2.41,2.76-3.71,4.05-2.7,2.67-5.41,5.32-8.18,7.91-5.46,5.09-11.01,10.07-16.42,15.2-1.98,1.88-3.65,4.07-5.47,6.11.25.29.49.58.74.87,4.75-2.89,9.62-5.59,14.22-8.7,8.53-5.76,16.95-11.69,25.32-17.68,3.38-2.42,6.46-5.26,9.79-7.76.81-.61,2.1-.98,3.1-.86,3.91.45,7.2,4.49,7.28,8.49.05,2.51.36,5.01.36,7.52,0,3.72-.84,7.19-3.49,10.02-1.59,1.7-1.17,3.22.79,4.36,1.8,1.05,3.35,2.51,5.01,3.8.22.17.37.51.61.57,4.55,1.05,5.8,5.19,8.03,8.45.57.84,1.62,1.61,2.6,1.89,4.41,1.26,8.88,2.33,13.33,3.46.27.07.63.07.8.24,3.09,3.18,6.47,6.14,9.11,9.66,1.73,2.31-.21,5.38-3.17,5.98-5.97,1.21-11.83,2.53-16.89,6.39-3.1,2.36-6.59,4.32-10.17,5.87-2.27.98-5.03,1.27-7.53,1.14-5.59-.29-11.15-.99-16.72-1.61-3.99-.44-7.98-1.47-11.96-1.42-6.25.07-12.66.12-18.69,1.53-3.73.87-6.94,4.15-10.23,6.55-2.18,1.6-3.86,3.96-6.17,5.29-5.23,3.01-10.47,6.07-16.8,6.45-6.71.4-13.4,1.18-20.11,1.71-8.19.65-16,2.48-23.41,6.21-4.47,2.25-9.31,3.74-13.92,5.71-1.88.81-3.6,1.98-5.38,3.02-.48.28-1.12.58-1.31,1.03-1.68,4.07-5.42,6.52-7.8,10.03-.97,1.44-2.04,2.81-3.57,4.9,2.85-1.76,5.03-3.24,7.32-4.5,6.15-3.37,12.37-6.62,18.54-9.96,1.47-.8,3.04-1.55,4.27-2.65,2.69-2.4,5.23-2.88,7.91-.45,3.18,2.88,7.01,3.64,10.93,4.12,7.61.93,15.25,1.68,22.89,2.32,2.5.21,5.07-.37,7.56-.14,3.15.28,6.53.42,9.33,1.68,7.04,3.19,14.08,2.88,21.14.86,12.01-3.44,22.02-10.06,30.14-19.63,2.46-2.9,5.48-5.34,8.25-7.97.68-.64,1.45-1.19,2.08-1.88,2.94-3.23,5.9-3.69,9.65-1.48,1.03.61,2.07,1.21,2.81,1.64,2.14-2.03,3.83-4.28,6.07-5.58,2.15-1.25,4.87-1.51,7.33-2.21,1.29,3.73,2.63,7.35,7.1,8.74,3.2.99,6.22,2.55,9.31,3.87,3.69,1.56,4.44,4.5,2.41,7.92-2.8,4.73-5.32,9.63-8.01,14.43-.44.8-1.11,1.47-1.59,2.09,3.01,4.51,7.82,6.44,12.02,9.29,5.42,3.68,9.37,8.84,8.67,16.14-.25,2.61-.4,5.24-.74,7.84-.28,2.13-.58,4.34-3.12,5.2-.39.13-.8.59-.95.99-1.12,2.98-3.1,4.85-5.99,4.85.68,2.01,1.23,3.86,1.92,5.66.66,1.74,1.6,3.39,2.14,5.16.48,1.56,1.11,3.37.73,4.83-.57,2.18-1.73,4.08-.23,6.38.18.27-1.36,1.66-2.5,3,.07,2.16-1.68,4.1-4.55,3.3-3.27-.92-6.58-2.28-9.39-4.18-12.26-8.26-24.38-16.71-36.46-25.23-4.35-3.07-8.33-6.64-12.63-9.78-6.39-4.68-12.07-10.46-19.63-13.37-2.17-.84-4.67-.83-7.03-1.18-2.31-.34-4.67-.46-6.94-.97-6.75-1.51-13.49-3.07-20.18-4.82-2.23-.58-4.47-1.54-6.39-2.81-7.18-4.74-14.89-7.84-23.58-7.9-3.87-.03-7.35-1.02-10.56-3.09-2.96-1.91-5.65-1.38-8.67.24-4.69,2.51-9.85,4.17-14.45,6.81-7.95,4.57-15.67,9.55-23.38,14.53-2.59,1.67-5.9,2.16-7.69,5.25-2.53,4.4-5.19,8.72-9.39,11.82-.53.39-.46,1.59-.83,3.03,6.3-2.69,12.07-4.86,17.57-7.58,4.71-2.33,9.34-3.64,14.75-3.83,15.73-.54,31.42-1.98,47.15-2.8,9.64-.5,19.3-.7,28.95-.66,3.6.01,6.87,1.46,9.96,3.82,6.24,4.77,13.51,5.8,21.23,4.32,1.47-.28,3.49.08,4.68.95,9.98,7.28,19.82,14.75,29.73,22.13,1.42,1.06,2.99,1.94,4.43,2.98.83.6,2.01,1.21,2.25,2.04.97,3.38,3.95,4.64,6.4,6.4,5.17,3.7,10.43,7.28,15.68,10.87,2.53,1.73,3.61,5.46,2.09,8.12-1.17,2.04-2.99,2.08-4.8.86-1.72-1.16-3.03-1.93-3.85.99-.17.62-2.44,1.4-3.17,1.01-5.42-2.87-11.08-5.31-15.03-10.49-2.92-3.84-6.89-6.86-10-10.57-5.04-6.01-12.14-8.37-18.76-11.82-6.59-3.43-12.62-8.04-18.55-12.57-3.9-2.98-7.64-5.32-12.8-5.54-10.94-.46-21.85-1.53-32.79-2.15-6.26-.36-12.54-.38-18.82-.46-12.16-.16-24.32-.27-36.48-.39-.36,0-.9-.09-1.06.1-4.15,5.05-10.6,5.44-16.02,7.87-8.3,3.71-16.72,7.11-25.09,10.61-4.66,1.94-9.5,3.49-13.98,5.77-8.66,4.4-17.37,8.81-25.6,13.95-7.87,4.92-15.04,10.95-22.74,16.15-5.41,3.65-11.11,6.92-16.88,9.96-2.05,1.08-4.72,1.2-7.12,1.3-.84.03-2.3-1.24-2.45-2.09-.14-.81.86-2.14,1.71-2.75,2.41-1.72,5-3.18,7.73-4.88-.76-1.01-1.3-1.73-1.98-2.65,1.81-2.19,1.38-4.5.2-7.06-3.09-6.7-5.96-13.51-8.91-20.28-.26-.6-.52-1.22-.66-1.85-1.62-7.15-5.59-13.2-9.09-19.47-1.82-3.26-3.08-7.03-5.53-9.72-6.58-7.23-9.26-16.54-14.1-24.67-.95-1.6-2.46-3.05-4.02-4.1-9.01-6.02-14.52-14.37-16.92-24.85-.84-3.65-1.52-7.33-2.51-10.94-2.06-7.49-1.18-14.85.59-22.23,2.46-10.27,6.61-19.74,11.8-28.99,5.8-10.33,10.25-21.43,15.3-32.18,3.51-7.49,6.98-15,10.59-22.44,1-2.07,2.43-3.94,3.5-5.66,5.71,3.81,11.4,7.33,16.78,11.26,6.74,4.93,14.39,8.74,19.37,15.92,2.14,3.09,3.56,6.35,3.16,9.95-1.09,9.7.94,19.21,1.21,28.82.08,2.9-.13,5.8-.13,8.71.01,9.79,3.68,18.42,8.41,26.74,1.05,1.85,1.86,3.88,2.46,5.93,1.65,5.63,3.51,11.24,4.56,16.99.82,4.46.52,9.13.75,13.7.1,1.96.68,3.99.32,5.85-1.27,6.58-2.54,13.2-4.4,19.64-3.36,11.69-7.11,23.28-10.78,34.88-.79,2.49-2.03,4.83-2.9,7.3-2.17,6.16-4.26,12.35-6.31,18.55-.18.55.18,1.29.3,1.93.26-.01.53-.02.79-.04-.62.65-1.25,1.29-1.87,1.94.15.19.31.37.46.56,2.42-1.85,4.7-3.9,7.27-5.49,6.35-3.96,13.03-7.41,19.22-11.61,8.87-6.01,18.83-9.83,28.2-14.82,2.29-1.22,5.01-1.66,7.27-2.93,2.55-1.43,4.98-3.2,7.13-5.19,2.37-2.19,2.77-5,2.01-8.26-.54-2.29-.11-4.81-.1-7.22.03-9.92-2.75-18.7-9.47-26.32-4.57-5.18-8.68-10.82-12.49-16.59-2.86-4.34-4.79-9.29-7.36-13.85-5.89-10.44-12.08-20.71-17.84-31.22-4.92-8.99-7.88-18.55-6.86-29.04.29-2.95-.1-5.97-.17-8.96-.03-1.4-.24-2.83-.06-4.2,1.03-7.89,2.17-15.76,3.24-23.64.64-4.67,1.23-9.35,1.96-14.93,5.05,3.09,9.26,5.6,13.41,8.22,3.21,2.03,6.62,3.88,9.45,6.37,6.64,5.85,15.04,8.2,22.65,12.14,7.46,3.87,14.84,7.91,22.1,12.13,3.65,2.12,4.9,6.19,5.91,9.94,3.75,13.87,6.33,27.99,6.84,42.37.29,8.37-1.63,16.51-4.12,24.52-3.42,10.99-6.51,22.09-9.9,33.09-1.66,5.44-3.71,10.77-5.57,16.15-.17.5-.18,1.05-.28,1.66,1.63-1.71,3.31-3.17,4.63-4.9,2.77-3.62,5.27-7.45,8.06-11.05,1.83-2.36,3.86-4.58,5.99-6.67,7.52-7.33,14.71-14.96,21.12-23.29,6.71-8.73,13.53-17.38,20.11-26.2,2.93-3.93,5.4-8.21,8.11-12.31.35-.53.81-1.21,1.36-1.37,3.38-1,3.79-4.05,4.88-6.69,1.24-3.01,2.87-5.87,3.89-8.95,2.21-6.64,4.78-13.27,5.96-20.12.87-5.04-.27-10.41-.41-15.64-.04-1.57.1-3.18.43-4.71.63-2.92,1.23-5.69.47-8.81-1.05-4.34,1.51-7.16,5.83-8.07,2.14-.45,4.24-1.67,6.04-2.98,1.94-1.41,5.63-1.33,8.06.68.78.65,1.52,1.58,2.43,1.81,5.17,1.32,6.39,5.17,6.57,9.77.05.61.16,1.21.3,2.29Z"/>
      </g>
      <g class="cls-5">
        <g>
          <path class="cls-3" d="M622.56,474.73c-3.09-1.78-6.18-3.54-9.26-5.33-2.85-1.66-5.71-3.3-8.51-5.04-2.02-1.25-3.91-2.71-5.94-3.96-4.91-3.01-11.18-13.64-7.22-21.43,1.77-3.47,3.86-6.78,5.75-10.19.62-1.13,1.25-2.31,1.52-3.55,1.65-7.45,5.83-13.38,11.33-18.38,3.19-2.9,7.35-2.23,10.77-.87,5.7,2.28,11.06,5.39,16.78,8.26.23-4.52.28-9.4.79-14.23.56-5.32.33-10.88,4.05-15.45,3.82-4.7,6.97-5.34,12.4-2.87,6.06,2.75,12.36,4.98,18.46,7.66,1.36.6,2.51,1.99,3.41,3.26,2.55,3.59,5.03,7.22,2.58,12.02-.84,1.66-1.14,3.64-1.45,5.52-.17,1.04-.21,2.38.3,3.19,2.22,3.47,3.59,7.06,2.51,11.42,6.02-5.27,13.02-6.06,20.38-6.32,3.51-.12,7.11-1.3,10.44-2.58,5.45-2.1,10.92-3.38,16.75-2.5,1.17.18,2.67.36,3.36,1.13,2.34,2.6,4.83,1.51,7.38.76,1.71-.5,3.41-1.03,5.36-1.63-.63-1.54-1.13-2.82-1.68-4.08-1.92-4.35-1.86-8.72-.6-13.25.61-2.17.09-4.69.86-6.76,2.02-5.41,4.44-10.67,6.79-15.95.28-.62,1.09-1.28,1.75-1.42,4.15-.84,8.13-1.01,12.4.49,5.44,1.9,11.25,2.81,16.95,3.88,3.14.59,6.37.77,9.57.9,4.81.2,8.07,3.47,8.68,8.18.83,6.32,2.07,12.59,3.18,18.87.11.63.5,1.2,1.37,1.67-.36-4.23-1.08-8.47-.99-12.68.13-6.08.74-12.18,3.64-17.72.53-1.01,1.55-1.81,2.45-2.58.68-.58,1.72-.8,2.26-1.46,4.78-5.85,11.51-5.3,17.99-5.64,2.6-.14,5.23-.15,7.79-.54,4.37-.68,7.59.72,10.52,4.09,2.38,2.74,5.77,4.6,8.27,7.26,3.04,3.23,8.29,4.61,8.31,10.56.01,2.51,1.82,4.99,2.69,7.52.22.65.27,1.88-.09,2.12-3.22,2.16-3.26,5.78-4.34,8.93-1.57,4.59-4.75,7.73-8.57,10.74-5.41,4.27-11.58,6.48-18.03,8.36.04.29.09.58.13.87,1.79-.15,3.62-.15,5.38-.48,10.01-1.88,19.56.49,29.02,3.24,5.89,1.71,9.67,6.65,13.98,10.54,2.7,2.44,3.54,10.23.69,13.65-1.18,1.42-1.76,3.35-2.53,5.08-1.99,4.48-3.88,9-5.95,13.44-.39.85-1.32,1.48-2.1,2.1-2.67,2.12-5.22,4.46-8.15,6.15-1.54.88-4.03,1.27-5.64.67-5.29-1.97-10.46-4.33-15.51-6.87-3.36-1.69-6.4-4-9.65-5.91-1.12-.66-2.46-.95-3.92-.87,3.61,2.73,7.41,5.24,10.77,8.26,3.6,3.23,7.75,6.3,8.29,11.69.36,3.63.91,7.38.36,10.92-.43,2.79-2.02,5.64-3.79,7.92-1.83,2.35-4.48,3.91-7.88,3.69-1.54-.1-3.12.66-4.7.94-3.81.69-7.62,1.39-11.44,1.97-1.87.28-3.78.37-5.67.41-2.74.07-5.36.04-7.02-2.93-.54-.96-2.18-1.49-3.42-1.85-3.6-1.07-7.72-1.16-9.88-4.91-1.06-1.84-1.86-3.91-2.33-5.98-1.67-7.45,1.54-14.33,2.76-21.45.07-.44.19-.86.05-1.38-3.18,10.39-9.8,18.89-14.53,27.91-3.83-.38-7.14-.39-10.29-1.13-2.75-.64-5.81-1.53-7.86-3.32-6.52-5.71-14.97-7.61-22.06-12-3.93-2.43-6.9-6.48-10.09-10-.65-.72-.55-2.35-.41-3.52,1.22-9.73,2.58-19.4,11.17-26.04,1.37-1.06,2.41-2.76,3.12-4.37.91-2.06,2.29-2.55,4.3-2.36,5.1.47,10.2.98,15.31,1.28,1.94.12,3.91-.29,5.86-.45.02-.3.04-.59.06-.89-2.01-.41-4.05-.74-6.04-1.24-5.43-1.37-10.9-2.61-16.21-4.35-1.33-.44-2.62-2.42-3.02-3.94-.65-2.48-.56-5.15-.81-8.12-1.28,0-2.43-.09-3.56.02-2,.19-4.06.96-5.97.66-4.28-.67-6.62,1.35-8.65,4.72-3.56,5.9-7.37,11.64-11.07,17.45-1.17,1.83-1.07,3.26.6,5.02,1.26,1.33,2.04,3.45,2.3,5.31.84,6.15,1.48,12.34,1.9,18.53.12,1.81-.48,3.8-1.21,5.5-1.27,2.94-2.82,5.77-4.42,8.55-1.26,2.19-2.38,4.18-2.06,6.99.12,1.03-2.06,3.16-3.42,3.37-3.89.62-7.9.51-12.44.72-.75,4.19-2.14,9.08-1.14,14.22.31,1.57.79,3.12,1.25,4.66,1.86,6.24-1.69,11.14-4.12,16.28-.36.76-1.7.98-2.42,1.65-2.85,2.65-5.7,5.32-8.42,8.1-3,3.06-5.62,6.54-10.72,6.05-2.57-.25-4.58.74-5.3,3.74-.53,2.21-3.06,2.95-5.49,1.31-3.57-2.4-7.37-4.84-9.98-8.13-1.9-2.39-2.03-6.18-2.98-9.34-.44-1.47-.97-2.91-1.46-4.36-1.59.93-3.53,1.55-4.71,2.85-3.89,4.3-5.49,4.38-10.31,1.11-2.64-1.8-5.73-3.29-8.83-3.99-5.8-1.31-8.95-5.8-12.85-9.46-5.21-4.88-5.92-10.12-2.29-16.41,2.77-4.81,3.05-10.32,2.96-15.89-.06-3.69.7-7.47,1.62-11.08.63-2.48,2.91-3.37,5.51-3.24,1.25.06,2.51-.18,3.76-.29.2-.47.33-.92.46-1.37ZM660.69,442.41c1.98,2.64,3.68,4.85,5.29,7.12.36.5.72,1.33.53,1.79-.2.49-1.1,1.08-1.59,1-1.36-.22-2.74-.61-3.99-1.2-3.67-1.72-7.27-3.57-10.9-5.36-.14.23-.28.46-.42.69,1.36.85,2.67,1.8,4.09,2.51,2.16,1.06,4.55,1.72,6.55,2.99,1.27.81,2.04,2.42,3.47,4.23-7.13-.29-7.27-.28-7.46.51.98.03,1.93.06,2.88.09.15.27.29.54.44.8-1.09.77-2.18,1.55-3.97,2.82,2.13.22,3.7.13,5.08.6,1.16.39,2.44,1.25,2.99,2.27.32.59-.51,2.1-1.2,2.84-.85.92-2.1,1.47-3.14,2.16.49,1.16.92,2.2,1.36,3.24.61-.36,1.22-.71,1.83-1.07.23.16.46.32.69.48-1.28,5.11-4.39,9.4-7.44,14.38,2.73-1,2.85.53,2.98,2.3,1.35-2.33,2.41-4.56,3.34-6.84,1.06-2.6,1.87-5.3,3.07-7.83.37-.78,1.66-1.6,2.49-1.55.82.05,1.73,1.04,2.32,1.83.65.86.97,1.97,1.44,2.97,1.41-2.07,2.46-4.02,2.58-6.03.23-3.81,3.68-1.29,4.35-2.11-.49-5.73-.91-10.77-1.33-15.68-6.59-.95-9.74-7.48-16.33-9.95ZM805.75,451.21c3.11-1.12,5.92-2.47,8.88-3.11,3.9-.83,4.71-1.47,3.01-5.02-1.06-2.22-2.93-5.05-4.94-5.54-1.88-.46-3.92-.42-5.71-1.57-.37-.23-1.16-.36-1.41-.14-2.87,2.48-5.69.32-8.51-.01-2.49-.29-4.98-.61-7.47-.92-.09.37-.17.74-.26,1.11,4.77,1.88,9.53,3.75,14.3,5.63.03.39.06.78.09,1.17-1.25.47-2.46,1.17-3.75,1.34-1.36.18-2.79-.16-4.2-.25-1.37-.09-2.74-.15-4.11-.22-.02.33-.03.65-.05.98,4,.74,8,1.48,12,2.22-.03.33-.06.65-.09.98-5.6-.33-9.21,3.46-13.52,5.85,4.24-.77,8.41-1.65,12.35-3.14,1.81-.69,2.87-1.08,3.39.64Z"/>
          <path class="cls-3" d="M703.33,370.39c3.78-7.34,7.34-14.56,11.21-21.61,1.57-2.87,3.67-5.51,5.85-7.97.93-1.05,2.63-1.7,4.09-1.96,7.76-1.39,15.52-2.92,23.34-3.74,4.48-.47,9.1.33,13.65.57,1.37.07,2.75.13,4.11.31,1.26.17,2.66.22,3.73.81,3.12,1.73,4.04,3.59,1.77,6.74-3.54,4.91-8.67,7.84-13.03,11.71-2.12,1.89-4.3,3.78-6.69,5.28-5.37,3.38-11.4,3.57-17.55,3.31-6.51-.27-13.04-.32-19.55-.25-2.96.03-5.58,4.33-4.97,7.23.24,1.14-.38,2.43-.39,3.66-.01,1.06-.08,2.46.52,3.12,4.63,5.11,11.79,14.11,16.34,19.28,3.27,3.71,12.64,10.27,17.06,12.19,1.57.68,3.64,1.18,2.69,3.62-.81,2.1-3.09,2.72-5.33,1.41-4.66-2.73-9.06-5.97-13.91-8.27-3.75-1.78-7.27-3.68-9.72-6.96-2.39-3.2-4.11-6.89-6.43-10.14-2.5-3.5-5.32-6.77-8.06-10.09-1.28-1.55-2.77-2.94-4.07-4.49-5.78-6.9-11.4-13.94-17.35-20.69-2.52-2.86-5.93-4.43-10-4.36-4.22.08-8.12-1.04-11.6-3.65-4.09-3.07-8.35-5.93-12.54-8.86-4.86-3.4-9.35-7.03-12.15-12.55-3.9-7.68-8.47-15.03-12.32-22.73-3.48-6.96-1.87-14.18.1-21.26.29-1.06.64-2.1,1.01-3.14.95-2.7,2.5-3.34,5.27-3.13,10.39.77,17.02,8.01,24.02,14.23,4.62,4.1,7.95,9.61,12.12,14.26,3.46,3.86,4.76,8.54,6.34,13.25.74,2.21,2.62,4.01,3.84,6.08,2.45,4.15,4.86,8.32,7.14,12.56.68,1.27.83,2.81,1.31,4.19.81,2.35,1.57,4.57.66,7.21-.71,2.04-.07,4.08,1.78,5.7,7.14,6.26,5.73,5.05,11.31,12.75,1.72,2.4,4.23,4.26,6.4,6.38Z"/>
        </g>
      </g>
      <g class="cls-4">
        <g>
          <path class="cls-3" d="M971.95-25.44c.86,1.22,1.6,2.33,2.41,3.4,1.57,2.09,3.03,4.28,4.8,6.2,6.05,6.56,12.33,12.9,18.31,19.53,8.98,9.95,18.39,19.41,29.08,27.56,3.73,2.84,6.36,6.64,8.4,10.87,1.92,3.99-.17,7.79-.4,11.68-.02.29-.47.72-.79.81-3.42.9-6.85,1.75-10.28,2.6-.15.04-.33-.04-.48,0-3.95,1.07-7.89,2.21-11.85,3.22-4.6,1.17-9.2,2.34-13.84,3.31-5.04,1.06-10.15,1.84-15.2,2.85-6.33,1.26-12.59,3.04-18.98,3.85-7.15.91-14.4,1.12-21.62,1.41-4.02.16-8.1.16-12.09-.32-4.32-.53-8.59-1.61-11.91-4.82-.23-.22-.42-.55-.69-.65-5.67-2.04-8.22-7.68-12.76-11.07-3.08-2.31-5.55-5.45-8.22-8.28-6.59-7.01-13.46-13.67-21.69-18.81-4.02-2.51-7.42-6.06-12.36-7-5.47-1.05-10.89-2.49-16.4-3.24-4.06-.55-8.23-.25-12.35-.35-5.19-.13-10.31-.4-15.46-1.53-3.62-.79-7.61-.13-11.41.19-3.33.28-5.73-1.73-5.48-5.18.1-1.41.35-2.85.78-4.19.21-.64.93-1.39,1.57-1.58,5.12-1.55,10.16-3.7,15.64-3.48,6.29.24,11.8-2.31,17.41-4.5,11.55-4.5,22.98-9.35,34.66-13.52,7.51-2.68,14.46-6.23,21.15-10.44,4.24-2.67,8.92-3.69,13.85-4.01,1.06-.07,2.05-1.02,3.11-1.5.61-.28,1.27-.58,1.91-.6,6.9-.2,13.8-.42,20.7-.47,7.24-.05,14.45.01,21.48,2.39,5.01,1.7,10.25,2.71,15.37,4.12,1.25.33,2.43,1.02,3.63,1.55Z"/>
          <path class="cls-3" d="M753.08,72.91c-2.94-3.87-4.54-8.58-3.9-13.62.28-2.18.98-4.33,1.69-6.43,3.26-9.56-5.75-22.57-16.33-18.44-2.37.92-5.08,1.05-7.66,1.36-5.37.64-10.76,1.13-16.13,1.79-.67.08-1.23.89-1.86,1.33-2.04,1.41-4.1,2.81-6.15,4.22.11-1.29.52-2.34,1.24-2.64,2.92-1.21,3.04-3.73,3.52-6.29.63-3.34,1.11-6.86,2.59-9.85,1.89-3.81,1.49-6.46-2.56-9.09-5.2-3.38-8.07-8.36-11.44-13.05-2.69-3.74-10.25-7.49-14.77-6.79-.3.05-.61.08-.88.2-2.9,1.15-5.87,2.17-8.67,3.54-1.78.86-3.38,2.15-4.92,3.41-2.39,1.95-4.58,4.14-6.99,6.05-3.68,2.93-7.81,5.38-11.11,8.68-1.99,1.99-3.86,5.19-3.89,7.87-.1,8.71.73,17.42,3.86,25.72.68,1.82.94,3.8,1.55,6.32-1.14-.55-1.66-.65-1.97-.97-5.01-5.18-10.15-10.25-14.94-15.63-3.16-3.54-5.74-7.69-11.44-6.75-1.91.31-3.81.98-5.7.96-4.7-.05-8.6,1.56-12.58,4.07-6.83,4.31-13.69,8.27-14.87,17.3-.03.19-.13.38-.23.56-3.17,5.85-4.05,12.29-4.86,18.76-.3,2.35-.09,4.65,1.95,6,4.65,3.07,9.24,6.41,14.29,8.67,5.47,2.44,11.41,3.83,17.19,5.55,6.59,1.96,13.22,3.77,19.91,5.66-1.08.31-2.44.88-3.85,1.05-4.29.53-8.65,1.55-12.89,1.19-4.91-.41-8.73,2.29-8.55,7.31.04,1.2-.03,2.41-.04,3.61-.04,5.43.36,10.91-1.87,16.07-2.5,5.76-4.21,11.67-4.42,18.03-.1,3.06.84,5.62,3.19,7.06,7.38,4.54,14.73,9.18,23.38,11.18,4.66,1.08,8.79,3.4,12.17,6.87,3.89,3.99,9.02,4.22,12.28-.23,2.94-4.02,5.28-8.59,7.23-13.2,2.47-5.83,4.27-11.94,6.38-17.93.54-1.52,1.16-3.01,1.75-4.52.9,3.96,1.33,7.75,1.52,11.55.33,6.27,6.1,11.48,13.15,8.98,3.6-1.28,7.14-2.74,10.76-3.93,7.64-2.5,15.4-4.41,23.47-5,2.33-.17,4.6-.88,6.05-3.37.9-1.55,2.77-2.55,4.24-3.75,5.94-4.87,11.92-9.7,9.76-18.78-.21-.87-.17-1.85-.55-2.62-.79-1.62-1.43-3.62-2.77-4.62-5.43-4.07-11.09-7.82-16.75-11.74.5-.03,1.13-.15,1.74-.11,4.55.33,9.1.69,13.65,1.04.99.08,1.99.14,2.98.2,3.33.2,6.67.46,10,.55.51.01,1.36-.69,1.5-1.21,1-3.76,2.04-7.53,2.72-11.36.7-3.96,1.07-7.98,1.46-11.99.29-3.04.59-5.87-1.63-8.8ZM703.75,100.64c-5.08-2.93-9.47-5.92-14.64-7.06-.15.24-.31.47-.46.71.38.6.75,1.2,1.13,1.8-1.03.47-2.07.94-3.22,1.46-.72-1.03-1.31-2.26-2.25-3.09-.76-.67-2.3-1.46-2.88-1.13-1.01.58-1.83,1.89-2.19,3.07-.43,1.4-.3,2.97-.46,5.12-1.33-1.77-2.14-2.84-2.94-3.91-.26.15-.53.31-.79.46,0,.95-.01,1.9-.01,2.89-.8-.17-.81-.31-.72-7.47-1.78,1.49-3.38,2.3-4.15,3.6-1.22,2.05-1.81,4.47-2.82,6.66-.67,1.45-1.59,2.79-2.4,4.18-.23-.14-.47-.27-.7-.41,1.7-3.69,3.45-7.36,5.08-11.09.55-1.27.91-2.67,1.09-4.04.07-.5-.55-1.38-1.04-1.57-.47-.17-1.29.21-1.78.58-2.23,1.68-4.4,3.45-6.99,5.51,2.3-6.69,8.76-10.03,9.52-16.66,4.91-.55,9.96-1.12,15.7-1.77.84.65-1.59,4.19,2.24,4.31,2.02.06,4.01,1.07,6.13,2.42-.99.49-2.09.85-2.94,1.52-.78.61-1.75,1.56-1.78,2.38-.02.83.84,2.1,1.63,2.45,2.57,1.13,5.31,1.87,7.94,2.86,2.32.87,4.59,1.86,6.96,3.16-1.81.18-3.35.35-2.26,3.06Z"/>
          <path class="cls-3" d="M889.33-59.84c-4.8,10.58-11.98,19.03-20.5,27.1-9.29,8.8-20.9,10.8-31.79,15.02-3.19,1.23-7.37.19-11.04-.23-2.13-.24-5.2,1.67-6.33,4.66-3.25,8.65-7.25,16.82-13.07,24.16-5.06,6.38-9.26,13.44-13.85,20.19-2.09,3.07-3.84,5.78-8.74,5.34-3.22-.29-7.12,1.75-10,3.76-9.9,6.92-19.42,14.36-29.22,21.42-2.21,1.59-4.87,2.78-7.51,3.43-.93.23-2.75-1.45-3.55-2.66-1.54-2.33-.33-5.83,2.03-7.4,11.48-7.64,22.87-15.43,34.46-22.91,3.26-2.1,7-3.62,10.71-4.82,4-1.29,6.82-3.73,9.09-7.06,4.18-6.12,8.04-12.49,12.61-18.3,5.31-6.74,8.9-14.23,12.17-22.07,1.76-4.23,5.04-7.84,7.76-11.64,1.46-2.03,3.41-3.72,4.75-5.82,6.27-9.86,12.29-19.87,18.61-29.69,4.34-6.74,9.61-12.86,16.44-17.08,3.36-2.08,7.62-3.05,11.61-3.66,4.73-.72,9.61-.72,14.41-.61,1.85.04,3.72,1.17,5.49,1.98.38.17.54,1.16.53,1.77-.02,1.75-.45,3.53-.24,5.24.66,5.16.03,10.05-2.32,14.71-.86,1.71-1.67,3.45-2.51,5.17Z"/>
          <path class="cls-3" d="M782.28,60.01c2.27,3.77,3.71,7.95,7.69,10.76,2.46,1.74,4.76,4.26,6.11,6.95,3.9,7.74,10,12.07,18.34,13.77,2.35.48,4.65,1.35,6.85,2.31,2.88,1.24,4.84,3.34,5.9,6.46.89,2.63,1.96,5.41,3.72,7.48,4.18,4.93,5.76,10.83,7.05,16.85,1.6,7.46,2.72,15.02,4.38,22.46,1.44,6.44,3.37,12.78,5.06,19.17,2.58,9.8,5.17,19.6,7.67,29.42.19.74-.03,1.83-.49,2.4-.26.32-1.42-.09-2.18-.19-.09-.01-.17-.13-.26-.14-8.35-.74-12.94-7.81-19.51-11.54-6.21-3.53-12.59-6.77-18.92-10.09-4.81-2.52-9.54-5.23-14.52-7.35-3.95-1.69-8.24-2.59-12.35-3.9-5.35-1.7-9.32-4.96-11.7-10.17-1.74-3.8-4.37-7.29-5.51-11.23-1.17-4.07-1.05-8.51-1.39-12.8-.16-2-.11-4.03-.05-6.04.07-2.4.22-4.8.42-7.19.21-2.6.36-5.22.82-7.78.42-2.33,1.15-4.61,1.88-6.87,1.98-6.12,4.27-12.15,5.93-18.35.67-2.5.47-5.48-.15-8.04-2.64-10.94-5.55-21.81-8.46-32.68-.57-2.14,1.01-4.52,3.95-5.42,2.86-.87,4.01-.25,4.52,2.58.34,1.88.57,3.78.81,5.68.4,3.23,1.33,3.88,4.56,3.66,1.66-.12,3.53-.17,5.01.46,11.16,4.76,20.47,1.87,28.39-6.68,2.52-2.72,4.7-5.78,6.88-8.79,1.85-2.56,3.39-5.35,5.24-7.9.74-1.01,1.86-1.92,3.01-2.41.99-.41,2.6-.6,3.31-.07.72.55.87,2.1.93,3.23.35,6.58.24,13.21,1,19.74.55,4.7.74,9.2-.74,13.71-1.14,3.48-3.54,5.47-7.11,6.22-1.37.29-2.75.69-4,1.3-5.04,2.43-10.41,3.39-15.89,2.87-2.25-.22-4.42-1.6-6.55-2.62-1.97-.95-3.75-2.81-5.76-3.06-4.44-.56-7.95-2.61-11.27-5.31-.61-.49-1.28-.91-1.93-1.36-.24.15-.46.33-.69.5Z"/>
        </g>
      </g>
      <g class="cls-8">
        <path class="cls-3" d="M714.87,234.55c.11-4.81-1.4-9.17-5.22-12.45-2.4-2.06-4.31-8.4-3.3-11.86,1.65-5.62,2.99-11.34,4.86-16.89.69-2.04,2.16-4.14,3.85-5.45,3.38-2.62,7.19-4.69,10.78-7.06.82-.54,1.41-1.41,2.16-2.07,1.3-1.14,2.51-2.48,4-3.29,1.75-.95,3.65-1.14,5.24.7,4.72,5.45,9.5,10.85,14.26,16.27.47.54.95,1.07,1.77,1.99.51-1.12.83-1.91,1.23-2.66.8-1.54,1.61-3.08,2.47-4.58,1.32-2.3,2.89-4.48,4-6.87,1.97-4.22,6.23-6.24,10.56-4.72,2.24.79,4.42,1.81,6.72,2.32,2.29.51,2.66,1.82,2.53,3.79-.16,2.38-.43,4.79-.17,7.13.18,1.59,1.29,3.06,1.76,4.65.33,1.11.41,2.33.35,3.5-.4,8.8-1.06,17.6-1.23,26.4-.09,4.76,1.64,9.27,4.27,13.21,3.35,5.03,6.59,10.25,10.72,14.6,3.07,3.23,7.31,5.49,11.31,7.66,5.26,2.85,9.56,6.72,12.52,11.73,2.34,3.97,3.75,8.49,5.46,12.81,1.03,2.61,1.45,5.35,4.46,6.89,2.16,1.11.38,6.36-2.63,7.67-1.4.61-3.01.81-4.54,1.02-14.42,1.99-26.4-3.74-37.68-11.86-6.39-4.6-13.21-8.64-19.33-13.55-9.6-7.7-19.55-4.96-29.77-2.17-3.76,1.03-7.73,1.27-11.6,1.9-2.89.47-5.79,1.5-8.64,1.37-3.57-.17-7.1-1.21-10.63-2.01-2.23-.51-4.43-1.17-6.6-1.91-6.11-2.08-9.06-7.51-12.74-12.17-.5-.63-.94-1.34-1.56-1.84-.77-.62-2.48-1.24-2.41-1.56.37-1.74.72-3.89,1.92-4.97,2.55-2.28,5.33-4.2,6.3-7.74.13-.48.65-.89,1.06-1.25,2.04-1.78,4.05-3.62,6.21-5.26.82-.63,1.99-1.07,3.03-1.11,4.67-.17,9.32-.21,14.25-.31Z"/>
      </g>
      <g class="cls-6">
        <g>
          <g>
            <path class="cls-3" d="M91.88,234.5c-1.06,2.75-2.22,5.91-3.51,9.03-.68,1.64-1.22,2.81,1,3.94,2.06,1.05,2.57,2.84,1.18,5.3-1.71,3.03-3.89,4.61-7.31,5.43-14.73,3.54-29.11,1.46-43.24-2.75-4.08-1.22-7.61-4.35-11.3-6.75-.71-.46-1.46-1.64-1.38-2.4.56-5.09-3.14-7.86-5.88-11.07-3.25-3.82-3.97-8.46-4.67-13.1-.14-.9.93-2.05,1.59-2.98,2.92-4.08,5.9-8.11,8.89-12.21-1.55-1.61-2.64-1.29-3.98.07-4.49,4.55-10.65,4.77-16.39,1.68-4.54-2.44-6.45-6.15-8.14-10.68-1.92-5.12-4.84-9.85-7.25-14.79-1.59-3.26-.76-5.22,2.33-7.25,2.34-1.53,4.29-3.64,6.65-5.13,2.06-1.3,4.36-2.3,6.69-3.03,3.5-1.1,7.25-1.49,10.63-2.83,4.9-1.95,9.8-2.94,15.04-2.32,1.04.12,2.11.02,3.59-.65-1.05-.75-2.08-1.54-3.16-2.24-3.7-2.39-3.6-8.98-.07-11.67,2.16-1.64,4.17-3.67,5.69-5.9,3.09-4.53,5.05-9.83,9.71-13.23,3.98-2.91,7.85-5.96,13.25-5.46.64.06,1.47-.35,2-.79,3.63-3.04,8.09-2.96,11.84.01,3.3,2.61,6.76,5.01,10.21,7.43.53.37,1.5.65,2.03.42,6.39-2.81,12.81-5.61,17.19-11.43.81-1.07,1.48-2.26,2.11-3.45,3.48-6.54,6.9-13.1,10.43-19.61.43-.79,1.3-1.46,2.12-1.89,3.38-1.75,7.05-3.06,10.18-5.17,2.51-1.69,4.57-4.15,6.53-6.52,6.26-7.61,12.5-15.25,18.53-23.05,6.6-8.54,15.53-13.25,25.39-17.04,8.74-3.36,17.35-7.32,25.42-12.04,4.44-2.6,8.28-6.87,11.25-11.18,7.1-10.3,15.99-18.9,24.62-27.78,9.73-10,19.25-20.2,29.11-30.07,2.82-2.82,6.34-5.05,9.84-7.01,1.24-.69,3.51-.14,5.06.49,2.05.82,1.9,2.3.31,3.83-6.68,6.44-13.36,12.89-19.94,19.43-9.82,9.77-19.62,19.55-29.29,29.47-2.96,3.04-5.47,6.53-8.13,9.86-4.52,5.65-8.93,11.39-13.56,16.95-.98,1.18-2.61,1.98-4.1,2.55-4.96,1.89-10.07,3.41-14.98,5.4-7.27,2.94-14.44,6.11-21.61,9.29-1.56.69-3.24,1.54-4.34,2.78-6.28,7.09-12.37,14.34-18.6,21.48-3.61,4.14-7.41,8.12-11.05,12.24-1.9,2.15-3.65,4.44-5.38,6.74-.29.38-.17,1.11-.14,1.68.26,4.15.69,8.3.79,12.45.13,5.15-2.42,9.42-5,13.62-.68,1.11-5.24,12.67-5.27,13.8-.13,4.8.12,9.63.48,14.43.07.9,1.07,2.12,1.95,2.52,9.16,4.15,18.34,8.3,27.63,12.17,4.46,1.86,9.52,2.75,12.51,6.91,1.97,2.75,3.28,6.01,4.6,9.17.69,1.66.62,3.63,1.15,5.38,1.24,4.04-1.11,7.16-2.94,10.11-1.58,2.54-4.32,4.33-6.44,6.56-.51.54-11.7.67-12.47.81-3.77.69-7.49,1.65-11.85,2.65,3.35,3.79,6,7.39,9.26,10.32,4.97,4.47,6.13,9.78,5.03,16.03-.4,2.28-.23,4.66-.72,6.91-.29,1.33-1.05,3.07-2.12,3.64-4.76,2.54-9.68,4.78-14.59,7.04-4.29,1.97-8.57,1.33-13.01.15-8.38-2.22-16.29-5.47-23.63-10.01-3.05-1.91-5.65-4.49-8.37-6.69ZM75.97,182.98c.76-1.14,1.35-2.04,1.94-2.94,3.82,6.08.63,12.35,1.51,18.45,1.24-6.47,2.47-12.93,3.82-20.01,1.44.76,3.26,1.34,4.56,2.51,1.43,1.29,2.37,3.12,3.52,4.71.01-2.25-.54-4.28-.98-6.33-.42-1.91.68-2.94,2.38-1.98,1.92,1.09,3.64,2.58,5.33,4.03,1.1.94,1.99,2.12,2.98,3.2-3.18-5.84-6.53-11.52-10.68-16.53-2.36-2.85-6.22-4.74-10.14-2.87-1.66.79-2.63,3.03-3.92,4.61,1.69-.39,2.88-1.59,4.31-2.04,1.15-.36,2.58.2,3.89.36-.13,1.14.15,2.9-.48,3.33-2.8,1.91-4.97,4.4-7.36,6.72-1.67,1.63-2,2.7-.68,4.78ZM73.73,170.98c-.14-.38-.29-.76-.43-1.14-2.19,1.11-4.37,2.23-6.56,3.34.13.28.25.56.38.84,2.2-1.01,4.41-2.03,6.61-3.04ZM58.27,187c.18.29.35.57.53.86,1.83-1.08,3.65-2.15,5.48-3.23-.26-.41-.51-.81-.77-1.22-1.75,1.2-3.5,2.4-5.24,3.59Z"/>
            <path class="cls-3" d="M78.04,98.5c-7.32-1.04-14.64-2.09-21.97-3.1-3.07-.42-6.04-2.08-9.28-.65-1.43.63-2.96,1.07-4.48,1.42-4.41.99-8.8,2.3-13.27,2.72-6.36.6-11.4,3.72-16.29,7.3-1.15.84-2.24,2.13-2.74,3.44-1.95,5.13-6.44,7.11-10.79,9.48-7.14,3.9-15.02,5.25-22.76,7.22-6.03,1.53-11.97,3.41-17.95,5.14-.18.05-.35.14-.52.2-1.86.66-4.13,2.32-5.49,1.76-3.08-1.26-6.08-3.26-8.42-5.63-2.84-2.88-4.74-6.69-7.48-9.69-3.8-4.15-7.92-8.01-12.07-11.82-6.47-5.93-12.77-11.94-15.27-20.78-1.29-4.56.24-8.05,3.62-11.2,4.54-4.23,8.88-8.67,13.21-13.12,3.69-3.79,7.22-7.73,10.87-11.55.63-.66,1.5-1.08,2.24-1.62,4.47-3.3,8.98-6.55,13.38-9.94.91-.7,1.61-1.83,2.11-2.9,3.52-7.58,8.24-14.38,14.31-20.01,2.36-2.19,6-3.12,9.17-4.32C-14.56,8.1-7.25,5.43.11,2.93,7.51.42,15.13-1.89,22.96-.51c5.6.99,10.96,3.34,16.41,5.14,2.82.93,5.65,1.85,8.38,3.01,11.61,4.92,23.19,9.91,34.76,14.91,1.27.55,2.42,1.38,3.65,2.02,5.52,2.84,10.96,5.88,16.61,8.42,8.95,4.03,18.05,7.73,27.1,11.55,6.23,2.63,12.49,5.2,18.72,7.85,2.54,1.08,5.65,1.73,7.35,3.61,1.57,1.73,2.17,4.86,2.14,7.36-.03,3.04-1.63,5.48-5.04,6.54-12.7,3.95-23.36,11.68-34.35,18.81-6.62,4.29-13.41,8.31-20.23,12.28-4.08,2.38-8.29,3.34-12.9.85-2.32-1.26-5.1-1.67-7.68-2.47.06-.3.11-.58.16-.87Z"/>
          </g>
          <path class="cls-3" d="M186.72,52.01c-8.23-.57-14.89,6.97-17.72,14.72s-3.29,16.28-6.73,23.78c-1.72,3.74-4.16,7.2-5.08,11.21-1.62,7.07,1.78,14.22,5.08,20.68,3.81,7.45,7.62,14.9,11.43,22.35,6.7,13.09,13.48,26.43,15.97,40.93,2.09,12.14,1.29,25.38,7.93,35.76,18.1-10.86,29.7-29.65,40.6-47.73,2.96-4.91,5.95-9.88,7.56-15.38,1.86-6.33,1.81-13.05,1.74-19.64-.21-20.7-1.31-43.63-15.81-58.41-4.47-4.56-10.47-8.96-10.52-15.35-.02-3.42,1.78-6.76,1.23-10.13-1.06-6.51-9.42-8.47-16.02-8.48-6.6-.02-14.74-.46-17.54-6.43-3.31,1.4-5.27,5.4-4.34,8.87"/>
        </g>
      </g>
    </g>
  </g>
</svg>