<svg width="274" height="240" viewBox="0 0 274 240" fill="none" xmlns="http://www.w3.org/2000/svg">
<path d="M267.897 81.5001L182.397 4.50012C177.097 -0.0998755 170.997 -0.999872 164.197 1.80013C157.797 5.00013 154.397 10.2001 154.097 17.3001V51.5001H94.1967C67.4967 52.2001 45.3967 61.5001 27.8967 79.3001C10.0967 96.8001 0.79668 118.8 0.0966797 145.6C0.19668 149.2 0.29668 152.6 0.59668 156C0.89668 159.7 1.39668 163.2 1.89668 166.6C3.79668 177.5 7.09668 187.1 11.7967 195.4C18.8967 208.6 26.7967 218.7 35.2967 225.9C43.7967 232.7 49.8967 236.9 53.4967 238.7C54.8967 239.4 56.3967 239.8 57.7967 239.8C63.1967 239.2 66.5967 236.5 67.9967 231.8C68.1967 231 68.3967 230.1 68.4967 229.1C68.1967 225.2 66.3967 221.8 63.1967 219C60.6967 216.5 58.1967 212.8 55.6967 207.8C53.1967 203.2 51.7967 196.8 51.3967 188.6C51.3967 186.5 51.5967 184.4 51.8967 182.3C53.3967 170.5 58.1967 160.5 66.3967 152.3C75.9967 142.7 88.0967 137.7 102.697 137.3H153.997V171.5C154.397 178.6 157.697 183.8 164.197 187C170.997 189.9 176.997 189 182.397 184.3L267.897 107.3C271.797 103.8 273.797 99.5001 273.797 94.5001C273.797 89.4001 271.797 85.1001 267.897 81.5001Z" fill="#000000"/>
</svg>
