<?xml version="1.0" encoding="utf-8"?>
<!-- Generator: Adobe Illustrator 28.0.0, SVG Export Plug-In . SVG Version: 6.00 Build 0)  -->
<svg version="1.1" id="Layer_1" xmlns="http://www.w3.org/2000/svg" xmlns:xlink="http://www.w3.org/1999/xlink" x="0px" y="0px"
	 viewBox="0 0 500 500" style="enable-background:new 0 0 500 500;" xml:space="preserve">
<g>
	<path d="M249.71-0.19C111.48-0.19-0.58,111.87-0.58,250.1s112.06,250.29,250.29,250.29S500,388.33,500,250.1
		S387.94-0.19,249.71-0.19z M300.51,377.87l-0.56,0.22c-17.96,6.97-36.59,10.51-55.37,10.51C160.45,388.6,92,320.05,92,235.8
		C92,151.55,160.45,83,244.58,83s152.58,68.55,152.58,152.8c0,33.66-10.9,65.74-31.53,92.78l-0.31,0.41l0.15,0.49
		c8.76,28.54,26.6,52.62,28,54.44l-0.01,0c3.76,4.91,4.78,12.09,2.61,18.29c-2.14,6.11-6.97,10.05-12.31,10.05
		c-36.23,0-65.02-18.48-82.79-33.99L300.51,377.87z"/>
	<path d="M342.2,349.81c-0.95-2.64-1.87-5.32-2.72-8.05l-6.36-20.78l5.05-6.59l7.31-9.53c10.86-14.27,23.88-37.86,23.88-69.06
		c0-65.22-55.97-122.31-124.78-122.31S119.8,170.58,119.8,235.8c0,33.24,14.55,63.85,37.92,85.87
		c10.73,10.11,23.32,18.41,37.22,24.33c15.22,6.48,32.01,10.11,49.65,10.11c36.92,0,60.65-16.27,60.65-16.27l1.87,1.63l9.83,8.57
		c0.63,0.55,1.3,1.11,1.96,1.66c6.69,5.61,15.06,11.55,24.85,16.37c2.6,1.28,5.38-1.39,4.19-4.04
		C345.91,359.51,343.98,354.74,342.2,349.81z M315.04,198c0,7.46-6.04,13.5-13.5,13.5H181.5c-7.46,0-13.5-6.04-13.5-13.5
		s6.04-13.5,13.5-13.5h120.04C309,184.5,315.04,190.54,315.04,198z M181.96,283c-4.68,0-8.79-2.38-11.22-5.99
		c-1.44-2.15-2.28-4.73-2.28-7.51c0-7.46,6.04-13.5,13.5-13.5h13.1h37.35h37.35H302c1.8,0,3.52,0.36,5.1,1
		c4.93,2.01,8.4,6.85,8.4,12.5c0,2.76-0.83,5.32-2.25,7.45C310.83,280.6,306.7,283,302,283H181.96z"/>
</g>
</svg>
