<svg width="267" height="257" viewBox="0 0 267 257" fill="none" xmlns="http://www.w3.org/2000/svg">
<path d="M256.997 114.6C261.897 102.9 261.097 86.6002 252.297 74.8002C256.597 61.8002 252.297 45.9002 244.097 37.4002C246.297 28.6002 245.197 21.1002 240.997 15.1002C230.797 0.400205 205.497 0.200195 184.097 0.200195H182.697C158.497 0.200195 138.697 9.0002 122.897 16.1002C114.897 19.7002 104.497 24.1002 96.4967 24.2002C93.1967 24.3002 90.5967 26.9002 90.5967 30.2002V137.2C90.5967 138.8 91.1967 140.3 92.3967 141.5C112.197 161.1 120.697 181.8 136.997 198.1C144.397 205.5 147.097 216.7 149.697 227.6C151.897 236.8 156.597 256.5 166.697 256.5C178.697 256.5 202.697 252.5 202.697 215.7C202.697 194.5 189.697 182.6 186.097 168.4H236.997C253.697 168.4 266.697 154.5 266.797 139.3C266.797 130.3 262.997 120.6 256.997 114.6Z" fill="#2083DF"/>
<path d="M12.5967 11.2002C5.99668 11.2002 0.59668 16.6002 0.59668 23.2002V143.3C0.59668 149.9 5.99668 155.3 12.5967 155.3H52.5967C59.1967 155.3 64.5967 149.9 64.5967 143.3V23.2002C64.5967 16.6002 59.1967 11.2002 52.5967 11.2002H12.5967ZM32.5967 57.2002C24.8967 57.2002 18.5967 50.9002 18.5967 43.2002C18.5967 35.5002 24.8967 29.2002 32.5967 29.2002C40.2967 29.2002 46.5967 35.5002 46.5967 43.2002C46.5967 51.0002 40.2967 57.2002 32.5967 57.2002Z" fill="#2083DF"/>
</svg>
