<svg width="267" height="258" viewBox="0 0 267 258" fill="none" xmlns="http://www.w3.org/2000/svg">
<path d="M266.797 118C266.697 102.8 253.697 88.8998 236.997 88.8998H186.097C189.697 74.6998 202.697 62.7998 202.697 41.5998C202.697 4.79981 178.697 0.799805 166.697 0.799805C156.597 0.799805 151.897 20.4998 149.697 29.6998C147.097 40.4998 144.397 51.7998 136.997 59.1998C120.797 75.4998 112.197 96.1998 92.3967 115.8C91.2967 116.9 90.5967 118.5 90.5967 120.1V227.1C90.5967 230.4 93.1967 233 96.4967 233.1C104.397 233.3 114.897 237.7 122.897 241.2C138.797 248.3 158.597 257.1 182.697 257.1H184.097C205.497 257.1 230.797 256.9 240.997 242.2C245.197 236.2 246.197 228.7 244.097 219.9C252.297 211.4 256.597 195.4 252.297 182.5C261.097 170.8 261.897 154.4 256.997 142.7V142.6C262.997 136.6 266.797 126.9 266.797 118Z" fill="#2083DF"/>
<path d="M12.5967 112.899C5.99668 112.899 0.59668 118.299 0.59668 124.899V244.999C0.59668 251.599 5.99668 256.999 12.5967 256.999H52.5967C59.1967 256.999 64.5967 251.599 64.5967 244.999V124.899C64.5967 118.299 59.1967 112.899 52.5967 112.899H12.5967ZM32.5967 238.999C24.8967 238.999 18.5967 232.699 18.5967 224.999C18.5967 217.299 24.8967 210.999 32.5967 210.999C40.2967 210.999 46.5967 217.299 46.5967 224.999C46.5967 232.699 40.2967 238.999 32.5967 238.999Z" fill="#2083DF"/>
</svg>
