<?xml version="1.0" encoding="utf-8"?>
<!-- Generator: Adobe Illustrator 28.0.0, SVG Export Plug-In . SVG Version: 6.00 Build 0)  -->
<svg version="1.1" id="Layer_1" xmlns="http://www.w3.org/2000/svg" xmlns:xlink="http://www.w3.org/1999/xlink" x="0px" y="0px"
	 viewBox="0 0 500 500" style="enable-background:new 0 0 500 500;" xml:space="preserve">
<g>
	<path d="M250,0C111.93,0,0,111.93,0,250s111.93,250,250,250s250-111.93,250-250S388.07,0,250,0z M342.5,407
		c-30.38,0-56.51-18.52-67.69-44.87c-3.74-8.8-5.81-18.48-5.81-28.63c0-40.53,32.97-73.5,73.5-73.5c6.77,0,13.33,0.94,19.56,2.66
		c31.06,8.59,53.94,37.08,53.94,70.84C416,374.03,383.03,407,342.5,407z M154.87,152.52c0.73-22.41,8.55-41.41,23.18-56.41
		c15.02-14.65,33.99-22.46,56.38-23.22c22.38,0.76,41.35,8.57,56.33,23.18c14.67,15.05,22.48,34.04,23.22,56.38v29.85l11.52,0
		c9.7,0.36,17.54,3.66,23.97,10.1c6.43,6.43,9.73,14.27,10.09,23.87v21.75c-5.62-1-11.34-1.51-17.06-1.51c-53.49,0-97,43.51-97,97
		c0,8.87,1.2,17.65,3.58,26.13l-105.73,0c-9.7-0.36-17.54-3.66-23.97-10.1c-6.35-6.35-9.75-14.41-10.09-23.87l0-109.31
		c0.35-9.55,3.74-17.61,10.1-23.96c6.43-6.43,14.27-9.73,23.87-10.09h11.62L154.87,152.52z" fill="#2B1B18"/>
	<path d="M282.51,152.37c-0.4-13.48-5.04-24.96-13.8-34.13l-0.08-0.08c-9.16-8.75-20.65-13.4-34.13-13.8l-0.07,0l-0.07,0
		c-13.49,0.4-24.98,5.04-34.13,13.8l-0.08,0.08c-8.77,9.17-13.41,20.65-13.8,34.13l0,29.92h96.17L282.51,152.37z" fill="#2B1B18"/>
	<path d="M369.21,301.81l-7.15,7.61l-40.78,43.45l-9.63-17.12c-2.84-5.06-9.25-6.85-14.3-4c-5.05,2.84-6.85,9.25-4,14.3l9.04,16.08
		l7.6,13.51c1.64,2.91,4.57,4.87,7.89,5.28c0.42,0.05,0.84,0.08,1.26,0.08c2.88,0,5.66-1.19,7.66-3.31l57.72-61.5
		c3.97-4.23,3.76-10.87-0.47-14.84S373.18,297.58,369.21,301.81z" fill="#2B1B18"/>
</g>
</svg>
