<?xml version="1.0" encoding="utf-8"?>
<!-- Generator: Adobe Illustrator 28.0.0, SVG Export Plug-In . SVG Version: 6.00 Build 0)  -->
<svg version="1.1" id="Layer_1" xmlns="http://www.w3.org/2000/svg" xmlns:xlink="http://www.w3.org/1999/xlink" x="0px" y="0px"
	 viewBox="0 0 500 500" style="enable-background:new 0 0 500 500;" xml:space="preserve">
<g>
	<path d="M250,0C111.93,0,0,111.93,0,250s111.93,250,250,250s250-111.93,250-250S388.07,0,250,0z M167.87,177.52
		c0.73-22.41,8.55-41.41,23.18-56.41c15.02-14.65,33.99-22.46,56.38-23.22c22.38,0.76,41.35,8.57,56.33,23.18
		c14.67,15.05,22.48,34.04,23.22,56.38v29.85h11.57c9.67,0.37,17.5,3.67,23.92,10.09c6.43,6.43,9.73,14.27,10.09,23.87l0,109.31
		c-0.36,9.7-3.67,17.54-10.1,23.97c-6.43,6.43-14.27,9.73-23.87,10.09l-182.25,0c-9.7-0.36-17.54-3.66-23.97-10.1
		c-6.35-6.35-9.75-14.41-10.09-23.87l0-109.31c0.35-9.55,3.74-17.61,10.1-23.96c6.43-6.43,14.27-9.73,23.87-10.09h11.62
		L167.87,177.52z" fill="#2B1B18"/>
	<path d="M250.15,286.46c-10.36,0-18.79,8.43-18.79,18.79s8.43,18.79,18.79,18.79s18.79-8.43,18.79-18.79
		S260.5,286.46,250.15,286.46z" fill="#2B1B18"/>
	<path d="M319.71,324.04c10.36,0,18.79-8.43,18.79-18.79s-8.43-18.79-18.79-18.79s-18.79,8.43-18.79,18.79
		S309.35,324.04,319.71,324.04z" fill="#2B1B18"/>
	<path d="M295.51,177.37c-0.4-13.48-5.04-24.96-13.8-34.13l-0.08-0.08c-9.16-8.75-20.65-13.4-34.13-13.8l-0.07,0l-0.07,0
		c-13.49,0.4-24.98,5.04-34.13,13.8l-0.08,0.08c-8.77,9.17-13.41,20.65-13.8,34.21v29.85h96.17L295.51,177.37z" fill="#2B1B18"/>
	<path d="M182.79,324.04c10.36,0,18.79-8.43,18.79-18.79s-8.43-18.79-18.79-18.79S164,294.89,164,305.25
		S172.43,324.04,182.79,324.04z" fill="#2B1B18"/>
</g>
</svg>
