<?xml version="1.0" encoding="utf-8"?>
<!-- Generator: Adobe Illustrator 28.0.0, SVG Export Plug-In . SVG Version: 6.00 Build 0)  -->
<svg version="1.1" id="Layer_1" xmlns="http://www.w3.org/2000/svg" xmlns:xlink="http://www.w3.org/1999/xlink" x="0px" y="0px"
	 viewBox="0 0 500 500" style="enable-background:new 0 0 500 500;" xml:space="preserve">
<path d="M250,0.5C112.42,0.5,0.5,112.42,0.5,250S112.42,499.5,250,499.5S499.5,387.58,499.5,250S387.58,0.5,250,0.5z M376.05,328.54
	H203.47c-8.78,0-15.91-7.14-15.91-15.91v-81.71c9.08,6.99,22.41,16.86,61.6,45.32c1.28,0.94,2.74,2.06,4.29,3.26
	c9.45,7.29,22.37,17.26,36.13,17.26c0.13,0,0.26,0,0.39,0c13.86,0,27.33-10.42,36.25-17.33c1.52-1.18,2.96-2.29,4.19-3.19
	c37.77-27.44,51.89-37.92,61.56-45.37v81.75C391.97,321.4,384.83,328.54,376.05,328.54z M203.47,177.23h172.59
	c8.78,0,15.91,7.14,15.91,15.91v7.88c0,1.83-0.85,3.58-2.29,4.69l-2.06,1.62c-11.13,8.74-17.84,14.01-69.76,51.69
	c-1.24,0.9-2.69,2.02-4.23,3.21c-6.4,4.95-17.09,13.2-23.67,13.2c-0.04,0-0.09,0-0.13,0l-0.07,0l-0.07,0c-0.04,0-0.09,0-0.13,0
	c-6.58,0-17.27-8.26-23.67-13.2c-1.54-1.19-2.99-2.31-4.23-3.21l0,0c-50.96-36.98-58.2-42.65-69.15-51.21l-2.65-2.08
	c-1.46-1.16-2.3-2.88-2.3-4.71v-7.88C187.55,184.37,194.69,177.23,203.47,177.23z M150.02,324.1H95.64c-6.63,0-12-5.37-12-12
	s5.37-12,12-12h54.38c6.63,0,12,5.37,12,12S156.65,324.1,150.02,324.1z M150.02,268.74h-78c-6.63,0-12-5.37-12-12s5.37-12,12-12h78
	c6.63,0,12,5.37,12,12S156.65,268.74,150.02,268.74z M150.02,214.19H95.64c-6.63,0-12-5.37-12-12s5.37-12,12-12h54.38
	c6.63,0,12,5.37,12,12S156.65,214.19,150.02,214.19z" fill="#2B1B18"/>
</svg>
