<?xml version="1.0" encoding="utf-8"?>
<!-- Generator: Adobe Illustrator 28.0.0, SVG Export Plug-In . SVG Version: 6.00 Build 0)  -->
<svg version="1.1" id="Layer_1" xmlns="http://www.w3.org/2000/svg" xmlns:xlink="http://www.w3.org/1999/xlink" x="0px" y="0px"
	 viewBox="0 0 500 500" style="enable-background:new 0 0 500 500;" xml:space="preserve">
<g>
	<path d="M250,0C111.93,0,0,111.93,0,250s111.93,250,250,250s250-111.93,250-250S388.07,0,250,0z M344.5,393
		c-26.93,0-50.5-14.56-63.31-36.22C274.73,345.84,271,333.1,271,319.5c0-40.53,32.97-73.5,73.5-73.5c10.92,0,21.28,2.41,30.61,6.7
		c25.28,11.63,42.89,37.19,42.89,66.8C418,360.03,385.03,393,344.5,393z M362.76,184.99l-68.67,51.66
		c-5.33,3.26-10.39,7.06-15.02,11.3l-40.43,30.41c-6.33,3.96-12.49,3.96-18.81,0L95.73,185c-6.26-4.87-9.49-11.3-9.86-19.67
		c0.37-6.96,2.74-12.73,7.24-17.62c4.89-4.51,10.67-6.88,17.67-7.25h236.91c6.99,0.36,12.77,2.74,17.67,7.25
		c4.5,4.89,6.87,10.65,7.24,17.62C372.23,173.7,369.01,180.13,362.76,184.99z M85.87,206.78l120.2,89.87
		c6.87,5.26,14.66,7.92,23.17,7.92c7.45,0,14.35-2.04,20.56-6.07c-1.52,6.88-2.29,13.91-2.29,21c0,12.01,2.17,23.69,6.45,34.78
		l-134.03,0c-9.55-0.35-17.61-3.75-23.96-10.1c-6.35-6.35-9.75-14.41-10.09-23.87V206.78z" fill="#2B1B18"/>
	<path d="M375.11,285.2c-1.44,0.55-2.78,1.41-3.9,2.61l-47.93,51.07l-9.63-17.12c-2.84-5.05-9.25-6.85-14.3-4
		c-5.05,2.84-6.85,9.25-4,14.3l13.91,24.73l2.74,4.87c1.64,2.91,4.57,4.87,7.89,5.28c0.42,0.05,0.84,0.08,1.26,0.08
		c2.88,0,5.66-1.19,7.66-3.31l6.48-6.9l39.83-42.44l11.41-12.16c3.97-4.23,3.76-10.87-0.47-14.84
		C383.02,284.5,378.75,283.81,375.11,285.2z" fill="#2B1B18"/>
</g>
</svg>
