<svg width="300" height="300" viewBox="0 0 300 300" fill="none" xmlns="http://www.w3.org/2000/svg">
<path d="M0.696828 286C-0.503172 289.9 0.296826 292.9 3.29683 295.9C6.29683 298.9 9.69683 299.9 13.8968 299L34.9968 292.7L6.79683 264.9L0.696828 286Z" fill="#000000"/>
<path d="M265.597 10.3C258.697 3.4 250.797 0 241.397 0C232.397 0 224.397 3.4 217.097 10.3L208.197 18.6L194.797 32.6L190.697 36.4L262.997 108.7L280.697 91L289.597 82.7C296.097 75.4 299.297 67.3 299.297 57.9C299.297 48.9 296.097 40.9 289.597 33.6L265.597 10.3Z" fill="#000000"/>
<path d="M85.797 277.5C88.397 276.8 90.797 275.9 93.197 274.8L24.397 207C23.397 209.1 22.497 211.2 21.697 213.5L14.397 238.7L61.197 284.9L85.797 277.5Z" fill="#000000"/>
<path d="M226.497 145.8L239.797 131.8L243.997 128L171.497 55.5996L167.197 59.4996L154.097 73.2996L39.2969 188L112.297 260L226.497 145.8Z" fill="#000000"/>
</svg>
