<?xml version="1.0" encoding="utf-8"?>
<!-- Generator: Adobe Illustrator 28.0.0, SVG Export Plug-In . SVG Version: 6.00 Build 0)  -->
<svg version="1.1" id="Layer_1" xmlns="http://www.w3.org/2000/svg" xmlns:xlink="http://www.w3.org/1999/xlink" x="0px" y="0px"
	 viewBox="0 0 500 500" style="enable-background:new 0 0 500 500;" xml:space="preserve">
<g>
	<path d="M249.71-0.19C111.48-0.19-0.58,111.87-0.58,250.1s112.06,250.29,250.29,250.29S500,388.33,500,250.1
		S387.94-0.19,249.71-0.19z M200.84,115.82c0.04-0.17,0.07-0.33,0.12-0.5C204.18,102.51,215.78,93,229.57,93h39.81
		c13.79,0,25.4,9.51,28.61,22.32c0.04,0.17,0.08,0.33,0.12,0.5c0.04,0.17,0.08,0.33,0.12,0.5c0.43,2,0.66,4.06,0.66,6.19v6.64
		h-98.82v-6.64c0-2.12,0.23-4.19,0.66-6.19C200.76,116.15,200.8,115.98,200.84,115.82z M198.6,149.14h101.76
		c10.22,0,18.53-8.31,18.53-18.53v-8.11c0-2.1-0.15-4.16-0.4-6.19h31.11c4.84,0,8.77,3.93,8.77,8.77v261.58
		c0,4.84-3.93,8.77-8.77,8.77H150.4c-4.84,0-8.77-3.93-8.77-8.77V125.09c0-4.84,3.93-8.77,8.77-8.77h30.07
		c-0.25,2.03-0.4,4.09-0.4,6.19v8.11C180.07,140.83,188.38,149.14,198.6,149.14z"/>
	<path d="M175.37,193.79c-2.11,1.19-3.63,3.12-4.28,5.45c-0.65,2.33-0.36,4.77,0.83,6.88l9.6,17.07c1.41,2.5,3.95,4.21,6.81,4.55
		c0.36,0.04,0.73,0.07,1.09,0.07c2.49,0,4.9-1.04,6.6-2.86l33.3-35.48c1.66-1.76,2.53-4.07,2.45-6.49
		c-0.08-2.42-1.09-4.66-2.85-6.32c-2.55-2.39-6.16-3.1-9.44-1.85c-1.29,0.5-2.43,1.25-3.37,2.25l-24.85,26.48l-3.55-6.31
		C185.25,192.89,179.72,191.34,175.37,193.79z"/>
	<path d="M219.47,244.05L219.47,244.05c-1.3,0.5-2.43,1.26-3.37,2.25l-24.85,26.48l-3.55-6.31c-1.19-2.11-3.12-3.63-5.45-4.28
		c-2.33-0.65-4.77-0.36-6.88,0.83c-2.11,1.19-3.63,3.12-4.28,5.45c-0.65,2.33-0.36,4.77,0.83,6.88l9.6,17.07
		c1.41,2.5,3.95,4.21,6.81,4.55c0.36,0.04,0.73,0.07,1.09,0.07c2.49,0,4.9-1.04,6.6-2.86l33.3-35.48c1.66-1.76,2.53-4.07,2.45-6.49
		c-0.08-2.42-1.09-4.66-2.85-6.32C226.36,243.51,222.75,242.8,219.47,244.05z"/>
	<path d="M212.97,346.26l9.34-9.34c3.9-3.91,3.9-10.24,0-14.14c-3.91-3.91-10.24-3.9-14.14,0l-9.33,9.34l-9.34-9.34
		c-3.91-3.9-10.24-3.9-14.14,0c-3.91,3.91-3.91,10.24,0,14.14l9.34,9.34l-9.33,9.34c-3.9,3.91-3.9,10.24,0,14.14
		c1.95,1.95,4.51,2.93,7.07,2.93c2.56,0,5.12-0.98,7.07-2.93l9.33-9.34l9.33,9.33c1.95,1.95,4.51,2.93,7.07,2.93
		s5.12-0.98,7.07-2.93c3.91-3.91,3.91-10.24,0-14.14L212.97,346.26z"/>
	<path d="M268.75,205.46h62.23c5.52,0,10-4.48,10-10s-4.48-10-10-10h-62.23c-5.52,0-10,4.48-10,10S263.23,205.46,268.75,205.46z"/>
	<path d="M331.38,259.42h-62.23c-5.52,0-10,4.48-10,10s4.48,10,10,10h62.23c5.52,0,10-4.48,10-10S336.9,259.42,331.38,259.42z"/>
	<path d="M331.78,335.48h-62.23c-5.52,0-10,4.48-10,10s4.48,10,10,10h62.23c5.52,0,10-4.48,10-10S337.3,335.48,331.78,335.48z"/>
</g>
</svg>
