<?xml version="1.0" encoding="utf-8"?>
<!-- Generator: Adobe Illustrator 28.0.0, SVG Export Plug-In . SVG Version: 6.00 Build 0)  -->
<svg version="1.1" id="Layer_1" xmlns="http://www.w3.org/2000/svg" xmlns:xlink="http://www.w3.org/1999/xlink" x="0px" y="0px"
	 viewBox="0 0 500 500" style="enable-background:new 0 0 500 500;" xml:space="preserve">
<g>
	<path d="M250,0C111.93,0,0,111.93,0,250s111.93,250,250,250s250-111.93,250-250S388.07,0,250,0z M181.46,375.92l-66.63,17.51
		c-2.7,0.71-5.49-0.05-7.46-2.03c-1.97-1.98-2.71-4.77-1.98-7.47l17.42-64.61l-0.2-0.36c-13.09-23.02-19.73-48.43-19.73-75.52
		c0.44-28,7.31-53.65,20.41-76.22c13.56-22.59,31.88-40.91,54.44-54.45c22.57-13.09,48.22-19.96,76.2-20.41
		c41.09,0.45,77.04,15.34,106.85,44.24c14.44,14.45,25.66,30.94,33.35,49.02c8.12,18.06,12.24,37.51,12.24,57.8
		c-0.46,28.01-7.55,53.65-21.09,76.22c-13.54,22.58-32.09,40.9-55.13,54.45c-22.58,13.09-48.23,19.96-76.21,20.41
		c-25.74,0-50.01-6.18-72.12-18.37L181.46,375.92z"/>
	<path d="M343.66,333.15c24.2-24.2,36.99-54.11,38.36-89.73c-0.92-34.7-13.93-64.39-39.04-89.05
		c-24.66-24.66-54.35-36.99-89.04-36.99c-35.62,0.46-65.31,12.79-89.05,36.99c-24.21,23.75-36.76,53.43-37.67,89.05
		c0.45,24.21,7.07,46.58,19.86,67.13l2.74,4.79l-11.97,42.84c-0.46,1.66,1.04,3.2,2.71,2.77l44.19-11.36l4.79,2.74
		c19.63,11.42,41.1,17.36,64.39,17.81C289.55,369.23,319.46,356.9,343.66,333.15z M214.25,274.25
		c-11.31-12.21-22.14-26.35-22.14-26.35c-1.42-2-4.06-6.43-7.84-13.17c-4.02-7.59-6.29-15.96-6.73-24.87
		c0.44-8.44,2.01-15.19,4.67-20.07c2.67-4.89,8.16-11.05,8.28-11.58c3.72-2.82,18.95-4.13,19.41-3.99c0.96,0.28,2.58,1.54,4.75,5.88
		c0.92,2.32,2.28,5.26,4.11,8.91c1.96,4.92,3.53,8.95,4.78,12.28c1.81,5.43,2.47,6.66,2.88,7.14c1.15,1.97,1.34,3.87,0.59,5.81
		c-3.57,6.23-6.47,10.26-8.65,12c-4.52,3.87-3.71,7.32-2.28,9.47c6.89,12.4,14.58,21.95,22.86,28.39
		c8.22,6.4,17.94,12.19,28.91,17.22c5.1,3.18,7.96,1.28,9.47-0.93c1.4-1.41,3.47-3.71,6.2-6.91c2.27-3.17,4.33-5.92,6.17-8.22
		c1.97-2.75,4.07-3.1,6.83-1.14l0.21,0.11c2.44,0.98,7.05,2.93,12.94,5.45c6.35,3.18,10.71,5.47,12.95,6.81l0.24,0.14h0.28
		c0.1,0,0.51,0.04,1.62,0.58l0.12,0.05c2.51,0.84,4.18,1.86,4.94,2.99c0.68,1.13,1.21,4.94-2.81,17.61
		c-1.74,4.34-5.28,8.1-10.53,11.15c-5.37,3.13-10.11,5.17-14.05,6.04c-5.36,0.9-11.48,0.9-18.12,0.01
		c-6.33-1.36-15.49-4.56-27.17-9.51C239.52,296.97,225.1,286.45,214.25,274.25z"/>
</g>
</svg>
